<?xml version="1.0" encoding="utf-8"?>
<!-- Generator: Adobe Illustrator 21.1.0, SVG Export Plug-In . SVG Version: 6.00 Build 0)  -->
<svg version="1.1" id="Layer_1" xmlns="http://www.w3.org/2000/svg" xmlns:xlink="http://www.w3.org/1999/xlink" x="0px" y="0px"
	 viewBox="0 0 62 31" style="enable-background:new 0 0 62 31;" xml:space="preserve">
<style type="text/css">
	.st0{fill:#162667;}
	.st1{fill:url(#SVGID_1_);}
	.st2{clip-path:url(#SVGID_3_);fill:url(#SVGID_4_);}
	.st3{fill:url(#SVGID_5_);}
	.st4{clip-path:url(#SVGID_7_);}
	.st5{fill:url(#SVGID_8_);}
	.st6{filter:url(#Adobe_OpacityMaskFilter);}
	.st7{clip-path:url(#SVGID_10_);fill:#FFFFFF;}
	.st8{clip-path:url(#SVGID_10_);mask:url(#SVGID_11_);}
	.st9{fill:#172768;}
	.st10{fill:#182868;}
	.st11{fill:#192969;}
	.st12{fill:#1A2969;}
	.st13{fill:#1B2A6A;}
	.st14{fill:#1B2B6B;}
	.st15{fill:#1C2C6B;}
	.st16{fill:#1D2D6C;}
	.st17{fill:#1E2E6C;}
	.st18{fill:#1F2F6D;}
	.st19{fill:#202F6E;}
	.st20{fill:#21306E;}
	.st21{fill:#22316F;}
	.st22{fill:#23326F;}
	.st23{fill:#243370;}
	.st24{fill:#253471;}
	.st25{fill:#263471;}
	.st26{fill:#263572;}
	.st27{fill:#273672;}
	.st28{fill:#283773;}
	.st29{fill:#293873;}
	.st30{fill:#2A3974;}
	.st31{fill:#2B3A75;}
	.st32{fill:#2C3A75;}
	.st33{fill:#2D3B76;}
	.st34{fill:#2E3C76;}
	.st35{fill:#2F3D77;}
	.st36{fill:#303E78;}
	.st37{fill:#303F78;}
	.st38{fill:#314079;}
	.st39{fill:#324079;}
	.st40{fill:#33417A;}
	.st41{fill:#34427B;}
	.st42{fill:#35437B;}
	.st43{fill:#36447C;}
	.st44{fill:#37457C;}
	.st45{fill:#38457D;}
	.st46{fill:#39467E;}
	.st47{fill:#3A477E;}
	.st48{fill:#3B487F;}
	.st49{fill:#3B497F;}
	.st50{fill:#3C4A80;}
	.st51{fill:#3D4B81;}
	.st52{fill:#3E4B81;}
	.st53{fill:#3F4C82;}
	.st54{fill:#404D82;}
	.st55{fill:#414E83;}
	.st56{fill:#424F84;}
	.st57{fill:#435084;}
	.st58{fill:#445185;}
	.st59{fill:#455185;}
	.st60{fill:#455286;}
	.st61{fill:#465387;}
	.st62{fill:#475487;}
	.st63{fill:#485588;}
	.st64{fill:#495688;}
	.st65{fill:#4A5789;}
	.st66{fill:#4B578A;}
	.st67{fill:#4C588A;}
	.st68{fill:#4D598B;}
	.st69{fill:#4E5A8B;}
	.st70{fill:#4F5B8C;}
	.st71{fill:#505C8D;}
	.st72{fill:#515D8E;}
	.st73{fill:#525E8E;}
	.st74{fill:#535F8F;}
	.st75{fill:#546090;}
	.st76{fill:#556190;}
	.st77{fill:#566291;}
	.st78{fill:#576291;}
	.st79{fill:#586392;}
	.st80{fill:#596492;}
	.st81{fill:#5A6593;}
	.st82{fill:#5B6694;}
	.st83{fill:#5B6794;}
	.st84{fill:#5C6895;}
	.st85{fill:#5D6895;}
	.st86{fill:#5E6996;}
	.st87{fill:#5F6A97;}
	.st88{fill:#606B97;}
	.st89{fill:#616C98;}
	.st90{fill:#626D98;}
	.st91{fill:#636D99;}
	.st92{fill:#646E9A;}
	.st93{fill:#656F9A;}
	.st94{fill:#65709B;}
	.st95{fill:#66719B;}
	.st96{fill:#67729C;}
	.st97{fill:#68739D;}
	.st98{fill:#69739D;}
	.st99{fill:#6A749E;}
	.st100{fill:#6B759E;}
	.st101{fill:#6C769F;}
	.st102{fill:#6D77A0;}
	.st103{fill:#6E78A0;}
	.st104{fill:#6F79A1;}
	.st105{fill:#7079A1;}
	.st106{fill:#707AA2;}
	.st107{fill:#717BA3;}
	.st108{fill:#727CA3;}
	.st109{fill:#737DA4;}
	.st110{fill:#747EA4;}
	.st111{fill:#757FA5;}
	.st112{fill:#767FA6;}
	.st113{fill:#7780A6;}
	.st114{fill:#7881A7;}
	.st115{fill:#7982A7;}
	.st116{fill:#7A83A8;}
	.st117{fill:#7A84A9;}
	.st118{fill:#7B84A9;}
	.st119{fill:#7C85AA;}
	.st120{fill:#7D86AA;}
	.st121{fill:#7E87AB;}
	.st122{fill:#7F88AC;}
	.st123{fill:#8089AC;}
	.st124{fill:#818AAD;}
	.st125{fill:#828AAD;}
	.st126{fill:#838BAE;}
	.st127{fill:#848CAF;}
	.st128{fill:#858DAF;}
	.st129{fill:#858EB0;}
	.st130{fill:#868FB0;}
	.st131{fill:#8790B1;}
	.st132{fill:#8890B1;}
	.st133{fill:#8991B2;}
	.st134{fill:#8A92B3;}
	.st135{fill:#8B93B3;}
	.st136{fill:#8C94B4;}
	.st137{fill:#8D95B4;}
	.st138{fill:#8E95B5;}
	.st139{fill:#8F96B6;}
	.st140{fill:#9097B6;}
	.st141{fill:#9098B7;}
	.st142{fill:#9199B7;}
	.st143{fill:#929AB8;}
	.st144{fill:#939BB9;}
	.st145{fill:#949BB9;}
	.st146{fill:#959CBA;}
	.st147{fill:#969DBA;}
	.st148{fill:#979EBB;}
	.st149{fill:#989FBC;}
	.st150{fill:#99A0BC;}
	.st151{fill:#9AA1BD;}
	.st152{fill:#9BA2BE;}
	.st153{fill:#9CA3BF;}
	.st154{fill:#9DA4BF;}
	.st155{fill:#9EA5C0;}
	.st156{fill:#9FA6C0;}
	.st157{fill:#A0A6C1;}
	.st158{fill:#A1A7C2;}
	.st159{fill:#A2A8C2;}
	.st160{fill:#A3A9C3;}
	.st161{fill:#A4AAC3;}
	.st162{fill:#A5ABC4;}
	.st163{fill:#A5ACC5;}
	.st164{fill:#A6ACC5;}
	.st165{fill:#A7ADC6;}
	.st166{fill:#A8AEC6;}
	.st167{fill:#A9AFC7;}
	.st168{fill:#AAB0C8;}
	.st169{fill:#ABB1C8;}
	.st170{fill:#ACB2C9;}
	.st171{fill:#ADB2C9;}
	.st172{fill:#AEB3CA;}
	.st173{fill:#AFB4CB;}
	.st174{fill:#AFB5CB;}
	.st175{fill:#B0B6CC;}
	.st176{fill:#B1B7CC;}
	.st177{fill:#B2B8CD;}
	.st178{fill:#B3B8CE;}
	.st179{fill:#B4B9CE;}
	.st180{fill:#B5BACF;}
	.st181{fill:#B6BBCF;}
	.st182{fill:#B7BCD0;}
	.st183{fill:#B8BDD0;}
	.st184{fill:#B9BDD1;}
	.st185{fill:#BABFD2;}
	.st186{fill:#BBC0D3;}
	.st187{fill:#BCC1D3;}
	.st188{fill:#BDC2D4;}
	.st189{fill:#BEC3D5;}
	.st190{fill:#BFC3D5;}
	.st191{fill:#C0C4D6;}
	.st192{fill:#C1C5D6;}
	.st193{fill:#C2C6D7;}
	.st194{fill:#C3C7D8;}
	.st195{fill:#C4C8D8;}
	.st196{fill:#C5C9D9;}
	.st197{fill:#C6CADA;}
	.st198{fill:#C7CBDB;}
	.st199{fill:#C8CCDB;}
	.st200{fill:#C9CDDC;}
	.st201{fill:#CACEDC;}
	.st202{fill:#CBCEDD;}
	.st203{fill:#CCCFDE;}
	.st204{fill:#CDD0DE;}
	.st205{fill:#CED1DF;}
	.st206{fill:#CFD2DF;}
	.st207{fill:#CFD3E0;}
	.st208{fill:#D0D4E1;}
	.st209{fill:#D1D4E1;}
	.st210{fill:#D3D6E2;}
	.st211{fill:#D4D7E3;}
	.st212{fill:#D5D8E4;}
	.st213{fill:#D6D9E4;}
	.st214{fill:#D7DAE5;}
	.st215{fill:#D8DAE5;}
	.st216{fill:#D9DBE6;}
	.st217{fill:#DADCE7;}
	.st218{fill:#DADDE7;}
	.st219{fill:#DBDEE8;}
	.st220{fill:#DCDFE8;}
	.st221{fill:#DDE0E9;}
	.st222{fill:#DEE0EA;}
	.st223{fill:#E0E2EB;}
	.st224{fill:#E1E3EB;}
	.st225{fill:#E2E4EC;}
	.st226{fill:#E3E5ED;}
	.st227{fill:#E4E5ED;}
	.st228{fill:#E4E6EE;}
	.st229{fill:#E5E7EE;}
	.st230{fill:#E6E8EF;}
	.st231{fill:#E7E9EF;}
	.st232{fill:#E8EAF0;}
	.st233{fill:#E9EBF1;}
	.st234{fill:#EAEBF1;}
	.st235{fill:#EBECF2;}
	.st236{fill:#EDEEF3;}
	.st237{fill:#EEEFF4;}
	.st238{fill:#EFF0F4;}
	.st239{fill:#EFF1F5;}
	.st240{fill:#F0F1F5;}
	.st241{fill:#F1F2F6;}
	.st242{fill:#F2F3F7;}
	.st243{fill:#F3F4F7;}
	.st244{fill:#F4F5F8;}
	.st245{fill:#F5F6F8;}
	.st246{fill:#F6F6F9;}
	.st247{fill:#F7F7FA;}
	.st248{fill:#F8F8FA;}
	.st249{fill:#FAFAFB;}
	.st250{fill:#FAFBFC;}
	.st251{fill:#FBFCFD;}
	.st252{fill:#FCFCFD;}
	.st253{fill:#FDFDFE;}
	.st254{fill:#FEFEFE;}
	.st255{fill:#FFFFFF;}
	.st256{fill:url(#SVGID_12_);}
	.st257{fill:#A02322;}
</style>
<g>
	<g>
		<g>
			<g>
				<path class="st0" d="M55.5,4c4.7,2.3,6.3,5.5,6.3,8.7c0,0,0.2,2.5-1.4,4.9c-0.8,1.2-1.4,1.8-1.4,3c0,0.6,0,0.8,0.1,1.2
					c0.1,1.7-0.6,2.9-0.9,3.2c-0.5,0.7-0.8,1.1-1.2,1.8c0,0.1-0.1,0.3-0.1,0.3c-0.1,0.4-0.2,0.5-0.3,0.6c-0.2,0.2-0.4,0.2-0.5,0.2
					c-0.2,0-0.3-0.2-0.2-0.5c0,0,0-0.1,0.1-0.2c0.1-0.2,0.3-0.3,0.6-0.7c0.1-0.2,0.3-0.4,0.4-0.7c0.4-0.7,0.5-1,0.7-1.4
					c0.2-0.4,0.3-1,0.3-1.5c0-0.5-0.1-0.6-0.3-0.6c-0.2,0-0.5,0.2-0.5,0.3c-0.1,0.1-0.2,0.2-0.4,0.3c-0.1,0.1-0.3,0.2-0.5,0.3
					c-0.1,0.1-0.2,0.2-0.3,0.3c-0.1,0.1-0.2,0.3-0.3,0.4c-0.2,0.2-0.3,0.4-0.3,0.5c0,0.1-0.3,0.5-0.6,0.5c-0.2,0-0.2-0.2-0.1-0.5
					c0.2-0.4,0.2-0.4,0.3-0.5c0.1-0.1,0.3-0.2,0.4-0.4c0.1-0.2,0.6-1,0.8-1.3c0.6-0.9,0.9-0.8,0.9-1.5c0-0.3,0-0.6-0.3-0.8
					c-0.3-0.2-0.6-0.3-0.7-0.3c-0.1,0-0.7,0-1.3-0.5c-0.6-0.5-0.7-1-0.7-1.1c0,0,0-0.3,0.4-0.3c0,0,0.2,0,0.2,0.2
					c-0.1,0.3-0.1,0.5,0.2,0.7c0.3,0.3,1.1,0.4,1.6,0.2c0.6-0.2,1.4-0.4,1.8-0.5c0.2-0.1,0.6-0.2,1-0.7c0.6-0.7,1.6-1.5,1.6-4.1
					c0,0,0.1-1.9-1.1-3.4c-1.6-1.9-3.1-0.1-5.8-2.1L55.5,4z"/>
				<linearGradient id="SVGID_1_" gradientUnits="userSpaceOnUse" x1="38.6136" y1="5.875" x2="54.7341" y2="19.4018">
					<stop  offset="0" style="stop-color:#9FBE37"/>
					<stop  offset="0.6" style="stop-color:#69B8EB"/>
					<stop  offset="0.6538" style="stop-color:#66B2E6"/>
					<stop  offset="0.7241" style="stop-color:#5CA2D7"/>
					<stop  offset="0.8037" style="stop-color:#4D87BE"/>
					<stop  offset="0.89" style="stop-color:#38619C"/>
					<stop  offset="0.9809" style="stop-color:#1C3171"/>
					<stop  offset="1" style="stop-color:#162667"/>
				</linearGradient>
				<path class="st1" d="M59.2,18.2c0.6-0.7,1.6-1.5,1.6-4.1c0,0,0.1-1.9-1.1-3.4c-1.6-1.9-3.1-0.1-5.8-2.1c-0.8-0.7-1.2-1.3-1.7-2
					c0,0-1-1.3-3.3-2c-2.4-0.7-5.9-0.7-7.8,0.6c-0.3,0.2-0.8,0.6-0.8,0.9c0,0.2,0.2,0.2,0.6,0.3c0.4,0.1,0.6,0.2,0.6,0.3
					c0,0.1,0,0.1-0.2,0.2C41.3,7,41.1,7.1,41,7.1c-1.5,0.8-2.3,1.3-3.8,2.5c-0.8,0.6-3.7,3.2-8,5.1l-0.4-1c1.8-0.4,3.1-1.1,3.8-1.7
					c1-0.8,1.7-1.4,2.6-2.5c0.9-1.1,1.5-1.7,2.7-3c1.2-1.3,2.3-2.2,4-3.1C44.2,2.3,48.8,1,55.5,4c4.7,2.3,6.3,5.5,6.3,8.7
					c0,0,0.2,2.5-1.4,4.9L59.2,18.2z"/>
				<g>
					<defs>
						<path id="SVGID_2_" d="M35.3,9.6c0.9-1.1,1.5-1.7,2.7-3c0.2-0.2,0.5-0.5,0.7-0.7c-13,5.6-24.4,1.1-25.3,0.7
							c0.6,0.7,1.3,1.6,2.2,2.5c0,0,3.2,3.2,7.1,4.4c4.9,1.4,8.5-0.3,9.9-1.4C33.6,11.3,34.3,10.6,35.3,9.6z"/>
					</defs>
					<clipPath id="SVGID_3_">
						<use xlink:href="#SVGID_2_"  style="overflow:visible;"/>
					</clipPath>
					<linearGradient id="SVGID_4_" gradientUnits="userSpaceOnUse" x1="14.2494" y1="11.3941" x2="51.9621" y2="4.7443">
						<stop  offset="0" style="stop-color:#DA9033"/>
						<stop  offset="2.336113e-02" style="stop-color:#DC9A34"/>
						<stop  offset="0.1225" style="stop-color:#E5C238"/>
						<stop  offset="0.2015" style="stop-color:#EBDA3B"/>
						<stop  offset="0.25" style="stop-color:#EDE33C"/>
						<stop  offset="0.6" style="stop-color:#8AB53C"/>
						<stop  offset="0.6406" style="stop-color:#84B24F"/>
						<stop  offset="0.8145" style="stop-color:#6DA69C"/>
						<stop  offset="0.9385" style="stop-color:#5E9FCC"/>
						<stop  offset="1" style="stop-color:#589CDE"/>
					</linearGradient>
					<path class="st2" d="M52.2,6.6c0,0-1-1.3-3.3-2c-2.4-0.7-5.9-0.7-7.8,0.6c-0.3,0.2-0.8,0.6-0.8,0.9c0,0.2,0.2,0.2,0.6,0.3
						c0.4,0.1,0.6,0.2,0.6,0.3c0,0.1,0,0.1-0.2,0.2C41.3,7,41.1,7.1,41,7.1c-1.5,0.8-2.3,1.3-3.8,2.5c-0.6,0.5-2.4,2-5.1,3.6v0
						c8.2-4.5,10.9-6.4,15.4-6.8c2.4-0.2,4.4,0.1,4.8,0.3l0,0C52.3,6.7,52.3,6.6,52.2,6.6z M35.3,9.6c0.9-1.1,1.5-1.7,2.7-3
						c0.2-0.2,0.5-0.5,0.7-0.7c-13,5.6-24.4,1.1-25.3,0.7c0.6,0.7,1.3,1.6,2.2,2.5c0,0,3.2,3.2,7.1,4.4c4.9,1.4,8.5-0.3,9.9-1.4
						C33.6,11.3,34.3,10.6,35.3,9.6z"/>
				</g>
				<linearGradient id="SVGID_5_" gradientUnits="userSpaceOnUse" x1="25.1108" y1="11.0491" x2="38.0012" y2="9.9214">
					<stop  offset="0.3" style="stop-color:#B3C43D"/>
					<stop  offset="1" style="stop-color:#73A43F"/>
				</linearGradient>
				<path class="st3" d="M29.3,12.4c-0.2,0.4-0.8,0.5-1.5,0.7c-0.7,0.3-1.6,0.6-2,0.9c3.3,0.2,5.7-1.1,6.8-1.9
					c1-0.8,1.7-1.4,2.6-2.5c0.9-1,1.4-1.6,2.4-2.7l0,0c0,0-0.9,0.6-1.6,1.2c0,0-0.4,0.3-0.7,0.5c-1,0.7-1.6,0.2-3.6,0.4
					c-1.1,0.1-2.2,0.3-3.2,0.5c-0.8,0.2-1.8,0.4-1.8,0.7c0,0.2,0.4,0.2,1.1,0.3c0.3,0,0.5,0.1,0.5,0.2c0,0.1-0.2,0.2-0.4,0.3
					c-0.8,0.3-1.9,0.5-2.9,0.7c1.1,0.1,2.3,0.1,3.6,0c0.2,0,0.4,0.1,0.5,0.2C29.4,12,29.5,12.2,29.3,12.4z"/>
				<g>
					<defs>
						<path id="SVGID_6_" d="M52.3,6.7L52.3,6.7c0,0-0.1-0.1-0.1-0.1c0,0-1-1.3-3.3-2c-2.4-0.7-5.9-0.7-7.8,0.6
							c-0.3,0.2-0.8,0.6-0.8,0.9c0,0.2,0.2,0.2,0.6,0.3c0.4,0.1,0.6,0.2,0.6,0.3c0,0.1,0,0.1-0.2,0.2C41.3,7,41.1,7.1,41,7.1
							c-1.5,0.8-2.3,1.3-3.8,2.5c-0.6,0.5-2.4,2-5.1,3.6v0C40.5,8.7,43,6.8,47.5,6.4C49.9,6.2,51.9,6.5,52.3,6.7"/>
					</defs>
					<clipPath id="SVGID_7_">
						<use xlink:href="#SVGID_6_"  style="overflow:visible;"/>
					</clipPath>
					<g class="st4">
						<linearGradient id="SVGID_8_" gradientUnits="userSpaceOnUse" x1="11.9766" y1="11.7948" x2="47.3663" y2="5.5546">
							<stop  offset="0.25" style="stop-color:#EDE235"/>
							<stop  offset="0.5" style="stop-color:#AAC335"/>
							<stop  offset="0.95" style="stop-color:#61ABC7"/>
						</linearGradient>
						<path class="st5" d="M52.3,6.7L52.3,6.7c0,0-0.1-0.1-0.1-0.1c0,0-1-1.3-3.3-2c-2.4-0.7-5.9-0.7-7.8,0.6
							c-0.3,0.2-0.8,0.6-0.8,0.9c0,0.2,0.2,0.2,0.6,0.3c0.4,0.1,0.6,0.2,0.6,0.3c0,0.1,0,0.1-0.2,0.2C41.3,7,41.1,7.1,41,7.1
							c-1.5,0.8-2.3,1.3-3.8,2.5c-0.6,0.5-2.4,2-5.1,3.6v0C40.5,8.7,43,6.8,47.5,6.4C49.9,6.2,51.9,6.5,52.3,6.7 M35.3,9.6
							c0.9-1.1,1.5-1.7,2.7-3c0.2-0.2,0.5-0.5,0.7-0.7c-13,5.6-24.4,1.1-25.3,0.7c0.6,0.7,1.3,1.6,2.2,2.5c0,0,3.2,3.2,7.1,4.4
							c4.9,1.4,8.5-0.3,9.9-1.4C33.6,11.3,34.3,10.6,35.3,9.6z"/>
					</g>
				</g>
				<g>
					<defs>
						<path id="SVGID_9_" d="M52.2,6.6c0,0-1-1.3-3.3-2c-2.4-0.7-5.9-0.7-7.8,0.6c-0.3,0.2-0.8,0.6-0.8,0.9c0,0.2,0.2,0.2,0.6,0.3
							c0.4,0.1,0.6,0.2,0.6,0.3c0,0.1,0,0.1-0.2,0.2C41.3,7,41.1,7.1,41,7.1c-1.5,0.8-2.3,1.3-3.8,2.5c-0.6,0.5-2.4,2-5.1,3.6l0,0
							C40.5,8.7,43,6.8,47.5,6.4c2.4-0.2,4.4,0.1,4.8,0.3l0,0C52.3,6.7,52.3,6.6,52.2,6.6z"/>
					</defs>
					<clipPath id="SVGID_10_">
						<use xlink:href="#SVGID_9_"  style="overflow:visible;"/>
					</clipPath>
					<defs>
						<filter id="Adobe_OpacityMaskFilter" filterUnits="userSpaceOnUse" x="30.1" y="3.1" width="23.9" height="11">
							<feColorMatrix  type="matrix" values="1 0 0 0 0  0 1 0 0 0  0 0 1 0 0  0 0 0 1 0"/>
						</filter>
					</defs>
					<mask maskUnits="userSpaceOnUse" x="30.1" y="3.1" width="23.9" height="11" id="SVGID_11_">
						<g class="st6">
							<g>
								<polygon class="st7" points="41.1,6.9 42,8.5 45.9,7.2 50.2,6.9 52.6,7.2 52.9,6.4 48.2,3.4 44,3.6 41,4.6 40.1,6.1 
									40.1,6.6 								"/>
								<g style="clip-path:url(#SVGID_10_);">
									
										<image style="overflow:visible;" width="12" height="9.2" xlink:href="859BEE3A7F738F2B.png"  transform="matrix(1 0 0 1 30.7906 5.2454)"/>
								</g>
							</g>
						</g>
					</mask>
					<g class="st8">
						<path class="st0" d="M53.9,6.4c0.6,2.7-3.5,5.8-8.5,6.9c-5,1.1-14.7,1.1-15.3-1.6c-0.6-2.7,8.1-7.1,13-8.3
							C48.1,2.3,53.3,3.7,53.9,6.4z"/>
						<path class="st9" d="M53.9,6.4c0.6,2.7-3.5,5.7-8.4,6.8c-4.9,1.1-14.5,1.1-15.1-1.6c-0.6-2.7,8-7.1,12.9-8.2
							C48.1,2.4,53.2,3.8,53.9,6.4z"/>
						<path class="st10" d="M53.8,6.5c0.6,2.7-3.5,5.7-8.4,6.8c-4.9,1.1-14.3,1.1-14.9-1.6c-0.6-2.7,7.8-7,12.7-8.1
							C48.1,2.4,53.2,3.8,53.8,6.5z"/>
						<path class="st11" d="M53.8,6.5c0.6,2.7-3.5,5.6-8.3,6.7c-4.8,1.1-14.2,1.1-14.8-1.6c-0.6-2.7,7.7-6.9,12.6-8
							C48.1,2.5,53.2,3.8,53.8,6.5z"/>
						<path class="st12" d="M53.7,6.5c0.6,2.6-3.5,5.6-8.3,6.7c-4.8,1.1-14,1-14.6-1.6c-0.6-2.6,7.6-6.8,12.4-7.9
							C48,2.5,53.1,3.8,53.7,6.5z"/>
						<path class="st13" d="M53.6,6.5c0.6,2.6-3.5,5.5-8.2,6.6c-4.7,1.1-13.8,1-14.4-1.6c-0.6-2.6,7.5-6.8,12.3-7.8
							C48,2.6,53.1,3.9,53.6,6.5z"/>
						<path class="st14" d="M53.6,6.5c0.6,2.6-3.5,5.5-8.2,6.5c-4.7,1.1-13.7,1-14.3-1.6c-0.6-2.6,7.4-6.7,12.1-7.7
							C48,2.6,53,3.9,53.6,6.5z"/>
						<path class="st15" d="M53.5,6.5c0.6,2.6-3.4,5.4-8.1,6.5c-4.7,1.1-13.5,0.9-14.1-1.6c-0.6-2.6,7.3-6.6,12-7.7
							C48,2.6,53,3.9,53.5,6.5z"/>
						<path class="st16" d="M53.5,6.5C54,9,50,11.9,45.4,12.9c-4.6,1-13.3,0.9-13.9-1.6c-0.6-2.5,7.2-6.5,11.8-7.6
							C48,2.7,52.9,4,53.5,6.5z"/>
						<path class="st17" d="M53.4,6.5c0.6,2.5-3.4,5.3-8,6.4c-4.6,1-13.2,0.9-13.7-1.6c-0.6-2.5,7.1-6.4,11.7-7.5
							C48,2.7,52.9,4,53.4,6.5z"/>
						<path class="st18" d="M53.4,6.5c0.6,2.5-3.4,5.3-7.9,6.3c-4.5,1-13,0.8-13.6-1.7c-0.6-2.5,7-6.4,11.5-7.4
							C47.9,2.8,52.8,4,53.4,6.5z"/>
						<path class="st19" d="M53.3,6.5c0.6,2.5-3.4,5.2-7.9,6.2c-4.5,1-12.8,0.8-13.4-1.7c-0.6-2.5,6.9-6.3,11.4-7.3
							C47.9,2.8,52.8,4,53.3,6.5z"/>
						<path class="st20" d="M53.3,6.5c0.5,2.5-3.4,5.2-7.8,6.2c-4.5,1-12.7,0.8-13.2-1.7C31.6,8.6,39,4.8,43.4,3.8
							C47.9,2.8,52.7,4.1,53.3,6.5z"/>
						<path class="st21" d="M53.2,6.5c0.5,2.4-3.4,5.1-7.8,6.1c-4.4,1-12.5,0.7-13.1-1.7C31.8,8.6,39,4.8,43.5,3.9
							C47.9,2.9,52.7,4.1,53.2,6.5z"/>
						<path class="st22" d="M53.1,6.5c0.5,2.4-3.3,5.1-7.7,6.1c-4.4,1-12.4,0.7-12.9-1.7c-0.5-2.4,6.6-6.1,11-7
							C47.9,2.9,52.6,4.1,53.1,6.5z"/>
						<path class="st23" d="M53.1,6.6c0.5,2.4-3.3,5.1-7.7,6c-4.3,1-12.2,0.7-12.7-1.7c-0.5-2.4,6.5-6,10.8-6.9
							C47.9,3,52.6,4.2,53.1,6.6z"/>
						<path class="st24" d="M53,6.6c0.5,2.4-3.3,5-7.6,6c-4.3,0.9-12,0.7-12.5-1.7C32.4,8.4,39.2,4.9,43.5,4C47.8,3,52.5,4.2,53,6.6
							z"/>
						<path class="st25" d="M53,6.6c0.5,2.3-3.3,5-7.6,5.9c-4.3,0.9-11.9,0.6-12.4-1.7C32.5,8.4,39.3,4.9,43.6,4
							C47.8,3.1,52.5,4.2,53,6.6z"/>
						<path class="st26" d="M52.9,6.6c0.5,2.3-3.3,4.9-7.5,5.8c-4.2,0.9-11.7,0.6-12.2-1.7C32.7,8.4,39.4,4.9,43.6,4
							C47.8,3.1,52.4,4.3,52.9,6.6z"/>
						<path class="st27" d="M52.9,6.6c0.5,2.3-3.3,4.9-7.5,5.8c-4.2,0.9-11.5,0.6-12-1.7c-0.5-2.3,6-5.7,10.2-6.6
							C47.8,3.1,52.4,4.3,52.9,6.6z"/>
						<path class="st28" d="M52.8,6.6c0.5,2.3-3.3,4.8-7.4,5.7c-4.1,0.9-11.4,0.5-11.9-1.7C33.1,8.3,39.5,5,43.6,4.1
							C47.8,3.2,52.3,4.3,52.8,6.6z"/>
						<path class="st29" d="M52.8,6.6c0.5,2.3-3.2,4.8-7.3,5.7c-4.1,0.9-11.2,0.5-11.7-1.7c-0.5-2.3,5.8-5.5,9.9-6.4
							C47.7,3.2,52.3,4.3,52.8,6.6z"/>
						<path class="st30" d="M52.7,6.6c0.5,2.2-3.2,4.7-7.3,5.6c-4.1,0.9-11,0.5-11.5-1.8c-0.5-2.2,5.7-5.4,9.8-6.3
							C47.7,3.3,52.2,4.4,52.7,6.6z"/>
						<path class="st31" d="M52.6,6.6c0.5,2.2-3.2,4.7-7.2,5.5c-4,0.9-10.9,0.4-11.3-1.8c-0.5-2.2,5.6-5.4,9.6-6.2
							C47.7,3.3,52.2,4.4,52.6,6.6z"/>
						<path class="st32" d="M52.6,6.6c0.5,2.2-3.2,4.6-7.2,5.5c-4,0.8-10.7,0.4-11.2-1.8c-0.5-2.2,5.5-5.3,9.5-6.1
							C47.7,3.3,52.1,4.4,52.6,6.6z"/>
						<path class="st33" d="M52.5,6.6c0.5,2.2-3.2,4.6-7.1,5.4c-3.9,0.8-10.5,0.4-11-1.8c-0.5-2.2,5.4-5.2,9.3-6
							C47.7,3.4,52.1,4.5,52.5,6.6z"/>
						<path class="st34" d="M52.5,6.6c0.5,2.1-3.2,4.5-7.1,5.4c-3.9,0.8-10.4,0.3-10.8-1.8c-0.5-2.1,5.3-5.1,9.2-6
							C47.7,3.4,52,4.5,52.5,6.6z"/>
						<path class="st34" d="M52.4,6.6c0.5,2.1-3.2,4.5-7,5.3c-3.9,0.8-10.4,0.3-10.8-1.8c-0.5-2.1,5.3-5.1,9.2-5.9
							C47.7,3.4,52,4.5,52.4,6.6z"/>
						<path class="st35" d="M52.4,6.6c0.4,2.1-3.2,4.5-7,5.3c-3.9,0.8-10.3,0.4-10.8-1.8c-0.4-2.1,5.3-5.1,9.1-5.9
							C47.6,3.5,52,4.5,52.4,6.6z"/>
						<path class="st36" d="M52.4,6.6c0.4,2.1-3.1,4.5-7,5.3c-3.9,0.8-10.3,0.4-10.7-1.8c-0.4-2.1,5.3-5.1,9.1-5.9
							C47.6,3.5,51.9,4.5,52.4,6.6z"/>
						<path class="st37" d="M52.4,6.7c0.4,2.1-3.1,4.5-7,5.3c-3.8,0.8-10.3,0.4-10.7-1.8c-0.4-2.1,5.3-5.1,9.1-5.9
							C47.6,3.5,51.9,4.5,52.4,6.7z"/>
						<path class="st38" d="M52.3,6.7c0.4,2.1-3.1,4.5-6.9,5.3c-3.8,0.8-10.2,0.4-10.7-1.7c-0.4-2.1,5.2-5.1,9.1-5.9
							C47.6,3.5,51.9,4.6,52.3,6.7z"/>
						<path class="st39" d="M52.3,6.7c0.4,2.1-3.1,4.4-6.9,5.3c-3.8,0.8-10.2,0.4-10.7-1.7c-0.4-2.1,5.2-5,9.1-5.8
							C47.6,3.5,51.9,4.6,52.3,6.7z"/>
						<path class="st40" d="M52.3,6.7c0.4,2.1-3.1,4.4-6.9,5.2c-3.8,0.8-10.2,0.4-10.6-1.7c-0.4-2.1,5.2-5,9-5.8
							C47.6,3.5,51.8,4.6,52.3,6.7z"/>
						<path class="st41" d="M52.3,6.7c0.4,2.1-3.1,4.4-6.9,5.2c-3.8,0.8-10.2,0.4-10.6-1.7c-0.4-2.1,5.2-5,9-5.8
							C47.6,3.6,51.8,4.6,52.3,6.7z"/>
						<path class="st42" d="M52.2,6.7c0.4,2.1-3.1,4.4-6.9,5.2c-3.8,0.8-10.1,0.4-10.6-1.7c-0.4-2.1,5.2-5,9-5.8
							C47.6,3.6,51.8,4.6,52.2,6.7z"/>
						<path class="st43" d="M52.2,6.7c0.4,2.1-3.1,4.4-6.8,5.2c-3.8,0.8-10.1,0.4-10.5-1.7c-0.4-2.1,5.2-5,9-5.8
							C47.6,3.6,51.8,4.6,52.2,6.7z"/>
						<path class="st44" d="M52.2,6.7c0.4,2.1-3.1,4.4-6.8,5.2c-3.7,0.8-10.1,0.4-10.5-1.7c-0.4-2.1,5.2-5,8.9-5.8
							C47.5,3.6,51.7,4.6,52.2,6.7z"/>
						<path class="st45" d="M52.2,6.7c0.4,2.1-3,4.4-6.8,5.1c-3.7,0.8-10,0.4-10.5-1.7c-0.4-2.1,5.2-5,8.9-5.7
							C47.5,3.6,51.7,4.6,52.2,6.7z"/>
						<path class="st46" d="M52.1,6.7c0.4,2-3,4.3-6.8,5.1c-3.7,0.8-10,0.4-10.4-1.7c-0.4-2,5.2-4.9,8.9-5.7
							C47.5,3.6,51.7,4.7,52.1,6.7z"/>
						<path class="st47" d="M52.1,6.7c0.4,2-3,4.3-6.7,5.1c-3.7,0.8-10,0.4-10.4-1.7c-0.4-2,5.1-4.9,8.9-5.7
							C47.5,3.6,51.7,4.7,52.1,6.7z"/>
						<path class="st48" d="M52.1,6.7c0.4,2-3,4.3-6.7,5.1c-3.7,0.8-10,0.4-10.4-1.7c-0.4-2,5.1-4.9,8.8-5.7
							C47.5,3.7,51.6,4.7,52.1,6.7z"/>
						<path class="st49" d="M52,6.7c0.4,2-3,4.3-6.7,5.1c-3.7,0.8-9.9,0.4-10.4-1.7c-0.4-2,5.1-4.9,8.8-5.7
							C47.5,3.7,51.6,4.7,52,6.7z"/>
						<path class="st50" d="M52,6.7c0.4,2-3,4.3-6.7,5.1c-3.7,0.8-9.9,0.4-10.3-1.6c-0.4-2,5.1-4.9,8.8-5.7
							C47.5,3.7,51.6,4.7,52,6.7z"/>
						<path class="st51" d="M52,6.7c0.4,2-3,4.3-6.6,5c-3.7,0.8-9.9,0.4-10.3-1.6c-0.4-2,5.1-4.9,8.8-5.6C47.5,3.7,51.6,4.7,52,6.7z
							"/>
						<path class="st52" d="M52,6.7c0.4,2-3,4.2-6.6,5c-3.6,0.8-9.8,0.4-10.3-1.6c-0.4-2,5.1-4.8,8.7-5.6C47.5,3.7,51.5,4.7,52,6.7z
							"/>
						<path class="st53" d="M51.9,6.7c0.4,2-3,4.2-6.6,5c-3.6,0.8-9.8,0.4-10.2-1.6c-0.4-2,5.1-4.8,8.7-5.6
							C47.5,3.7,51.5,4.7,51.9,6.7z"/>
						<path class="st54" d="M51.9,6.7c0.4,2-2.9,4.2-6.6,5c-3.6,0.8-9.8,0.4-10.2-1.6c-0.4-2,5.1-4.8,8.7-5.6
							C47.4,3.8,51.5,4.7,51.9,6.7z"/>
						<path class="st55" d="M51.9,6.7c0.4,2-2.9,4.2-6.5,5c-3.6,0.8-9.8,0.4-10.2-1.6c-0.4-2,5.1-4.8,8.7-5.6
							C47.4,3.8,51.5,4.8,51.9,6.7z"/>
						<path class="st56" d="M51.9,6.7c0.4,2-2.9,4.2-6.5,4.9c-3.6,0.8-9.7,0.4-10.2-1.6c-0.4-2,5.1-4.8,8.6-5.5
							C47.4,3.8,51.4,4.8,51.9,6.7z"/>
						<path class="st57" d="M51.8,6.8c0.4,2-2.9,4.2-6.5,4.9c-3.6,0.8-9.7,0.4-10.1-1.6c-0.4-2,5-4.8,8.6-5.5
							C47.4,3.8,51.4,4.8,51.8,6.8z"/>
						<path class="st58" d="M51.8,6.8c0.4,2-2.9,4.2-6.5,4.9c-3.6,0.8-9.7,0.4-10.1-1.6c-0.4-2,5-4.8,8.6-5.5
							C47.4,3.8,51.4,4.8,51.8,6.8z"/>
						<path class="st59" d="M51.8,6.8c0.4,1.9-2.9,4.1-6.4,4.9c-3.6,0.8-9.7,0.4-10.1-1.6c-0.4-2,5-4.7,8.6-5.5
							C47.4,3.8,51.4,4.8,51.8,6.8z"/>
						<path class="st60" d="M51.7,6.8c0.4,1.9-2.9,4.1-6.4,4.9c-3.5,0.7-9.6,0.4-10-1.6c-0.4-1.9,5-4.7,8.5-5.5
							C47.4,3.9,51.3,4.8,51.7,6.8z"/>
						<path class="st61" d="M51.7,6.8c0.4,1.9-2.9,4.1-6.4,4.9c-3.5,0.7-9.6,0.4-10-1.5c-0.4-1.9,5-4.7,8.5-5.5
							C47.4,3.9,51.3,4.8,51.7,6.8z"/>
						<path class="st62" d="M51.7,6.8c0.4,1.9-2.9,4.1-6.4,4.8c-3.5,0.7-9.6,0.4-10-1.5c-0.4-1.9,5-4.7,8.5-5.4
							C47.4,3.9,51.3,4.8,51.7,6.8z"/>
						<path class="st63" d="M51.7,6.8c0.4,1.9-2.8,4.1-6.3,4.8c-3.5,0.7-9.5,0.4-9.9-1.5c-0.4-1.9,5-4.7,8.5-5.4
							C47.3,3.9,51.3,4.9,51.7,6.8z"/>
						<path class="st64" d="M51.6,6.8c0.4,1.9-2.8,4.1-6.3,4.8c-3.5,0.7-9.5,0.4-9.9-1.5c-0.4-1.9,5-4.7,8.4-5.4
							C47.3,3.9,51.2,4.9,51.6,6.8z"/>
						<path class="st65" d="M51.6,6.8c0.4,1.9-2.8,4-6.3,4.8c-3.5,0.7-9.5,0.4-9.9-1.5c-0.4-1.9,5-4.7,8.4-5.4
							C47.3,3.9,51.2,4.9,51.6,6.8z"/>
						<path class="st66" d="M51.6,6.8c0.4,1.9-2.8,4-6.3,4.8c-3.5,0.7-9.5,0.4-9.9-1.5c-0.4-1.9,4.9-4.6,8.4-5.4
							C47.3,4,51.2,4.9,51.6,6.8z"/>
						<path class="st67" d="M51.6,6.8c0.4,1.9-2.8,4-6.2,4.7c-3.4,0.7-9.4,0.4-9.8-1.5c-0.4-1.9,4.9-4.6,8.4-5.4
							C47.3,4,51.2,4.9,51.6,6.8z"/>
						<path class="st68" d="M51.5,6.8c0.4,1.9-2.8,4-6.2,4.7c-3.4,0.7-9.4,0.4-9.8-1.5c-0.4-1.9,4.9-4.6,8.4-5.3
							C47.3,4,51.1,4.9,51.5,6.8z"/>
						<path class="st69" d="M51.5,6.8c0.4,1.9-2.8,4-6.2,4.7c-3.4,0.7-9.4,0.4-9.8-1.5c-0.4-1.9,4.9-4.6,8.3-5.3
							C47.3,4,51.1,4.9,51.5,6.8z"/>
						<path class="st70" d="M51.5,6.8c0.4,1.9-2.8,4-6.2,4.7c-3.4,0.7-9.3,0.4-9.7-1.5c-0.4-1.9,4.9-4.6,8.3-5.3
							C47.3,4,51.1,4.9,51.5,6.8z"/>
						<path class="st71" d="M51.5,6.8c0.4,1.9-2.8,4-6.2,4.7c-3.4,0.7-9.3,0.4-9.7-1.5c-0.4-1.9,4.9-4.6,8.3-5.3
							C47.3,4,51.1,5,51.5,6.8z"/>
						<path class="st71" d="M51.4,6.8c0.4,1.9-2.8,3.9-6.1,4.7c-3.4,0.7-9.3,0.4-9.7-1.5c-0.4-1.9,4.9-4.6,8.3-5.3
							C47.3,4,51,5,51.4,6.8z"/>
						<path class="st72" d="M51.4,6.8c0.4,1.8-2.7,3.9-6.1,4.6c-3.4,0.7-9.3,0.4-9.6-1.4c-0.4-1.8,4.9-4.5,8.2-5.2
							C47.2,4.1,51,5,51.4,6.8z"/>
						<path class="st73" d="M51.4,6.8c0.4,1.8-2.7,3.9-6.1,4.6c-3.4,0.7-9.2,0.4-9.6-1.4c-0.4-1.8,4.9-4.5,8.2-5.2
							C47.2,4.1,51,5,51.4,6.8z"/>
						<path class="st74" d="M51.3,6.8c0.4,1.8-2.7,3.9-6.1,4.6c-3.3,0.7-9.2,0.4-9.6-1.4c-0.4-1.8,4.8-4.5,8.2-5.2
							C47.2,4.1,51,5,51.3,6.8z"/>
						<path class="st75" d="M51.3,6.8c0.4,1.8-2.7,3.9-6,4.6c-3.3,0.7-9.2,0.4-9.6-1.4c-0.4-1.8,4.8-4.5,8.2-5.2
							C47.2,4.1,50.9,5,51.3,6.8z"/>
						<path class="st76" d="M51.3,6.9c0.4,1.8-2.7,3.9-6,4.6c-3.3,0.7-9.1,0.4-9.5-1.4c-0.4-1.8,4.8-4.5,8.1-5.2
							C47.2,4.1,50.9,5,51.3,6.9z"/>
						<path class="st77" d="M51.3,6.9c0.4,1.8-2.7,3.8-6,4.5c-3.3,0.7-9.1,0.4-9.5-1.4c-0.4-1.8,4.8-4.5,8.1-5.2
							C47.2,4.1,50.9,5,51.3,6.9z"/>
						<path class="st78" d="M51.2,6.9c0.4,1.8-2.7,3.8-6,4.5c-3.3,0.7-9.1,0.4-9.5-1.4c-0.4-1.8,4.8-4.4,8.1-5.1
							C47.2,4.2,50.9,5.1,51.2,6.9z"/>
						<path class="st79" d="M51.2,6.9c0.4,1.8-2.7,3.8-5.9,4.5c-3.3,0.7-9.1,0.4-9.4-1.4c-0.4-1.8,4.8-4.4,8.1-5.1
							C47.2,4.2,50.8,5.1,51.2,6.9z"/>
						<path class="st80" d="M51.2,6.9c0.4,1.8-2.7,3.8-5.9,4.5c-3.3,0.7-9,0.4-9.4-1.4c-0.4-1.8,4.8-4.4,8-5.1
							C47.2,4.2,50.8,5.1,51.2,6.9z"/>
						<path class="st81" d="M51.2,6.9c0.4,1.8-2.6,3.8-5.9,4.5c-3.2,0.7-9,0.4-9.4-1.4c-0.4-1.8,4.8-4.4,8-5.1
							C47.1,4.2,50.8,5.1,51.2,6.9z"/>
						<path class="st82" d="M51.1,6.9c0.4,1.8-2.6,3.8-5.9,4.5c-3.2,0.7-9,0.4-9.4-1.4c-0.4-1.8,4.8-4.4,8-5.1
							C47.1,4.2,50.8,5.1,51.1,6.9z"/>
						<path class="st83" d="M51.1,6.9c0.4,1.8-2.6,3.8-5.8,4.4C42,12,36.3,11.7,35.9,10c-0.4-1.8,4.8-4.4,8-5.1
							C47.1,4.2,50.7,5.1,51.1,6.9z"/>
						<path class="st84" d="M51.1,6.9c0.4,1.8-2.6,3.7-5.8,4.4C42.1,12,36.3,11.7,36,10c-0.4-1.8,4.7-4.4,7.9-5
							C47.1,4.3,50.7,5.1,51.1,6.9z"/>
						<path class="st84" d="M51.1,6.9c0.4,1.8-2.6,3.7-5.8,4.4c-3.2,0.7-8.9,0.4-9.2-1.3c-0.4-1.8,4.7-4.3,7.9-5
							C47.1,4.3,50.7,5.1,51.1,6.9z"/>
						<path class="st85" d="M51,6.9c0.4,1.7-2.6,3.7-5.8,4.4c-3.2,0.7-8.8,0.4-9.2-1.4c-0.4-1.7,4.6-4.3,7.8-5
							C47.1,4.3,50.7,5.2,51,6.9z"/>
						<path class="st86" d="M51,6.9c0.4,1.7-2.6,3.7-5.8,4.4c-3.2,0.7-8.7,0.4-9.1-1.4c-0.4-1.7,4.6-4.3,7.8-5
							C47.1,4.3,50.6,5.2,51,6.9z"/>
						<path class="st87" d="M51,6.9c0.4,1.7-2.6,3.7-5.7,4.4c-3.2,0.7-8.7,0.4-9-1.4c-0.4-1.7,4.6-4.3,7.7-4.9
							C47.1,4.3,50.6,5.2,51,6.9z"/>
						<path class="st88" d="M51,6.9c0.4,1.7-2.6,3.7-5.7,4.3c-3.1,0.7-8.6,0.4-9-1.4c-0.4-1.7,4.5-4.2,7.7-4.9
							C47.1,4.3,50.6,5.2,51,6.9z"/>
						<path class="st89" d="M50.9,6.9c0.4,1.7-2.6,3.7-5.7,4.3c-3.1,0.7-8.6,0.4-8.9-1.4C36,8.1,40.8,5.7,43.9,5
							C47.1,4.3,50.6,5.2,50.9,6.9z"/>
						<path class="st90" d="M50.9,6.9c0.4,1.7-2.5,3.6-5.7,4.3c-3.1,0.7-8.5,0.3-8.9-1.4C36,8.1,40.8,5.7,43.9,5
							C47,4.3,50.6,5.2,50.9,6.9z"/>
						<path class="st91" d="M50.9,6.9c0.4,1.7-2.5,3.6-5.7,4.3c-3.1,0.7-8.4,0.3-8.8-1.4c-0.4-1.7,4.4-4.2,7.5-4.8
							C47,4.4,50.5,5.2,50.9,6.9z"/>
						<path class="st92" d="M50.9,6.9c0.4,1.7-2.5,3.6-5.6,4.3c-3.1,0.7-8.4,0.3-8.7-1.4c-0.4-1.7,4.3-4.1,7.4-4.8
							C47,4.4,50.5,5.2,50.9,6.9z"/>
						<path class="st93" d="M50.8,6.9c0.4,1.7-2.5,3.6-5.6,4.3c-3.1,0.7-8.3,0.3-8.7-1.4c-0.4-1.7,4.3-4.1,7.4-4.8
							C47,4.4,50.5,5.2,50.8,6.9z"/>
						<path class="st94" d="M50.8,6.9c0.4,1.7-2.5,3.6-5.6,4.2c-3.1,0.7-8.2,0.3-8.6-1.4c-0.4-1.7,4.2-4.1,7.3-4.7
							C47,4.4,50.5,5.2,50.8,6.9z"/>
						<path class="st95" d="M50.8,6.9c0.4,1.7-2.5,3.6-5.6,4.2c-3.1,0.6-8.2,0.3-8.5-1.4c-0.4-1.7,4.2-4.1,7.2-4.7
							C47,4.4,50.4,5.3,50.8,6.9z"/>
						<path class="st96" d="M50.8,6.9c0.4,1.7-2.5,3.6-5.6,4.2c-3.1,0.6-8.1,0.3-8.5-1.4c-0.4-1.7,4.1-4,7.2-4.7
							C47,4.4,50.4,5.3,50.8,6.9z"/>
						<path class="st97" d="M50.8,7c0.4,1.7-2.5,3.6-5.5,4.2c-3.1,0.6-8.1,0.3-8.4-1.4c-0.4-1.7,4.1-4,7.1-4.7
							C47,4.4,50.4,5.3,50.8,7z"/>
						<path class="st98" d="M50.7,7c0.4,1.7-2.5,3.5-5.5,4.2c-3,0.6-8,0.3-8.4-1.4c-0.4-1.7,4-4,7.1-4.6C47,4.5,50.4,5.3,50.7,7z"/>
						<path class="st99" d="M50.7,7c0.4,1.7-2.5,3.5-5.5,4.2c-3,0.6-7.9,0.2-8.3-1.4c-0.4-1.7,4-4,7-4.6C47,4.5,50.4,5.3,50.7,7z"/>
						<path class="st100" d="M50.7,7c0.4,1.7-2.5,3.5-5.5,4.2c-3,0.6-7.9,0.2-8.2-1.4c-0.4-1.7,3.9-3.9,7-4.6
							C47,4.5,50.3,5.3,50.7,7z"/>
						<path class="st101" d="M50.7,7c0.3,1.7-2.5,3.5-5.5,4.1c-3,0.6-7.8,0.2-8.2-1.4c-0.3-1.7,3.9-3.9,6.9-4.5
							C46.9,4.5,50.3,5.3,50.7,7z"/>
						<path class="st102" d="M50.6,7c0.3,1.6-2.4,3.5-5.4,4.1c-3,0.6-7.8,0.2-8.1-1.4c-0.3-1.6,3.8-3.9,6.8-4.5
							C46.9,4.5,50.3,5.3,50.6,7z"/>
						<path class="st103" d="M50.6,7c0.3,1.6-2.4,3.5-5.4,4.1c-3,0.6-7.7,0.2-8-1.4c-0.3-1.6,3.8-3.9,6.8-4.5
							C46.9,4.5,50.3,5.3,50.6,7z"/>
						<path class="st104" d="M50.6,7c0.3,1.6-2.4,3.5-5.4,4.1c-3,0.6-7.6,0.2-8-1.5C36.9,8,41,5.8,43.9,5.2
							C46.9,4.5,50.2,5.3,50.6,7z"/>
						<path class="st105" d="M50.6,7c0.3,1.6-2.4,3.5-5.4,4.1c-3,0.6-7.6,0.2-7.9-1.5C36.9,8,41,5.8,43.9,5.2
							C46.9,4.5,50.2,5.4,50.6,7z"/>
						<path class="st106" d="M50.5,7c0.3,1.6-2.4,3.4-5.4,4.1c-3,0.6-7.5,0.2-7.9-1.5C37,8,41,5.8,43.9,5.2
							C46.9,4.6,50.2,5.4,50.5,7z"/>
						<path class="st107" d="M50.5,7c0.3,1.6-2.4,3.4-5.3,4.1c-2.9,0.6-7.4,0.2-7.8-1.5C37,8,41,5.8,43.9,5.2
							C46.9,4.6,50.2,5.4,50.5,7z"/>
						<path class="st108" d="M50.5,7c0.3,1.6-2.4,3.4-5.3,4c-2.9,0.6-7.4,0.1-7.7-1.5C37.1,8,41,5.8,43.9,5.2
							C46.9,4.6,50.2,5.4,50.5,7z"/>
						<path class="st109" d="M50.5,7c0.3,1.6-2.4,3.4-5.3,4c-2.9,0.6-7.3,0.1-7.7-1.5c-0.3-1.6,3.5-3.7,6.4-4.3
							C46.9,4.6,50.1,5.4,50.5,7z"/>
						<path class="st110" d="M50.4,7c0.3,1.6-2.4,3.4-5.3,4c-2.9,0.6-7.3,0.1-7.6-1.5c-0.3-1.6,3.5-3.7,6.4-4.3
							C46.9,4.6,50.1,5.4,50.4,7z"/>
						<path class="st111" d="M50.4,7c0.3,1.6-2.4,3.4-5.3,4c-2.9,0.6-7.2,0.1-7.5-1.5c-0.3-1.6,3.4-3.7,6.3-4.3
							C46.8,4.6,50.1,5.4,50.4,7z"/>
						<path class="st112" d="M50.4,7c0.3,1.6-2.4,3.4-5.2,4c-2.9,0.6-7.1,0.1-7.5-1.5c-0.3-1.6,3.4-3.6,6.3-4.3
							C46.8,4.6,50.1,5.4,50.4,7z"/>
						<path class="st113" d="M50.4,7c0.3,1.6-2.3,3.4-5.2,4c-2.9,0.6-7.1,0.1-7.4-1.5c-0.3-1.6,3.3-3.6,6.2-4.2
							C46.8,4.7,50,5.4,50.4,7z"/>
						<path class="st114" d="M50.4,7c0.3,1.6-2.3,3.3-5.2,3.9c-2.9,0.6-7,0.1-7.4-1.5c-0.3-1.6,3.3-3.6,6.1-4.2
							C46.8,4.7,50,5.4,50.4,7z"/>
						<path class="st115" d="M50.3,7c0.3,1.6-2.3,3.3-5.2,3.9c-2.9,0.6-7,0.1-7.3-1.5c-0.3-1.6,3.2-3.6,6.1-4.2
							C46.8,4.7,50,5.5,50.3,7z"/>
						<path class="st116" d="M50.3,7c0.3,1.6-2.3,3.3-5.2,3.9c-2.8,0.6-6.9,0-7.2-1.5c-0.3-1.6,3.2-3.5,6-4.1
							C46.8,4.7,50,5.5,50.3,7z"/>
						<path class="st117" d="M50.3,7c0.3,1.6-2.3,3.3-5.1,3.9c-2.8,0.6-6.8,0-7.2-1.5c-0.3-1.6,3.1-3.5,6-4.1
							C46.8,4.7,50,5.5,50.3,7z"/>
						<path class="st118" d="M50.3,7c0.3,1.6-2.3,3.3-5.1,3.9c-2.8,0.6-6.8,0-7.1-1.5c-0.3-1.6,3.1-3.5,5.9-4.1
							C46.8,4.7,49.9,5.5,50.3,7z"/>
						<path class="st119" d="M50.2,7c0.3,1.5-2.3,3.3-5.1,3.9c-2.8,0.6-6.7,0-7-1.5c-0.3-1.5,3-3.5,5.9-4.1
							C46.8,4.7,49.9,5.5,50.2,7z"/>
						<path class="st120" d="M50.2,7c0.3,1.5-2.3,3.3-5.1,3.9c-2.8,0.6-6.6,0-7-1.5c-0.3-1.5,3-3.4,5.8-4C46.8,4.7,49.9,5.5,50.2,7z
							"/>
						<path class="st121" d="M50.2,7.1c0.3,1.5-2.3,3.3-5.1,3.8c-2.8,0.6-6.6,0-6.9-1.5c-0.3-1.5,2.9-3.4,5.7-4
							C46.7,4.8,49.9,5.5,50.2,7.1z"/>
						<path class="st122" d="M50.2,7.1c0.3,1.5-2.3,3.2-5,3.8c-2.8,0.6-6.5,0-6.8-1.5c-0.3-1.5,2.9-3.4,5.7-4
							C46.7,4.8,49.8,5.5,50.2,7.1z"/>
						<path class="st123" d="M50.1,7.1c0.3,1.5-2.3,3.2-5,3.8c-2.8,0.6-6.5,0-6.8-1.5C38,7.8,41.2,6,44,5.4
							C46.7,4.8,49.8,5.5,50.1,7.1z"/>
						<path class="st124" d="M50.1,7.1c0.3,1.5-2.2,3.2-5,3.8c-2.8,0.6-6.4,0-6.7-1.6C38.1,7.8,41.2,6,44,5.4
							C46.7,4.8,49.8,5.6,50.1,7.1z"/>
						<path class="st125" d="M50.1,7.1c0.3,1.5-2.2,3.2-5,3.8c-2.7,0.6-6.3-0.1-6.7-1.6C38.1,7.8,41.2,6,44,5.4
							C46.7,4.8,49.8,5.6,50.1,7.1z"/>
						<path class="st126" d="M50.1,7.1c0.3,1.5-2.2,3.2-5,3.8c-2.7,0.6-6.3-0.1-6.6-1.6C38.2,7.8,41.2,6,44,5.4
							C46.7,4.8,49.8,5.6,50.1,7.1z"/>
						<path class="st127" d="M50.1,7.1c0.3,1.5-2.2,3.2-4.9,3.8c-2.7,0.6-6.2-0.1-6.5-1.6C38.3,7.8,41.2,6,44,5.4
							C46.7,4.8,49.7,5.6,50.1,7.1z"/>
						<path class="st128" d="M50,7.1c0.3,1.5-2.2,3.2-4.9,3.7c-2.7,0.6-6.2-0.1-6.5-1.6C38.3,7.8,41.3,6,44,5.4
							C46.7,4.8,49.7,5.6,50,7.1z"/>
						<path class="st129" d="M50,7.1c0.3,1.5-2.2,3.2-4.9,3.7c-2.7,0.6-6.1-0.1-6.4-1.6C38.4,7.7,41.3,6,44,5.4
							C46.7,4.9,49.7,5.6,50,7.1z"/>
						<path class="st130" d="M50,7.1c0.3,1.5-2.2,3.1-4.9,3.7c-2.7,0.6-6-0.1-6.3-1.6C38.4,7.7,41.3,6,44,5.4
							C46.7,4.9,49.7,5.6,50,7.1z"/>
						<path class="st131" d="M50,7.1c0.3,1.5-2.2,3.1-4.9,3.7c-2.7,0.6-6-0.1-6.3-1.6C38.5,7.7,41.3,6,44,5.5
							C46.6,4.9,49.6,5.6,50,7.1z"/>
						<path class="st132" d="M49.9,7.1c0.3,1.5-2.2,3.1-4.8,3.7c-2.7,0.6-5.9-0.1-6.2-1.6C38.6,7.7,41.3,6,44,5.5
							C46.6,4.9,49.6,5.6,49.9,7.1z"/>
						<path class="st133" d="M49.9,7.1c0.3,1.5-2.2,3.1-4.8,3.7c-2.7,0.6-5.9-0.1-6.2-1.6c-0.3-1.5,2.4-3.1,5-3.7
							C46.6,4.9,49.6,5.6,49.9,7.1z"/>
						<path class="st134" d="M49.9,7.1c0.3,1.5-2.2,3.1-4.8,3.6c-2.6,0.6-5.8-0.2-6.1-1.6c-0.3-1.5,2.3-3.1,5-3.7
							C46.6,4.9,49.6,5.7,49.9,7.1z"/>
						<path class="st134" d="M49.9,7.1c0.3,1.4-2.1,3.1-4.8,3.6c-2.6,0.6-5.7-0.2-6-1.6c-0.3-1.4,2.3-3.1,4.9-3.6
							C46.6,4.9,49.6,5.7,49.9,7.1z"/>
						<path class="st135" d="M49.8,7.1c0.3,1.4-2.1,3.1-4.8,3.6c-2.6,0.6-5.7-0.2-6-1.6c-0.3-1.4,2.3-3.1,4.9-3.6
							C46.6,5,49.5,5.7,49.8,7.1z"/>
						<path class="st136" d="M49.8,7.1c0.3,1.4-2.1,3.1-4.7,3.6c-2.6,0.6-5.7-0.2-6-1.6c-0.3-1.4,2.3-3.1,4.9-3.6
							C46.6,5,49.5,5.7,49.8,7.1z"/>
						<path class="st137" d="M49.8,7.1c0.3,1.4-2.1,3-4.7,3.6c-2.6,0.6-5.6-0.2-5.9-1.6c-0.3-1.4,2.2-3,4.8-3.6
							C46.6,5,49.5,5.7,49.8,7.1z"/>
						<path class="st138" d="M49.8,7.1c0.3,1.4-2.1,3-4.7,3.6c-2.6,0.5-5.6-0.2-5.9-1.6c-0.3-1.4,2.2-3,4.8-3.6
							C46.6,5,49.5,5.7,49.8,7.1z"/>
						<path class="st139" d="M49.8,7.1c0.3,1.4-2.1,3-4.7,3.6c-2.6,0.5-5.6-0.2-5.9-1.6c-0.3-1.4,2.2-3,4.8-3.6
							C46.6,5,49.5,5.7,49.8,7.1z"/>
						<path class="st140" d="M49.7,7.1c0.3,1.4-2.1,3-4.7,3.6c-2.6,0.5-5.5-0.2-5.8-1.6c-0.3-1.4,2.2-3,4.8-3.6
							C46.6,5,49.4,5.7,49.7,7.1z"/>
						<path class="st141" d="M49.7,7.1c0.3,1.4-2.1,3-4.7,3.5c-2.6,0.5-5.5-0.2-5.8-1.6c-0.3-1.4,2.2-3,4.7-3.5
							C46.6,5,49.4,5.7,49.7,7.1z"/>
						<path class="st142" d="M49.7,7.1c0.3,1.4-2.1,3-4.6,3.5c-2.6,0.5-5.5-0.2-5.8-1.6c-0.3-1.4,2.1-3,4.7-3.5
							C46.6,5,49.4,5.7,49.7,7.1z"/>
						<path class="st143" d="M49.7,7.1c0.3,1.4-2.1,3-4.6,3.5c-2.6,0.5-5.5-0.2-5.7-1.6c-0.3-1.4,2.1-3,4.7-3.5
							C46.5,5,49.4,5.7,49.7,7.1z"/>
						<path class="st144" d="M49.7,7.1c0.3,1.4-2.1,3-4.6,3.5c-2.5,0.5-5.4-0.2-5.7-1.6c-0.3-1.4,2.1-3,4.6-3.5
							C46.5,5,49.4,5.7,49.7,7.1z"/>
						<path class="st145" d="M49.6,7.1c0.3,1.4-2,3-4.6,3.5c-2.5,0.5-5.4-0.2-5.7-1.6c-0.3-1.4,2.1-3,4.6-3.5
							C46.5,5.1,49.4,5.8,49.6,7.1z"/>
						<path class="st146" d="M49.6,7.2c0.3,1.4-2,2.9-4.6,3.5c-2.5,0.5-5.4-0.2-5.7-1.5c-0.3-1.4,2.1-2.9,4.6-3.5
							C46.5,5.1,49.3,5.8,49.6,7.2z"/>
						<path class="st147" d="M49.6,7.2c0.3,1.4-2,2.9-4.6,3.5c-2.5,0.5-5.3-0.2-5.6-1.5c-0.3-1.4,2-2.9,4.6-3.5
							C46.5,5.1,49.3,5.8,49.6,7.2z"/>
						<path class="st148" d="M49.6,7.2c0.3,1.4-2,2.9-4.5,3.5c-2.5,0.5-5.3-0.2-5.6-1.5c-0.3-1.4,2-2.9,4.5-3.5
							C46.5,5.1,49.3,5.8,49.6,7.2z"/>
						<path class="st149" d="M49.6,7.2c0.3,1.4-2,2.9-4.5,3.4c-2.5,0.5-5.3-0.2-5.6-1.5c-0.3-1.4,2-2.9,4.5-3.4
							C46.5,5.1,49.3,5.8,49.6,7.2z"/>
						<path class="st150" d="M49.5,7.2c0.3,1.4-2,2.9-4.5,3.4c-2.5,0.5-5.2-0.2-5.5-1.5c-0.3-1.4,2-2.9,4.5-3.4
							C46.5,5.1,49.3,5.8,49.5,7.2z"/>
						<path class="st151" d="M49.5,7.2c0.3,1.4-2,2.9-4.5,3.4c-2.5,0.5-5.2-0.2-5.5-1.5c-0.3-1.4,2-2.9,4.5-3.4
							C46.5,5.1,49.2,5.8,49.5,7.2z"/>
						<path class="st151" d="M49.5,7.2c0.3,1.4-2,2.9-4.5,3.4c-2.5,0.5-5.2-0.2-5.5-1.5c-0.3-1.4,1.9-2.9,4.4-3.4
							C46.5,5.1,49.2,5.8,49.5,7.2z"/>
						<path class="st152" d="M49.5,7.2c0.3,1.4-2,2.9-4.4,3.4c-2.5,0.5-5.1-0.2-5.4-1.5c-0.3-1.4,1.9-2.9,4.4-3.4
							C46.5,5.1,49.2,5.8,49.5,7.2z"/>
						<path class="st153" d="M49.5,7.2c0.3,1.3-2,2.9-4.4,3.4c-2.5,0.5-5.1-0.2-5.4-1.5c-0.3-1.3,1.9-2.9,4.4-3.4
							C46.5,5.2,49.2,5.8,49.5,7.2z"/>
						<path class="st154" d="M49.4,7.2c0.3,1.3-2,2.9-4.4,3.4c-2.4,0.5-5.1-0.2-5.4-1.5c-0.3-1.3,1.9-2.9,4.3-3.4
							C46.5,5.2,49.2,5.8,49.4,7.2z"/>
						<path class="st155" d="M49.4,7.2c0.3,1.3-1.9,2.8-4.4,3.4c-2.4,0.5-5.1-0.2-5.3-1.5c-0.3-1.3,1.9-2.8,4.3-3.4
							C46.5,5.2,49.1,5.8,49.4,7.2z"/>
						<path class="st156" d="M49.4,7.2c0.3,1.3-1.9,2.8-4.4,3.3c-2.4,0.5-5-0.2-5.3-1.5c-0.3-1.3,1.9-2.8,4.3-3.3
							C46.4,5.2,49.1,5.9,49.4,7.2z"/>
						<path class="st157" d="M49.4,7.2c0.3,1.3-1.9,2.8-4.4,3.3c-2.4,0.5-5-0.2-5.3-1.5c-0.3-1.3,1.8-2.8,4.3-3.3
							C46.4,5.2,49.1,5.9,49.4,7.2z"/>
						<path class="st158" d="M49.4,7.2c0.3,1.3-1.9,2.8-4.3,3.3c-2.4,0.5-5-0.2-5.2-1.5c-0.3-1.3,1.8-2.8,4.2-3.3
							C46.4,5.2,49.1,5.9,49.4,7.2z"/>
						<path class="st159" d="M49.3,7.2c0.3,1.3-1.9,2.8-4.3,3.3c-2.4,0.5-4.9-0.2-5.2-1.5c-0.3-1.3,1.8-2.8,4.2-3.3
							C46.4,5.2,49.1,5.9,49.3,7.2z"/>
						<path class="st160" d="M49.3,7.2c0.3,1.3-1.9,2.8-4.3,3.3c-2.4,0.5-4.9-0.1-5.2-1.5c-0.3-1.3,1.8-2.8,4.2-3.3
							C46.4,5.2,49.1,5.9,49.3,7.2z"/>
						<path class="st161" d="M49.3,7.2c0.3,1.3-1.9,2.8-4.3,3.3c-2.4,0.5-4.9-0.1-5.1-1.5c-0.3-1.3,1.8-2.8,4.1-3.3
							C46.4,5.2,49,5.9,49.3,7.2z"/>
						<path class="st162" d="M49.3,7.2c0.3,1.3-1.9,2.8-4.3,3.3c-2.4,0.5-4.8-0.1-5.1-1.5c-0.3-1.3,1.7-2.8,4.1-3.3
							C46.4,5.3,49,5.9,49.3,7.2z"/>
						<path class="st163" d="M49.3,7.2c0.3,1.3-1.9,2.8-4.2,3.3c-2.4,0.5-4.8-0.1-5.1-1.4c-0.3-1.3,1.7-2.8,4.1-3.3
							C46.4,5.3,49,5.9,49.3,7.2z"/>
						<path class="st164" d="M49.2,7.2c0.3,1.3-1.9,2.7-4.2,3.2C42.7,11,40.2,10.3,40,9c-0.3-1.3,1.7-2.7,4.1-3.2
							C46.4,5.3,49,5.9,49.2,7.2z"/>
						<path class="st165" d="M49.2,7.2c0.3,1.3-1.9,2.7-4.2,3.2c-2.3,0.5-4.7-0.1-5-1.4c-0.3-1.3,1.7-2.7,4-3.2
							C46.4,5.3,49,5.9,49.2,7.2z"/>
						<path class="st166" d="M49.2,7.2c0.3,1.3-1.9,2.7-4.2,3.2c-2.3,0.5-4.7-0.1-5-1.4c-0.3-1.3,1.7-2.7,4-3.2
							C46.4,5.3,48.9,5.9,49.2,7.2z"/>
						<path class="st167" d="M49.2,7.2c0.3,1.3-1.8,2.7-4.2,3.2c-2.3,0.5-4.7-0.1-5-1.4c-0.3-1.3,1.6-2.7,4-3.2
							C46.4,5.3,48.9,5.9,49.2,7.2z"/>
						<path class="st168" d="M49.2,7.2c0.3,1.3-1.8,2.7-4.2,3.2c-2.3,0.5-4.7-0.1-4.9-1.4c-0.3-1.3,1.6-2.7,3.9-3.2
							C46.4,5.3,48.9,6,49.2,7.2z"/>
						<path class="st169" d="M49.1,7.2c0.3,1.3-1.8,2.7-4.1,3.2c-2.3,0.5-4.6-0.1-4.9-1.4c-0.3-1.3,1.6-2.7,3.9-3.2
							C46.4,5.3,48.9,6,49.1,7.2z"/>
						<path class="st170" d="M49.1,7.2c0.3,1.3-1.8,2.7-4.1,3.2c-2.3,0.5-4.6-0.1-4.9-1.4c-0.3-1.3,1.6-2.7,3.9-3.2
							C46.3,5.3,48.9,6,49.1,7.2z"/>
						<path class="st171" d="M49.1,7.2c0.3,1.3-1.8,2.7-4.1,3.2c-2.3,0.5-4.6-0.1-4.8-1.4c-0.3-1.3,1.6-2.7,3.9-3.2
							C46.3,5.4,48.8,6,49.1,7.2z"/>
						<path class="st172" d="M49.1,7.2c0.3,1.3-1.8,2.7-4.1,3.1c-2.3,0.5-4.5-0.1-4.8-1.4c-0.3-1.3,1.5-2.7,3.8-3.1
							C46.3,5.4,48.8,6,49.1,7.2z"/>
						<path class="st173" d="M49.1,7.2c0.3,1.3-1.8,2.7-4.1,3.1c-2.3,0.5-4.5-0.1-4.8-1.4C40,7.7,41.8,6.3,44,5.9
							C46.3,5.4,48.8,6,49.1,7.2z"/>
						<path class="st174" d="M49,7.3c0.3,1.2-1.8,2.6-4,3.1c-2.3,0.5-4.5-0.1-4.7-1.4C40,7.7,41.8,6.3,44,5.9
							C46.3,5.4,48.8,6,49,7.3z"/>
						<path class="st175" d="M49,7.3c0.3,1.2-1.8,2.6-4,3.1c-2.3,0.5-4.4-0.1-4.7-1.4c-0.3-1.2,1.5-2.6,3.8-3.1
							C46.3,5.4,48.8,6,49,7.3z"/>
						<path class="st176" d="M49,7.3c0.3,1.2-1.8,2.6-4,3.1c-2.2,0.5-4.4-0.1-4.7-1.4c-0.3-1.2,1.5-2.6,3.7-3.1
							C46.3,5.4,48.7,6,49,7.3z"/>
						<path class="st177" d="M49,7.3c0.3,1.2-1.8,2.6-4,3.1c-2.2,0.5-4.4-0.1-4.6-1.4c-0.3-1.2,1.5-2.6,3.7-3.1
							C46.3,5.4,48.7,6,49,7.3z"/>
						<path class="st178" d="M49,7.3c0.3,1.2-1.7,2.6-4,3.1c-2.2,0.5-4.3-0.1-4.6-1.4c-0.3-1.2,1.4-2.6,3.7-3.1
							C46.3,5.4,48.7,6,49,7.3z"/>
						<path class="st179" d="M49,7.3c0.3,1.2-1.7,2.6-4,3.1c-2.2,0.5-4.3-0.1-4.6-1.4c-0.3-1.2,1.4-2.6,3.6-3.1
							C46.3,5.4,48.7,6,49,7.3z"/>
						<path class="st180" d="M48.9,7.3c0.3,1.2-1.7,2.6-3.9,3c-2.2,0.5-4.3-0.1-4.5-1.4c-0.3-1.2,1.4-2.6,3.6-3
							C46.3,5.5,48.7,6.1,48.9,7.3z"/>
						<path class="st181" d="M48.9,7.3c0.3,1.2-1.7,2.6-3.9,3c-2.2,0.5-4.3-0.1-4.5-1.3c-0.3-1.2,1.4-2.6,3.6-3
							C46.3,5.5,48.7,6.1,48.9,7.3z"/>
						<path class="st182" d="M48.9,7.3c0.3,1.2-1.7,2.6-3.9,3c-2.2,0.5-4.2-0.1-4.5-1.3c-0.3-1.2,1.4-2.6,3.6-3
							C46.3,5.5,48.6,6.1,48.9,7.3z"/>
						<path class="st183" d="M48.9,7.3c0.3,1.2-1.7,2.5-3.9,3c-2.2,0.5-4.2-0.1-4.4-1.3c-0.3-1.2,1.3-2.6,3.5-3
							C46.3,5.5,48.6,6.1,48.9,7.3z"/>
						<path class="st184" d="M48.9,7.3c0.3,1.2-1.7,2.5-3.9,3c-2.2,0.5-4.2-0.1-4.4-1.3c-0.3-1.2,1.3-2.5,3.5-3
							C46.2,5.5,48.6,6.1,48.9,7.3z"/>
						<path class="st184" d="M48.8,7.3c0.3,1.2-1.7,2.5-3.8,3c-2.2,0.5-4.1-0.1-4.4-1.3c-0.3-1.2,1.3-2.5,3.5-3
							C46.2,5.5,48.6,6.1,48.8,7.3z"/>
						<path class="st185" d="M48.8,7.3c0.3,1.2-1.7,2.5-3.8,3c-2.2,0.5-4.1-0.1-4.4-1.3c-0.3-1.2,1.3-2.5,3.5-3
							C46.2,5.5,48.6,6.1,48.8,7.3z"/>
						<path class="st186" d="M48.8,7.3c0.2,1.2-1.7,2.5-3.8,3c-2.2,0.5-4.1-0.1-4.4-1.3c-0.2-1.2,1.3-2.5,3.4-3
							C46.2,5.5,48.5,6.1,48.8,7.3z"/>
						<path class="st187" d="M48.8,7.3c0.2,1.2-1.6,2.5-3.8,3c-2.1,0.5-4.1-0.1-4.3-1.3c-0.2-1.2,1.3-2.5,3.4-3
							C46.2,5.5,48.5,6.1,48.8,7.3z"/>
						<path class="st188" d="M48.7,7.3c0.2,1.2-1.6,2.5-3.8,2.9c-2.1,0.5-4.1-0.1-4.3-1.3c-0.2-1.2,1.3-2.5,3.4-2.9
							C46.2,5.5,48.5,6.1,48.7,7.3z"/>
						<path class="st189" d="M48.7,7.3c0.2,1.2-1.6,2.5-3.8,2.9c-2.1,0.4-4.1-0.1-4.3-1.3C40.4,7.8,42,6.5,44.1,6
							C46.2,5.6,48.5,6.1,48.7,7.3z"/>
						<path class="st190" d="M48.7,7.3c0.2,1.2-1.6,2.5-3.7,2.9c-2.1,0.4-4.1-0.1-4.3-1.3C40.4,7.8,42,6.5,44.1,6
							C46.2,5.6,48.5,6.1,48.7,7.3z"/>
						<path class="st191" d="M48.7,7.3c0.2,1.2-1.6,2.5-3.7,2.9c-2.1,0.4-4-0.1-4.3-1.3C40.4,7.8,42,6.5,44.1,6
							C46.2,5.6,48.4,6.2,48.7,7.3z"/>
						<path class="st192" d="M48.7,7.3c0.2,1.2-1.6,2.4-3.7,2.9c-2.1,0.4-4-0.1-4.3-1.3C40.5,7.8,42,6.5,44.1,6
							C46.2,5.6,48.4,6.2,48.7,7.3z"/>
						<path class="st193" d="M48.6,7.3c0.2,1.1-1.6,2.4-3.7,2.9c-2.1,0.4-4-0.1-4.3-1.3C40.5,7.8,42,6.5,44.1,6
							C46.2,5.6,48.4,6.2,48.6,7.3z"/>
						<path class="st194" d="M48.6,7.3c0.2,1.1-1.6,2.4-3.7,2.9c-2.1,0.4-4-0.1-4.2-1.3c-0.2-1.1,1.3-2.4,3.4-2.9
							C46.2,5.6,48.4,6.2,48.6,7.3z"/>
						<path class="st195" d="M48.6,7.3c0.2,1.1-1.6,2.4-3.6,2.9c-2.1,0.4-4-0.1-4.2-1.3c-0.2-1.1,1.3-2.4,3.4-2.9
							C46.2,5.6,48.4,6.2,48.6,7.3z"/>
						<path class="st196" d="M48.6,7.3c0.2,1.1-1.6,2.4-3.6,2.8c-2.1,0.4-4-0.1-4.2-1.3c-0.2-1.1,1.3-2.4,3.3-2.8
							C46.2,5.6,48.3,6.2,48.6,7.3z"/>
						<path class="st197" d="M48.6,7.3c0.2,1.1-1.5,2.4-3.6,2.8c-2.1,0.4-4-0.1-4.2-1.3c-0.2-1.1,1.3-2.4,3.3-2.8
							C46.2,5.6,48.3,6.2,48.6,7.3z"/>
						<path class="st198" d="M48.5,7.3c0.2,1.1-1.5,2.4-3.6,2.8c-2,0.4-3.9-0.1-4.2-1.3c-0.2-1.1,1.3-2.4,3.3-2.8
							C46.2,5.7,48.3,6.2,48.5,7.3z"/>
						<path class="st199" d="M48.5,7.3c0.2,1.1-1.5,2.4-3.6,2.8c-2,0.4-3.9-0.1-4.2-1.2c-0.2-1.1,1.3-2.4,3.3-2.8
							C46.1,5.7,48.3,6.2,48.5,7.3z"/>
						<path class="st200" d="M48.5,7.3c0.2,1.1-1.5,2.4-3.5,2.8c-2,0.4-3.9-0.1-4.2-1.2c-0.2-1.1,1.3-2.4,3.3-2.8
							C46.1,5.7,48.3,6.2,48.5,7.3z"/>
						<path class="st201" d="M48.5,7.3c0.2,1.1-1.5,2.4-3.5,2.8c-2,0.4-3.9-0.1-4.1-1.2c-0.2-1.1,1.3-2.4,3.3-2.8
							C46.1,5.7,48.2,6.2,48.5,7.3z"/>
						<path class="st202" d="M48.5,7.4c0.2,1.1-1.5,2.3-3.5,2.8c-2,0.4-3.9-0.1-4.1-1.2c-0.2-1.1,1.3-2.3,3.3-2.8
							C46.1,5.7,48.2,6.2,48.5,7.4z"/>
						<path class="st203" d="M48.4,7.4c0.2,1.1-1.5,2.3-3.5,2.8c-2,0.4-3.9-0.1-4.1-1.2c-0.2-1.1,1.3-2.3,3.3-2.8
							C46.1,5.7,48.2,6.3,48.4,7.4z"/>
						<path class="st204" d="M48.4,7.4c0.2,1.1-1.5,2.3-3.5,2.7c-2,0.4-3.9-0.1-4.1-1.2c-0.2-1.1,1.3-2.3,3.3-2.7
							C46.1,5.7,48.2,6.3,48.4,7.4z"/>
						<path class="st205" d="M48.4,7.4c0.2,1.1-1.5,2.3-3.4,2.7c-2,0.4-3.8-0.1-4.1-1.2c-0.2-1.1,1.3-2.3,3.2-2.7
							C46.1,5.7,48.2,6.3,48.4,7.4z"/>
						<path class="st206" d="M48.4,7.4c0.2,1.1-1.4,2.3-3.4,2.7c-2,0.4-3.8-0.1-4.1-1.2c-0.2-1.1,1.3-2.3,3.2-2.7
							C46.1,5.7,48.1,6.3,48.4,7.4z"/>
						<path class="st207" d="M48.4,7.4c0.2,1.1-1.4,2.3-3.4,2.7c-2,0.4-3.8-0.1-4-1.2c-0.2-1.1,1.3-2.3,3.2-2.7
							C46.1,5.8,48.1,6.3,48.4,7.4z"/>
						<path class="st208" d="M48.3,7.4c0.2,1.1-1.4,2.3-3.4,2.7c-2,0.4-3.8-0.1-4-1.2c-0.2-1.1,1.3-2.3,3.2-2.7
							C46.1,5.8,48.1,6.3,48.3,7.4z"/>
						<path class="st209" d="M48.3,7.4c0.2,1.1-1.4,2.3-3.4,2.7c-1.9,0.4-3.8-0.1-4-1.2c-0.2-1.1,1.3-2.3,3.2-2.7
							C46.1,5.8,48.1,6.3,48.3,7.4z"/>
						<path class="st210" d="M48.3,7.4c0.2,1.1-1.4,2.3-3.3,2.7c-1.9,0.4-3.8-0.1-4-1.2c-0.2-1.1,1.3-2.3,3.2-2.7
							C46.1,5.8,48.1,6.3,48.3,7.4z"/>
						<path class="st211" d="M48.3,7.4c0.2,1.1-1.4,2.3-3.3,2.7c-1.9,0.4-3.8-0.1-4-1.2c-0.2-1.1,1.2-2.3,3.2-2.7
							C46.1,5.8,48,6.3,48.3,7.4z"/>
						<path class="st212" d="M48.3,7.4c0.2,1.1-1.4,2.2-3.3,2.6c-1.9,0.4-3.8-0.1-4-1.2c-0.2-1.1,1.2-2.2,3.2-2.6
							C46.1,5.8,48,6.3,48.3,7.4z"/>
						<path class="st213" d="M48.2,7.4c0.2,1.1-1.4,2.2-3.3,2.6c-1.9,0.4-3.7-0.1-4-1.2c-0.2-1.1,1.2-2.2,3.2-2.6
							C46.1,5.8,48,6.3,48.2,7.4z"/>
						<path class="st214" d="M48.2,7.4c0.2,1-1.4,2.2-3.3,2.6C43,10.4,41.2,9.9,41,8.8c-0.2-1,1.2-2.2,3.1-2.6
							C46,5.8,48,6.3,48.2,7.4z"/>
						<path class="st215" d="M48.2,7.4c0.2,1-1.4,2.2-3.2,2.6C43,10.4,41.2,9.9,41,8.8c-0.2-1,1.2-2.2,3.1-2.6
							C46,5.8,48,6.4,48.2,7.4z"/>
						<path class="st216" d="M48.2,7.4c0.2,1-1.3,2.2-3.2,2.6c-1.9,0.4-3.7-0.1-3.9-1.2c-0.2-1,1.2-2.2,3.1-2.6
							C46,5.8,48,6.4,48.2,7.4z"/>
						<path class="st217" d="M48.1,7.4c0.2,1-1.3,2.2-3.2,2.6c-1.9,0.4-3.7-0.1-3.9-1.1c-0.2-1,1.2-2.2,3.1-2.6
							C46,5.9,47.9,6.4,48.1,7.4z"/>
						<path class="st218" d="M48.1,7.4c0.2,1-1.3,2.2-3.2,2.6c-1.9,0.4-3.7-0.1-3.9-1.1c-0.2-1,1.2-2.2,3.1-2.6
							C46,5.9,47.9,6.4,48.1,7.4z"/>
						<path class="st219" d="M48.1,7.4c0.2,1-1.3,2.2-3.2,2.6c-1.9,0.4-3.7-0.1-3.9-1.1c-0.2-1,1.2-2.2,3.1-2.6
							C46,5.9,47.9,6.4,48.1,7.4z"/>
						<path class="st220" d="M48.1,7.4c0.2,1-1.3,2.2-3.1,2.5c-1.9,0.4-3.6-0.1-3.9-1.1c-0.2-1,1.2-2.2,3.1-2.5
							C46,5.9,47.9,6.4,48.1,7.4z"/>
						<path class="st221" d="M48.1,7.4c0.2,1-1.3,2.1-3.1,2.5c-1.8,0.4-3.6-0.1-3.8-1.1c-0.2-1,1.2-2.1,3.1-2.5
							C46,5.9,47.9,6.4,48.1,7.4z"/>
						<path class="st222" d="M48,7.4c0.2,1-1.3,2.1-3.1,2.5c-1.8,0.4-3.6-0.1-3.8-1.1c-0.2-1,1.2-2.1,3.1-2.5
							C46,5.9,47.8,6.4,48,7.4z"/>
						<path class="st223" d="M48,7.4c0.2,1-1.3,2.1-3.1,2.5c-1.8,0.4-3.6-0.1-3.8-1.1c-0.2-1,1.2-2.1,3-2.5C46,5.9,47.8,6.4,48,7.4z
							"/>
						<path class="st224" d="M48,7.4c0.2,1-1.3,2.1-3.1,2.5c-1.8,0.4-3.6-0.1-3.8-1.1c-0.2-1,1.2-2.1,3-2.5C46,5.9,47.8,6.4,48,7.4z
							"/>
						<path class="st225" d="M48,7.4c0.2,1-1.2,2.1-3.1,2.5c-1.8,0.4-3.6-0.1-3.8-1.1c-0.2-1,1.2-2.1,3-2.5C46,5.9,47.8,6.4,48,7.4z
							"/>
						<path class="st226" d="M48,7.4c0.2,1-1.2,2.1-3,2.5c-1.8,0.4-3.6-0.1-3.8-1.1c-0.2-1,1.2-2.1,3-2.5C46,6,47.8,6.4,48,7.4z"/>
						<path class="st227" d="M47.9,7.4c0.2,1-1.2,2.1-3,2.5c-1.8,0.4-3.6-0.1-3.8-1.1c-0.2-1,1.2-2.1,3-2.5C46,6,47.7,6.5,47.9,7.4z
							"/>
						<path class="st228" d="M47.9,7.4c0.2,1-1.2,2.1-3,2.5c-1.8,0.4-3.5-0.1-3.7-1.1c-0.2-1,1.2-2.1,3-2.5C46,6,47.7,6.5,47.9,7.4z
							"/>
						<path class="st229" d="M47.9,7.4c0.2,1-1.2,2.1-3,2.4c-1.8,0.4-3.5-0.1-3.7-1.1c-0.2-1,1.2-2.1,3-2.4C46,6,47.7,6.5,47.9,7.4z
							"/>
						<path class="st230" d="M47.9,7.4c0.2,1-1.2,2.1-3,2.4c-1.8,0.4-3.5-0.1-3.7-1.1c-0.2-1,1.2-2.1,3-2.4
							C45.9,6,47.7,6.5,47.9,7.4z"/>
						<path class="st231" d="M47.9,7.4c0.2,1-1.2,2-2.9,2.4c-1.8,0.4-3.5-0.1-3.7-1.1c-0.2-1,1.2-2,3-2.4C45.9,6,47.7,6.5,47.9,7.4z
							"/>
						<path class="st232" d="M47.8,7.5c0.2,1-1.2,2-2.9,2.4c-1.7,0.4-3.5-0.1-3.7-1.1c-0.2-1,1.2-2,3-2.4C45.9,6,47.6,6.5,47.8,7.5z
							"/>
						<path class="st233" d="M47.8,7.5c0.2,1-1.2,2-2.9,2.4c-1.7,0.4-3.5-0.1-3.7-1.1c-0.2-1,1.2-2,2.9-2.4
							C45.9,6,47.6,6.5,47.8,7.5z"/>
						<path class="st234" d="M47.8,7.5c0.2,0.9-1.1,2-2.9,2.4c-1.7,0.4-3.5-0.1-3.7-1.1c-0.2-0.9,1.2-2,2.9-2.4
							C45.9,6,47.6,6.5,47.8,7.5z"/>
						<path class="st235" d="M47.8,7.5c0.2,0.9-1.1,2-2.9,2.4c-1.7,0.4-3.4-0.1-3.6-1.1c-0.2-0.9,1.2-2,2.9-2.4
							C45.9,6,47.6,6.5,47.8,7.5z"/>
						<path class="st236" d="M47.8,7.5c0.2,0.9-1.1,2-2.8,2.4c-1.7,0.4-3.4-0.1-3.6-1c-0.2-0.9,1.2-2,2.9-2.4
							C45.9,6.1,47.6,6.5,47.8,7.5z"/>
						<path class="st237" d="M47.7,7.5c0.2,0.9-1.1,2-2.8,2.3c-1.7,0.4-3.4-0.1-3.6-1c-0.2-0.9,1.2-2,2.9-2.3
							C45.9,6.1,47.5,6.5,47.7,7.5z"/>
						<path class="st238" d="M47.7,7.5c0.2,0.9-1.1,2-2.8,2.3c-1.7,0.4-3.4-0.1-3.6-1c-0.2-0.9,1.2-2,2.9-2.3
							C45.9,6.1,47.5,6.5,47.7,7.5z"/>
						<path class="st239" d="M47.7,7.5c0.2,0.9-1.1,2-2.8,2.3c-1.7,0.4-3.4-0.1-3.6-1c-0.2-0.9,1.2-2,2.9-2.3
							C45.9,6.1,47.5,6.6,47.7,7.5z"/>
						<path class="st240" d="M47.7,7.5c0.2,0.9-1.1,2-2.8,2.3c-1.7,0.4-3.4-0.1-3.6-1c-0.2-0.9,1.2-2,2.9-2.3
							C45.9,6.1,47.5,6.6,47.7,7.5z"/>
						<path class="st241" d="M47.7,7.5c0.2,0.9-1.1,1.9-2.7,2.3c-1.7,0.4-3.4-0.1-3.6-1c-0.2-0.9,1.2-1.9,2.9-2.3
							C45.9,6.1,47.5,6.6,47.7,7.5z"/>
						<path class="st242" d="M47.6,7.5c0.2,0.9-1.1,1.9-2.7,2.3c-1.7,0.4-3.3-0.1-3.5-1c-0.2-0.9,1.2-1.9,2.8-2.3
							C45.9,6.1,47.4,6.6,47.6,7.5z"/>
						<path class="st243" d="M47.6,7.5c0.2,0.9-1.1,1.9-2.7,2.3c-1.6,0.3-3.3-0.1-3.5-1c-0.2-0.9,1.2-1.9,2.8-2.3
							C45.9,6.1,47.4,6.6,47.6,7.5z"/>
						<path class="st244" d="M47.6,7.5c0.2,0.9-1,1.9-2.7,2.3c-1.6,0.3-3.3-0.1-3.5-1c-0.2-0.9,1.2-1.9,2.8-2.3
							C45.9,6.1,47.4,6.6,47.6,7.5z"/>
						<path class="st245" d="M47.6,7.5c0.2,0.9-1,1.9-2.7,2.2c-1.6,0.3-3.3-0.1-3.5-1c-0.2-0.9,1.2-1.9,2.8-2.2
							C45.9,6.2,47.4,6.6,47.6,7.5z"/>
						<path class="st246" d="M47.5,7.5c0.2,0.9-1,1.9-2.6,2.2c-1.6,0.3-3.3-0.1-3.5-1c-0.2-0.9,1.2-1.9,2.8-2.2
							C45.8,6.2,47.4,6.6,47.5,7.5z"/>
						<path class="st247" d="M47.5,7.5c0.2,0.9-1,1.9-2.6,2.2c-1.6,0.3-3.3-0.1-3.5-1c-0.2-0.9,1.2-1.9,2.8-2.2
							C45.8,6.2,47.3,6.6,47.5,7.5z"/>
						<path class="st248" d="M47.5,7.5c0.2,0.9-1,1.9-2.6,2.2c-1.6,0.3-3.3-0.1-3.5-1c-0.2-0.9,1.2-1.9,2.8-2.2
							C45.8,6.2,47.3,6.6,47.5,7.5z"/>
						<path class="st249" d="M47.5,7.5c0.2,0.9-1,1.9-2.6,2.2c-1.6,0.3-3.3-0.1-3.4-1c-0.2-0.9,1.2-1.9,2.8-2.2
							C45.8,6.2,47.3,6.6,47.5,7.5z"/>
						<path class="st250" d="M47.5,7.5c0.2,0.9-1,1.8-2.6,2.2c-1.6,0.3-3.2-0.1-3.4-1c-0.2-0.9,1.2-1.8,2.8-2.2
							C45.8,6.2,47.3,6.6,47.5,7.5z"/>
						<path class="st251" d="M47.4,7.5c0.2,0.9-1,1.8-2.5,2.2c-1.6,0.3-3.2-0.1-3.4-1c-0.2-0.9,1.2-1.8,2.7-2.2
							C45.8,6.2,47.3,6.7,47.4,7.5z"/>
						<path class="st252" d="M47.4,7.5c0.2,0.9-1,1.8-2.5,2.2c-1.6,0.3-3.2-0.1-3.4-1c-0.2-0.9,1.2-1.8,2.7-2.2
							C45.8,6.2,47.2,6.7,47.4,7.5z"/>
						<path class="st253" d="M47.4,7.5c0.2,0.9-0.9,1.8-2.5,2.1c-1.6,0.3-3.2-0.1-3.4-1c-0.2-0.9,1.2-1.8,2.7-2.1
							C45.8,6.2,47.2,6.7,47.4,7.5z"/>
						<path class="st254" d="M47.4,7.5c0.2,0.9-0.9,1.8-2.5,2.1c-1.6,0.3-3.2-0.1-3.4-0.9c-0.2-0.9,1.2-1.8,2.7-2.1
							C45.8,6.3,47.2,6.7,47.4,7.5z"/>
						<path class="st255" d="M47.4,7.5c0.2,0.8-0.9,1.8-2.5,2.1c-1.5,0.3-3.2-0.1-3.4-0.9c-0.2-0.8,1.2-1.8,2.7-2.1
							C45.8,6.3,47.2,6.7,47.4,7.5z"/>
					</g>
				</g>
				<linearGradient id="SVGID_12_" gradientUnits="userSpaceOnUse" x1="8.8138" y1="8.3834" x2="30.5042" y2="18.4979">
					<stop  offset="0" style="stop-color:#AE1D1F"/>
					<stop  offset="0.1458" style="stop-color:#BD431F"/>
					<stop  offset="0.3487" style="stop-color:#D0731F"/>
					<stop  offset="0.45" style="stop-color:#D7851F"/>
					<stop  offset="0.5476" style="stop-color:#DD9823"/>
					<stop  offset="0.8162" style="stop-color:#EEC82F"/>
					<stop  offset="0.95" style="stop-color:#F4DA33"/>
				</linearGradient>
				<path class="st256" d="M31.5,13.6c-0.6,0.4-1.3,0.7-2.1,1C26.5,15.9,23,17,18.9,17c-9.4,0-13.4-5.2-16-10.1
					c-0.3-0.6-0.8-1.6-1-2.3C1.6,3.7,1.2,3.1,0.4,2.4C0.2,2.3,0.1,2.2,0,2.1c0-0.1,0-0.2,0.3-0.2c0.2,0,0.6,0.1,0.8,0.3
					c0.2,0.1,0.3,0.2,0.4,0.4c0.1,0.2,0.4,0.6,0.6,1.1c0.4,0.9,0.6,0.8,0.6,0.6c0-0.3-0.4-1.1-0.9-2.3C1.8,1.8,1.6,1.5,1.2,1.4
					C0.8,1.3,0.7,1.1,0.6,1C0.5,0.9,0.4,0.7,0.2,0.7c0,0-0.2,0-0.2-0.2c0-0.2,0.1-0.3,0.3-0.3c0.2,0,0.4,0.2,0.7,0.4
					C1.2,0.8,1.4,1,1.5,1c0.1,0,0.1-0.1,0.1-0.2c0-0.1,0-0.2,0.1-0.2c0.2,0,0.8,0.6,1,0.8C3.2,2,3.2,2.1,4,2.4
					c0.2,0.1,0.4,0.2,0.5,0.3c0.2,0.2,0.6,1,0.8,0.9c0.1,0,0.1-0.3,0.1-0.5c0-0.2,0.2-0.1,0.3-0.1C6.3,3.6,7,4.9,7.8,4.9
					c0.3,0,0.4-0.1,0.5-0.3c0.3-0.4,0-0.8,0-1.1c0-0.3,0.4-0.3,0.7,0.1c0.3,0.3,0.6,0.6,1.1,0.3c0.4-0.3,0.7-0.7,1.3-0.2
					c0.5,0.4,0.8,1,0.9,1.3c0,0,1.2,2.2,3.3,4.1c0,0,3.2,3.2,7.1,4.4c2.5,0.7,4.6,0.6,6.3,0.3L31.5,13.6z"/>
				<path class="st257" d="M13.4,6.6C12.7,5.6,12.3,5,12.3,5c-0.1-0.1-0.2-0.3-0.3-0.6c-0.1-0.2-0.3-0.5-0.7-0.4
					c-0.5,0.2-0.7,2.6,0.1,5c0,0,0.7,2,2.6,3.2c0,0,0.1,0,0.1,0l0,0c0,0,0,0,0-0.1c-0.1-0.1-1.2-1-1.6-2.4c-0.2-0.9-0.2-1.2,0-1.4
					c0.1-0.1,0.2-0.1,0.2,0c0,0,0.2,0.1,0.6,0.5c1.6,1.4,3.6,3.3,6.2,3.7C17.5,11.3,15.4,9.4,13.4,6.6z"/>
				<path class="st255" d="M56.5,4.8c-0.1-0.1-0.2-0.1-0.3-0.1c1.4,0.8,1.7,1.4,2,2.6c0.3,1.4,1.4,0.8,2.6,2.6c0,0,0.7,1.1,0.8,2.8
					l0,0C61.6,9.4,59.9,6.7,56.5,4.8z"/>
				<path class="st257" d="M26.8,15.4c-2.6,0.9-5.3,1.4-7.9,1.4c-7.4,0-11.3-3.4-13.8-7.1c0,0,1.5,1.9,3.1,2.9
					c1.3,0.8,2.5,0.7,3.2,0C16.4,16.9,21.5,16.9,26.8,15.4z"/>
				<path class="st0" d="M57.5,18.6c0.2-0.2,0.2-1.1,0.2-1.1s-0.4-0.6-0.7-0.5c-0.4,0.1-0.4,0.8-0.3,1.3
					C56.7,18.9,57.3,18.8,57.5,18.6z"/>
				<path class="st0" d="M24.6,19.8h-2.2v6.8c0,1.1-0.7,1.7-1.7,1.7c-0.9,0-1.7-0.6-1.7-1.7v-5.7c0-0.6-0.5-1.1-1.1-1.1h-2.7
					c0.3,0.4,0.5,0.9,0.5,1.5v5.1c0,2.6,1.8,3.6,4.6,3.6c1.9,0,3-0.7,4.1-0.7c0.3,0,0.7,0,1.1,0.1v-8.5
					C25.7,20.3,25.2,19.8,24.6,19.8z"/>
				<path class="st0" d="M40.9,19.8h-2.2v6.8c0,1.1-0.7,1.7-1.7,1.7c-0.9,0-1.7-0.6-1.7-1.7v-5.7c0-0.6-0.5-1.1-1.1-1.1h-2.7
					c0.3,0.4,0.5,0.9,0.5,1.5v5.1c0,2.6,1.8,3.6,4.6,3.6c1.9,0,3-0.7,4.1-0.7c0.3,0,0.7,0,1.1,0.1v-8.5C42,20.3,41.5,19.8,40.9,19.8
					z"/>
				<path class="st0" d="M29.5,16.9h-2.7c0.3,0.4,0.5,0.9,0.5,1.5v10.8c0,0.2,0.2,0.4,0.4,0.4h2.9V18C30.5,17.4,30.1,16.9,29.5,16.9
					z"/>
				<path class="st0" d="M8,16l-6.9,0c0.3,0.4,0.5,0.9,0.5,1.5v11.7c0,0.2,0.2,0.4,0.4,0.4H8c1.7,0,6.5-1,6.5-7
					C14.5,16.5,9.7,16,8,16z M6.8,27.7H5.3v-9.8h1.6c2.8,0,3.8,1.4,3.8,4.7C10.6,25.8,9.4,27.7,6.8,27.7z"/>
				<path class="st0" d="M53,20.2c0.1-0.2,0.1-0.4-0.2-0.4h-2.4l-2,2.5l-1.2-1.7c-0.4-0.5-0.8-0.8-1.6-0.8h-3.2
					c0.6,0.4,1,0.8,1.5,1.5l2.5,3.5l-3.4,4.3c-0.1,0.2-0.1,0.4,0.2,0.4h2.4l2.3-2.8l1.4,2c0.3,0.5,0.8,0.8,1.6,0.8h2.8l-3.8-5.3
					L53,20.2z"/>
			</g>
		</g>
	</g>
	<g>
		<path class="st255" d="M20.2,12.4c-1.6-0.8-3.3-1.9-4.9-3.5c3,3.5,10.3,7.7,16.7,3.8c2-1.2,3.2-2.8,3.7-3.3
			c0.7-0.7,1.2-1.5,1.8-2.1c4.1-4.9,8.4-5.2,10.2-5.2c0,0-5.4-0.8-10.4,5c0,0-0.9,1.1-1.8,2.1C34.6,10,29.1,16.7,20.2,12.4z"/>
	</g>
</g>
</svg>
