
<svg style="position: absolute; width: 0; height: 0;" width="0" height="0" version="1.1" xmlns="http://www.w3.org/2000/svg" xmlns:xlink="http://www.w3.org/1999/xlink">
<defs>
<symbol id="icon-hamburger-menu" viewBox="0 0 32 32">
<title>hamburger-menu</title>
<path class="path1" d="M5.549 7.747h20.902c0.441 0 0.801-0.359 0.801-0.8s-0.359-0.8-0.801-0.8h-20.902c-0.441 0-0.8 0.359-0.8 0.8s0.358 0.8 0.8 0.8z"></path>
<path class="path2" d="M5.549 16.709h15.898c0.441 0 0.801-0.359 0.801-0.8s-0.359-0.8-0.801-0.8h-15.898c-0.441 0-0.8 0.359-0.8 0.8s0.358 0.8 0.8 0.8z"></path>
<path class="path3" d="M26.451 24.072h-20.902c-0.441 0-0.8 0.358-0.8 0.8s0.359 0.8 0.8 0.8h20.902c0.441 0 0.801-0.358 0.801-0.8s-0.359-0.8-0.801-0.8z"></path>
</symbol>
<symbol id="icon-store-finder" viewBox="0 0 32 32">
<title>store-finder</title>
<path class="path1" d="M9.365 17.924l6.016 8.333c0.131 0.182 0.347 0.29 0.577 0.29 0.229-0.002 0.444-0.111 0.574-0.294l5.956-8.374c1.089-1.426 1.604-3.221 1.604-5.014-0.002-2.233-0.794-4.492-2.418-6.057-1.594-1.531-3.683-2.297-5.765-2.296-2.101-0.001-4.208 0.78-5.806 2.333v0c-1.597 1.56-2.373 3.796-2.375 6.008 0.001 1.815 0.528 3.632 1.639 5.069l-0.002 0.002zM9.128 12.854c-0.002-1.908 0.689-3.816 1.968-5.055v0c1.328-1.291 3.067-1.935 4.813-1.935 1.729 0 3.454 0.633 4.778 1.903 1.301 1.242 2.008 3.171 2.004 5.097 0.002 1.552-0.455 3.083-1.341 4.229l-0.015 0.021-5.385 7.567-5.453-7.552c-0.903-1.153-1.371-2.704-1.369-4.275z"></path>
<path class="path2" d="M15.981 15.921h0.012c2.038-0.007 3.688-1.604 3.688-3.574v-0.012c-0.006-1.972-1.662-3.563-3.7-3.563h-0.013c-2.041 0.007-3.688 1.605-3.689 3.574v0.013c0.010 1.971 1.664 3.562 3.702 3.562zM13.68 12.346c0-1.223 1.024-2.218 2.292-2.221v0h0.008c1.268 0 2.298 0.989 2.3 2.214v0 0.008c0.002 1.223-1.025 2.218-2.292 2.221h-0.007c-1.267 0-2.297-0.989-2.301-2.214v-0.008z"></path>
</symbol>
<symbol id="icon-search" viewBox="0 0 32 32">
<title>search</title>
<path class="path1" d="M15.341 23.066v0c1.969 0 3.79-0.617 5.291-1.664 0.063 0.139 0.136 0.273 0.246 0.39l4.584 4.785c0.535 0.559 1.421 0.577 1.979 0.043 0.559-0.535 0.578-1.421 0.043-1.979l-4.582-4.785c-0.102-0.106-0.226-0.174-0.348-0.242 1.285-1.591 2.059-3.614 2.059-5.82 0-5.122-4.15-9.272-9.271-9.273-5.124 0.001-9.274 4.152-9.274 9.274-0.001 5.121 4.15 9.271 9.273 9.271zM15.342 6.011c2.149 0 4.091 0.87 5.501 2.279 1.408 1.41 2.279 3.352 2.28 5.503-0.001 2.151-0.872 4.094-2.28 5.503-1.411 1.409-3.352 2.28-5.502 2.28v0c-2.152 0-4.094-0.87-5.504-2.279-1.408-1.41-2.278-3.352-2.279-5.502 0-4.298 3.484-7.784 7.784-7.784z"></path>
</symbol>
<symbol id="icon-scrapbook" viewBox="0 0 32 32">
<title>scrapbook</title>
<path class="path1" d="M4.491 13.701c0.504 2.132 1.684 4.016 3.266 5.448l-0.001-0.001 7.721 7.007c0.266 0.242 0.668 0.243 0.937 0.004l7.858-7.009c1.582-1.433 2.76-3.316 3.263-5.449v0c0.194-0.817 0.243-1.458 0.243-1.895 0-0.396-0.041-0.624-0.049-0.665h-0.002c-0.17-1.747-0.863-3.361-1.975-4.562-1.123-1.217-2.695-2.002-4.498-2-2.202 0.001-4.129 1.142-5.3 2.859-1.132-1.707-2.976-2.862-5.181-2.859-1.802-0.001-3.376 0.784-4.498 2-1.112 1.201-1.805 2.816-1.977 4.564h-0.002c-0.008 0.041-0.047 0.266-0.047 0.659 0 0.435 0.049 1.077 0.242 1.899v0zM5.663 11.476l0.008-0.068 0.002-0.010 0.008-0.063c0.133-1.485 0.726-2.84 1.621-3.805 0.9-0.965 2.076-1.547 3.471-1.55 2.068 0.003 3.719 1.269 4.529 3.167 0.109 0.259 0.363 0.428 0.645 0.428 0.281 0 0.536-0.169 0.646-0.428 0.794-1.875 2.587-3.169 4.661-3.168 1.395 0.002 2.571 0.585 3.471 1.55 0.896 0.965 1.488 2.321 1.619 3.805l0.010 0.064c0 0.003 0.023 0.142 0.023 0.406 0 0.332-0.037 0.863-0.205 1.573v0c-0.433 1.834-1.453 3.476-2.841 4.733l0.005-0.004-7.385 6.587-7.255-6.584c-1.387-1.254-2.41-2.897-2.843-4.731v0.001c-0.167-0.713-0.204-1.246-0.204-1.578 0-0.149 0.008-0.259 0.014-0.325z"></path>
</symbol>
<symbol id="icon-shopping-list" viewBox="0 0 32 32">
<title>shopping-list</title>
<path class="path1" d="M26.218 8.344h-12.61c-0.358 0-0.649 0.291-0.649 0.65s0.291 0.65 0.649 0.65h12.61c0.359 0 0.65-0.291 0.65-0.65s-0.291-0.65-0.65-0.65z"></path>
<path class="path2" d="M7.661 10.357c0.141 0.14 0.336 0.208 0.533 0.186 0.195-0.022 0.372-0.133 0.477-0.3l3.070-4.893c0.191-0.304 0.1-0.706-0.205-0.896s-0.705-0.099-0.896 0.205l-2.637 4.203-1.563-1.559c-0.253-0.254-0.665-0.254-0.918 0.001-0.254 0.254-0.254 0.666 0 0.919l2.139 2.134z"></path>
<path class="path3" d="M13.521 16.758h12.611c0.359 0 0.65-0.291 0.65-0.65s-0.291-0.65-0.65-0.65h-12.611c-0.359 0-0.65 0.291-0.65 0.65s0.29 0.65 0.65 0.65z"></path>
<path class="path4" d="M10.316 16.108c-0.001-1.352-1.096-2.448-2.448-2.449-1.354 0.001-2.449 1.097-2.449 2.449 0 1.354 1.096 2.449 2.449 2.45s2.447-1.097 2.448-2.45zM6.718 16.108c0.002-0.632 0.517-1.147 1.15-1.149 0.633 0.001 1.146 0.516 1.148 1.149-0.002 0.635-0.516 1.148-1.148 1.149-0.635 0-1.148-0.514-1.15-1.149z"></path>
<path class="path5" d="M26.218 23.16h-12.61c-0.358 0-0.649 0.291-0.649 0.65s0.291 0.65 0.649 0.65h12.61c0.359 0 0.65-0.291 0.65-0.65s-0.291-0.65-0.65-0.65z"></path>
<path class="path6" d="M7.954 26.268c1.357 0 2.457-1.1 2.458-2.457-0.001-1.358-1.101-2.458-2.458-2.459-1.356 0.001-2.457 1.101-2.457 2.459 0 1.357 1.101 2.457 2.457 2.457zM7.954 22.652c0.639 0.001 1.156 0.519 1.158 1.158-0.002 0.639-0.52 1.156-1.158 1.158-0.638-0.002-1.156-0.52-1.158-1.158 0.002-0.639 0.52-1.157 1.158-1.158z"></path>
</symbol>
<symbol id="icon-shopping-cart" viewBox="0 0 32 32">
<title>shopping-cart</title>
<path class="path1" d="M11.954 22.783c-1.412 0.001-2.558 1.146-2.559 2.56 0.001 1.414 1.146 2.558 2.559 2.559 1.413-0.001 2.559-1.146 2.56-2.559-0.001-1.413-1.146-2.559-2.56-2.56zM11.954 26.501c-0.639-0.001-1.157-0.52-1.158-1.158 0.001-0.64 0.521-1.158 1.158-1.159 0.639 0.001 1.158 0.52 1.159 1.159-0.001 0.639-0.519 1.157-1.159 1.158z"></path>
<path class="path2" d="M23.812 22.783c-1.414 0.001-2.559 1.146-2.56 2.56 0.001 1.414 1.147 2.558 2.56 2.559 1.412-0.001 2.558-1.146 2.559-2.559-0.002-1.413-1.147-2.559-2.559-2.56zM23.812 26.501c-0.639-0.001-1.158-0.52-1.159-1.158 0.001-0.64 0.521-1.158 1.159-1.159 0.639 0.001 1.157 0.52 1.158 1.159-0.001 0.639-0.52 1.157-1.158 1.158z"></path>
<path class="path3" d="M12.042 19.086c0.006-0.027 0.010-0.050 0.016-0.076 0.811-0.029 3.4-0.126 6.068-0.243 1.61-0.071 3.246-0.149 4.537-0.226 0.646-0.039 1.205-0.076 1.635-0.113 0.216-0.018 0.398-0.035 0.55-0.055 0.155-0.020 0.259-0.031 0.399-0.071 0.211-0.062 0.379-0.218 0.457-0.423l2.707-7.136c0.076-0.201 0.055-0.428-0.057-0.612s-0.304-0.307-0.518-0.332l-18.513-2.155c-0.010-0.166-0.022-0.334-0.036-0.497-0.042-0.464-0.085-0.863-0.135-1.12-0.053-0.261-0.214-0.423-0.329-0.507-0.211-0.148-0.371-0.183-0.545-0.228-0.502-0.109-1.152-0.126-1.828-0.129-1.072 0-2.137 0.069-2.145 0.069-0.386 0.025-0.679 0.358-0.654 0.744s0.358 0.679 0.745 0.654c0 0 0.256-0.017 0.645-0.034 0.386-0.016 0.903-0.033 1.409-0.033 0.48 0 0.955 0.016 1.277 0.056 0.039 0.004 0.066 0.010 0.1 0.015 0.021 0.179 0.045 0.401 0.064 0.635 0.040 0.436 0.070 0.921 0.079 1.274v0.001l0.002 0.197c0 0.097-0.003 0.174-0.006 0.204v-0.003l-0.004 0.084c0.004 0.155 0.023 0.23 0.047 0.349 0.088 0.413 0.297 1.129 0.569 2.029 0.409 1.342 0.956 3.051 1.405 4.455 0.225 0.702 0.424 1.328 0.569 1.79 0.073 0.232 0.132 0.422 0.173 0.559l0.039 0.137c-0.012 0.082-0.049 0.275-0.103 0.491-0.097 0.392-0.237 0.888-0.353 1.281-0.116 0.394-0.207 0.684-0.207 0.685-0.066 0.212-0.027 0.443 0.104 0.623 0.132 0.179 0.342 0.285 0.563 0.285h15.229c0.387 0 0.7-0.313 0.7-0.7s-0.313-0.7-0.7-0.7h-14.286c0.027-0.095 0.055-0.188 0.083-0.288 0.090-0.316 0.178-0.646 0.248-0.936zM10.312 11.813c-0.227-0.732-0.43-1.4-0.574-1.906-0.071-0.252-0.129-0.464-0.165-0.617l-0.034-0.149 17.078 1.989-2.2 5.799c-0.523 0.056-1.53 0.123-2.753 0.189-1.93 0.104-4.38 0.21-6.348 0.289-1.483 0.059-2.688 0.104-3.193 0.123-0.096-0.313-0.23-0.736-0.4-1.27-0.4-1.254-0.956-2.981-1.411-4.447zM10.78 18.398v0 0 0z"></path>
</symbol>
<symbol id="icon-close-big" viewBox="0 0 32 32">
<title>close-big</title>
<path class="path1" d="M25.898 27.133c-0.215 0-0.415-0.083-0.566-0.234l-9.433-9.434-9.434 9.434c-0.303 0.303-0.829 0.303-1.132 0-0.312-0.312-0.312-0.819 0-1.131l9.434-9.434-9.433-9.435c-0.312-0.312-0.312-0.82 0-1.132 0.303-0.302 0.829-0.302 1.132 0l9.434 9.434 9.434-9.434c0.303-0.302 0.829-0.302 1.132 0 0.313 0.312 0.313 0.82 0 1.132l-9.434 9.434 9.433 9.434c0.312 0.312 0.312 0.819 0 1.131-0.152 0.152-0.354 0.235-0.567 0.235z"></path>
</symbol>
<symbol id="icon-show-more" viewBox="0 0 32 32">
<title>show-more</title>
<path class="path1" d="M15.9 20.377c-0.218 0-0.429-0.090-0.578-0.247l-5.465-5.696c-0.305-0.318-0.294-0.826 0.024-1.131 0.308-0.296 0.834-0.284 1.131 0.024l4.888 5.094 4.887-5.094c0.295-0.309 0.822-0.32 1.131-0.024 0.318 0.306 0.329 0.813 0.023 1.131l-5.464 5.697c-0.151 0.156-0.361 0.246-0.577 0.246z"></path>
</symbol>
<symbol id="icon-show-less" viewBox="0 0 32 32">
<title>show-less</title>
<path class="path1" d="M10.435 19.299v0c-0.207 0-0.403-0.080-0.554-0.224-0.154-0.147-0.242-0.347-0.246-0.561-0.005-0.214 0.074-0.417 0.222-0.571l5.479-5.708c0.002-0.002 0.006-0.006 0.010-0.010 0.032-0.031 0.064-0.049 0.093-0.064 0.012-0.006 0.023-0.012 0.034-0.020l0.030-0.021c0.028-0.020 0.059-0.042 0.099-0.058 0.042-0.017 0.083-0.023 0.119-0.029l0.064-0.013c0.070-0.016 0.163-0.016 0.23 0l0.067 0.013c0.035 0.006 0.075 0.012 0.117 0.028 0.040 0.017 0.072 0.040 0.101 0.060l0.029 0.021c0.010 0.006 0.021 0.012 0.031 0.018 0.028 0.015 0.063 0.034 0.095 0.066l0.009 0.009c0.002 0.002 0.005 0.004 0.007 0.006l5.472 5.702c0.147 0.154 0.227 0.356 0.222 0.57s-0.092 0.413-0.246 0.561c-0.309 0.296-0.836 0.286-1.132-0.023l-4.887-5.094-4.889 5.095c-0.153 0.159-0.358 0.247-0.576 0.247z"></path>
</symbol>
<symbol id="icon-reload" viewBox="0 0 32 32">
<title>reload</title>
<path class="path1" d="M7.501 19.205c-0.012 0-0.024 0-0.036 0-0.221-0.012-0.422-0.127-0.545-0.31l-2.787-4.151c-0.216-0.321-0.13-0.756 0.19-0.971 0.323-0.216 0.758-0.13 0.972 0.191l2.267 3.376 2.607-3.121c0.249-0.296 0.689-0.335 0.985-0.088 0.297 0.248 0.337 0.689 0.089 0.986l-3.205 3.838c-0.133 0.158-0.33 0.25-0.537 0.25z"></path>
<path class="path2" d="M27.287 19.355c-0.225 0-0.447-0.108-0.582-0.31l-2.266-3.376-2.607 3.122c-0.248 0.297-0.689 0.336-0.986 0.088s-0.336-0.689-0.088-0.985l3.207-3.838c0.141-0.169 0.336-0.265 0.574-0.25 0.219 0.012 0.422 0.126 0.543 0.309l2.785 4.151c0.217 0.321 0.131 0.756-0.191 0.971-0.119 0.080-0.254 0.118-0.389 0.118z"></path>
<path class="path3" d="M15.977 25.202c-2.385 0-4.692-0.931-6.443-2.657-0.275-0.271-0.278-0.715-0.007-0.99s0.715-0.278 0.989-0.007c1.927 1.9 4.646 2.663 7.277 2.041 3.98-0.939 6.721-5.022 5.984-8.916-0.072-0.38 0.178-0.746 0.557-0.818 0.381-0.072 0.746 0.178 0.818 0.558 0.887 4.685-2.27 9.414-7.037 10.539-0.711 0.167-1.427 0.25-2.138 0.25z"></path>
<path class="path4" d="M7.505 19.18c-0.31 0-0.592-0.205-0.676-0.518-0.65-2.419-0.289-4.957 1.018-7.147 1.344-2.251 3.544-3.88 6.036-4.469 3.309-0.781 6.758 0.313 9.010 2.858 0.256 0.29 0.23 0.732-0.061 0.988-0.287 0.256-0.73 0.229-0.988-0.061-1.91-2.158-4.834-3.086-7.639-2.423-2.126 0.502-4.006 1.896-5.156 3.824-1.111 1.862-1.419 4.016-0.868 6.066 0.101 0.373-0.121 0.757-0.494 0.857-0.061 0.017-0.123 0.025-0.182 0.025z"></path>
</symbol>
<symbol id="icon-colours" viewBox="0 0 32 32">
<title>colours</title>
<path class="path1" d="M24.735 19.479c-0.005-0.901-0.307-1.885-0.782-2.984-1.436-3.278-4.563-7.624-7.462-11.764-0.132-0.188-0.344-0.298-0.573-0.298s-0.442 0.111-0.573 0.298c-1.932 2.758-3.967 5.619-5.532 8.18-0.783 1.282-1.449 2.488-1.928 3.585-0.477 1.1-0.778 2.082-0.783 2.982 0.001 4.862 3.953 8.814 8.816 8.816 4.863-0.001 8.816-3.952 8.817-8.815zM8.687 19.438c-0.005-0.558 0.219-1.399 0.649-2.389 1.2-2.79 3.922-6.72 6.583-10.549 1.712 2.464 3.447 4.961 4.789 7.182 0.744 1.23 1.366 2.375 1.795 3.367 0.43 0.988 0.653 1.83 0.648 2.389 0 2.016-0.811 3.839-2.121 5.165-1.313 1.325-3.116 2.143-5.111 2.143s-3.799-0.818-5.111-2.144c-1.312-1.327-2.121-3.15-2.121-5.164z"></path>
</symbol>
<symbol id="icon-products" viewBox="0 0 32 32">
<title>products</title>
<path class="path1" d="M26.192 7.48l-0.018-0.137-0.008-0.045c-0.061-0.295-0.222-0.568-0.436-0.772-0.323-0.31-0.733-0.505-1.249-0.676-0.518-0.167-1.15-0.303-1.93-0.425v0c-1.777-0.279-4.092-0.429-6.552-0.429s-4.774 0.15-6.552 0.429v0c-1.040 0.165-1.815 0.346-2.411 0.607-0.295 0.132-0.553 0.286-0.766 0.493-0.214 0.205-0.377 0.478-0.437 0.773l-0.008 0.048-0.018 0.137-0.005 0.085v18.009c-0.004 0.317 0.108 0.651 0.312 0.907 0.307 0.385 0.737 0.611 1.274 0.804 0.542 0.189 1.214 0.337 2.061 0.471 1.778 0.279 4.092 0.429 6.552 0.429s4.775-0.15 6.552-0.43c1.131-0.18 1.948-0.377 2.563-0.679 0.307-0.153 0.571-0.339 0.773-0.597 0.202-0.254 0.313-0.589 0.31-0.906v-18.008l-0.007-0.088zM24.899 25.576l-0.038 0.109c-0.049 0.070-0.255 0.23-0.678 0.375-0.418 0.148-1.029 0.288-1.832 0.414-1.679 0.264-3.945 0.414-6.351 0.414s-4.672-0.149-6.35-0.414c-1.070-0.166-1.802-0.364-2.186-0.559-0.193-0.096-0.29-0.184-0.326-0.23l-0.038-0.108v-14.22c1.204 2.115 3.14 3.75 5.46 4.579v0.542c0 0.118 0.096 0.213 0.213 0.213h5.967c0.118 0 0.213-0.095 0.213-0.213v-0.401c2.541-0.774 4.667-2.496 5.944-4.773v14.272zM18.742 14.559h-5.967c-0.118 0-0.213 0.095-0.213 0.213v0.082c-2.544-1.024-4.538-3.133-5.369-5.769 1.165 0.553 3.521 1.306 8.786 1.304h0.003c3.75 0 6.018-0.373 7.444-0.786 0.577-0.167 1.011-0.341 1.345-0.498-0.884 2.78-3.062 4.972-5.815 5.915v-0.249c-0.001-0.117-0.096-0.212-0.214-0.212zM24.899 7.688c-0.132 0.071-0.261 0.148-0.448 0.241-0.445 0.225-1.174 0.533-2.494 0.795-1.318 0.26-3.222 0.466-5.975 0.466h-0.003c-3.668 0-5.823-0.372-7.101-0.749-0.64-0.189-1.060-0.377-1.357-0.53-0.175-0.088-0.297-0.162-0.419-0.23v-0.070l0.007-0.050 0.068-0.104c0.088-0.090 0.331-0.238 0.746-0.371 0.414-0.135 0.99-0.262 1.729-0.377v0c1.678-0.265 3.944-0.414 6.35-0.414 2.405 0 4.673 0.149 6.351 0.414v0c0.984 0.153 1.682 0.331 2.086 0.512 0.203 0.089 0.327 0.176 0.387 0.235l0.068 0.104 0.007 0.051v0.077z"></path>
</symbol>
<symbol id="icon-inspire" viewBox="0 0 32 32">
<title>inspire</title>
<path class="path1" d="M20.376 19.967l0.031-0.1 0.014-0.029c0.27-0.201 1.037-0.813 1.822-1.82 0.947-1.218 1.919-3.033 1.92-5.343 0-4.493-3.641-8.134-8.135-8.134-4.492 0-8.133 3.642-8.133 8.134 0 2.308 0.965 4.123 1.906 5.341 0.773 1 1.531 1.61 1.803 1.816l0.032 0.068 0.016 0.055 0.001 0.010v0.877c0 0.044 0.014 0.084 0.021 0.127-0.002 0.009-0.008 0.016-0.010 0.025l-0.012 0.071-0.012 0.124 0.008 2.633v0.001c0.004 0.236 0.055 0.436 0.125 0.632 0.076 0.196 0.166 0.379 0.322 0.562l0.053 0.054 2.175 2.004 0.003-0.004c0.152 0.153 0.314 0.26 0.487 0.342 0.188 0.084 0.386 0.145 0.628 0.152v0.002l0.023 0.001h0.006l1.135-0.003c0.256-0.004 0.459-0.068 0.654-0.158 0.173-0.082 0.334-0.192 0.486-0.35l0.004 0.004 2.137-2.012 0.049-0.049c0.158-0.184 0.248-0.369 0.321-0.566 0.069-0.194 0.116-0.393 0.12-0.622v0-0.014l-0.007-2.631-0.012-0.126-0.009-0.045c0.014-0.053 0.027-0.106 0.027-0.163v-0.866zM9.296 12.674c0-1.862 0.752-3.541 1.971-4.762 1.221-1.22 2.9-1.972 4.762-1.972 1.863 0 3.542 0.752 4.763 1.972 1.22 1.221 1.972 2.9 1.972 4.762 0 1.904-0.801 3.422-1.625 4.484-0.411 0.528-0.824 0.938-1.131 1.21-0.154 0.136-0.28 0.239-0.366 0.306l-0.097 0.072-0.021 0.016-0.003 0.002-0.118 0.104c-0.15 0.168-0.236 0.334-0.307 0.512-0.068 0.178-0.117 0.358-0.119 0.583v0.319c-0.916 0.21-1.829 0.312-2.7 0.323l-0.194 0.001c-1.113 0.001-2.146-0.135-3.027-0.324v-0.319c-0.002-0.224-0.050-0.403-0.116-0.581-0.069-0.176-0.153-0.342-0.302-0.51l-0.12-0.106-0.003-0.002c-0.064-0.046-0.891-0.65-1.68-1.704-0.793-1.058-1.54-2.539-1.539-4.386zM16.79 26.041l-0.049 0.053-0.091 0.053-0.050 0.016-0.004 0.002-1.119 0.003-0.096-0.034-0.051-0.031-0.012-0.010-0.047-0.047-2.129-1.961-0.066-0.143-0.027-0.124v0.001l-0.006-2.105c0.903 0.176 1.934 0.293 3.037 0.293l0.213-0.002c0.859-0.011 1.762-0.096 2.677-0.283l0.005 2.081v0.001l-0.035 0.153-0.041 0.093-0.012 0.018-2.097 1.973z"></path>
<path class="path2" d="M12.921 14.203l2.295-2.296 1.86 1.861c0.13 0.13 0.311 0.205 0.495 0.206s0.364-0.075 0.494-0.205l2.063-2.061c0.273-0.273 0.273-0.716 0-0.99s-0.716-0.274-0.989 0l-1.567 1.566-1.859-1.861c-0.133-0.132-0.309-0.206-0.496-0.206s-0.362 0.073-0.494 0.205l-2.791 2.792c-0.273 0.273-0.273 0.717 0 0.99s0.715 0.273 0.989-0.001z"></path>
</symbol>
<symbol id="icon-advice" viewBox="0 0 32 32">
<title>advice</title>
<path class="path1" d="M28.061 12.391c-0.001-0.017 0.003-0.032-0.001-0.047-0.003-0.016-0.013-0.028-0.018-0.042-0.011-0.033-0.025-0.064-0.041-0.095-0.017-0.029-0.033-0.057-0.055-0.081-0.009-0.011-0.013-0.023-0.021-0.034l-4.938-5.075c-0.004-0.003-0.007-0.004-0.012-0.008-0.024-0.025-0.057-0.041-0.087-0.060-0.029-0.018-0.056-0.039-0.086-0.051-0.005-0.002-0.008-0.006-0.013-0.008-0.029-0.011-0.060-0.008-0.091-0.013-0.028-0.005-0.055-0.017-0.085-0.017h-12.973c-0.029 0-0.057 0.012-0.085 0.017-0.031 0.003-0.061 0.001-0.091 0.012-0.004 0.002-0.008 0.006-0.012 0.007-0.031 0.013-0.056 0.034-0.086 0.052-0.030 0.020-0.063 0.035-0.089 0.060-0.003 0.004-0.007 0.005-0.010 0.008l-4.939 5.075c-0.012 0.012-0.016 0.028-0.026 0.041-0.020 0.024-0.037 0.050-0.051 0.078-0.019 0.033-0.032 0.066-0.043 0.102-0.004 0.017-0.014 0.028-0.018 0.045-0.002 0.014 0.002 0.026 0.001 0.039-0.006 0.038-0.003 0.075 0.001 0.113 0.003 0.028 0.005 0.056 0.012 0.083 0.010 0.035 0.026 0.066 0.042 0.098 0.015 0.026 0.026 0.053 0.043 0.076 0.008 0.009 0.011 0.019 0.017 0.028l11.427 13.324c0.098 0.115 0.241 0.182 0.394 0.182s0.296-0.066 0.394-0.182l11.427-13.324c0.008-0.010 0.013-0.022 0.019-0.032 0.020-0.025 0.033-0.053 0.047-0.081 0.016-0.031 0.029-0.061 0.038-0.093 0.007-0.030 0.010-0.060 0.012-0.090 0.001-0.038 0.001-0.072-0.003-0.107zM9.43 8.34l1.603 4.498c-0.839-0.088-1.642-0.186-2.373-0.284-1.134-0.153-2.101-0.307-2.783-0.421-0.043-0.007-0.075-0.013-0.118-0.021l3.671-3.772zM26.511 12.129c-0.010 0.002-0.015 0.003-0.025 0.005-1.098 0.206-3.049 0.534-5.285 0.765l1.624-4.559 3.686 3.789zM16.506 14.204c1.062 0 2.132-0.048 3.169-0.125l-3.548 9.958-3.566-10.011c1.304 0.107 2.653 0.178 3.945 0.178zM12.774 13l3.519-4.722 3.213 4.771c-0.986 0.071-2 0.115-3 0.115-1.216 0.001-2.488-0.066-3.732-0.164zM20.291 12.352l-2.999-4.453h4.584l-1.585 4.453zM11.963 12.349l-1.586-4.45h4.901l-3.315 4.45zM11.419 13.924l3.393 9.521-8.775-10.232c1.254 0.205 3.206 0.497 5.382 0.711zM20.813 13.983c2.181-0.206 4.122-0.513 5.375-0.737l-8.743 10.195 3.368-9.458z"></path>
</symbol>
<symbol id="icon-profile" viewBox="0 0 32 32">
<title>profile</title>
<path class="path1" d="M12.86 27.82l-0.011-0.002h-0.002z"></path>
<path class="path2" d="M14.991 5.127c-6.314 0.001-11.448 5.134-11.449 11.45 0.001 4.982 3.201 9.216 7.65 10.789v0l0.092 0.033 0.006 0.001 0.007 0.003c0.208 0.071 0.417 0.136 0.631 0.195 0.17 0.048 0.337 0.090 0.501 0.128h-0.002c0.133 0.031 0.273 0.063 0.42 0.092h0.002c0.271 0.053 0.543 0.094 0.814 0.125v0l0.188 0.024 0.012 0.001 0.010 0.002c0.346 0.033 0.701 0.057 1.066 0.057h0.024l0.025 0.002 0.202-0.012v-0.001c0.3-0.005 0.599-0.019 0.896-0.045l0.010-0.001 0.194-0.023c2.12-0.222 4.046-0.973 5.594-2.23l0.030-0.025 0.064-0.066c2.705-2.094 4.465-5.365 4.465-9.048-0.002-6.317-5.135-11.45-11.452-11.451zM16.142 26.656l-0.176 0.021c-0.268 0.024-0.544 0.037-0.824 0.042h-0.016l-0.123 0.007-0.023-0.002-0.053 0.003c-0.304 0-0.611-0.020-0.926-0.051l-0.171-0.021h-0.003l-0.006-0.001c-0.244-0.028-0.488-0.065-0.728-0.112h-0.001c-0.116-0.021-0.24-0.051-0.367-0.080l-0.002-0.001c-0.152-0.035-0.299-0.071-0.439-0.112h-0.003l-0.002-0.001c-0.19-0.053-0.378-0.11-0.563-0.174v0l-0.077-0.028-0.002-0.001-0.006-0.001c-1.053-0.372-2.023-0.916-2.887-1.592 0.098-0.823 0.221-1.607 0.366-2.254 0.153-0.708 0.362-1.26 0.5-1.454 0.027-0.027 0.133-0.125 0.31-0.191v0c1.246-0.378 2.145-0.833 2.772-1.228 0.030 0.038 0.058 0.082 0.089 0.119 0.289 0.34 0.605 0.629 0.945 0.848 0.338 0.217 0.7 0.373 1.105 0.396l0.035 0.002 0.299-0.016 0.031-0.002 0.031-0.005c0.783-0.13 1.455-0.627 2.018-1.265 0.595 0.336 1.367 0.729 2.143 0.952v0c0.355 0.102 0.598 0.221 0.744 0.308l0.135 0.088c0.154 0.237 0.333 0.656 0.482 1.248 0.167 0.646 0.309 1.488 0.418 2.506 0 0.002 0 0.003 0 0.004-0.013 0.011-0.024 0.023-0.037 0.033l-0.039 0.029-0.049 0.051c-1.332 1.077-3 1.736-4.898 1.936h-0.002zM12.497 12.852c0-0.228 0.016-0.377 0.028-0.461l0.015-0.080 0.002-0.005 0.002-0.006c0.129-0.408 0.441-0.772 0.771-1.038 0.164-0.132 0.328-0.239 0.461-0.314 0.117-0.067 0.208-0.106 0.232-0.115 0.032-0.007 0.139-0.026 0.35-0.026 0.303 0 0.988 0.044 1.898 0.392v0c0.425 0.162 0.711 0.35 0.895 0.498 0.092 0.074 0.158 0.138 0.203 0.185l0.082 0.095 0.009 0.010 0.009 0.011c0.192 0.208 0.294 0.587 0.292 1.026 0.001 0.444-0.099 0.908-0.171 1.17l-0.001 0.004-0.001 0.005c-0.043 0.165-0.063 0.333-0.063 0.5 0 0.263 0.068 0.519 0.17 0.763-0.012 0.079-0.031 0.186-0.076 0.352l-0.012 0.042-0.004 0.040c-0.182 0.249-0.32 0.526-0.367 0.827h-0.001c-0.108 0.645-0.453 1.336-0.891 1.856-0.429 0.521-0.951 0.847-1.285 0.894l-0.155 0.008c-0.087-0.006-0.257-0.057-0.457-0.188-0.313-0.2-0.678-0.566-0.968-1.015-0.293-0.448-0.514-0.978-0.592-1.497h-0.003c-0.044-0.327-0.179-0.615-0.366-0.871l-0.006-0.026-0.002-0.011-0.025-0.115-0.004-0.021-0.006-0.021c-0.021-0.072-0.033-0.128-0.043-0.179 0.146-0.281 0.248-0.584 0.247-0.908 0-0.108-0.009-0.217-0.026-0.326v-0.001c-0.111-0.661-0.141-1.135-0.141-1.454zM12.479 15.881v0zM21.095 19.852v0 0zM22.345 23.53c-0.094-0.661-0.203-1.249-0.334-1.756-0.191-0.735-0.414-1.313-0.734-1.759-0.037-0.051-0.083-0.094-0.132-0.131l0.001-0.002-0.010-0.008c-0.003-0.002-0.006-0.004-0.009-0.006l-0.114-0.086c-0.213-0.151-0.627-0.396-1.267-0.579h0.001c-0.566-0.159-1.232-0.484-1.766-0.779 0.242-0.462 0.43-0.958 0.52-1.477l0.001-0.005 0.001-0.004c0.023-0.142 0.078-0.253 0.178-0.357l0.15-0.155 0.043-0.331c0.078-0.307 0.111-0.529 0.119-0.677l0.010-0.196-0.1-0.169c-0.061-0.102-0.094-0.224-0.094-0.35l0.023-0.179c0.088-0.333 0.212-0.882 0.213-1.501-0.002-0.595-0.115-1.292-0.604-1.866l0.002-0.001-0.013-0.016c-0.001-0.001-0.001-0.003-0.003-0.004v0l-0.129-0.148c-0.241-0.255-0.742-0.686-1.578-1.003v0c-1.079-0.413-1.93-0.479-2.361-0.478-0.216 0-0.381 0.015-0.502 0.033l-0.148 0.027-0.047 0.012-0.006 0.001-0.015 0.003-0.030 0.010c-0.136 0.047-0.281 0.115-0.475 0.223-0.553 0.321-1.438 0.956-1.819 2.063l-0.003-0.001c0 0.003-0.002 0.010-0.004 0.014 0 0.002-0.002 0.003-0.002 0.005v0c-0.041 0.122-0.11 0.401-0.111 0.952 0 0.402 0.039 0.946 0.158 1.67v0l0.010 0.115c0 0.151-0.049 0.296-0.14 0.417l-0.144 0.193 0.016 0.241c0.011 0.142 0.041 0.327 0.104 0.553v0l0.021 0.104h0.001l0.034 0.155 0.020 0.065 0.012 0.034 0.012 0.025 0.011 0.025 0.044 0.077 0.038 0.057 0.048 0.048c0.053 0.046 0.131 0.188 0.145 0.329v0.011l0.002 0.012c0.073 0.473 0.223 0.923 0.418 1.34-0.539 0.34-1.344 0.752-2.504 1.1l-0.022 0.007-0.022 0.009c-0.266 0.102-0.467 0.234-0.607 0.346l-0.168 0.148-0.050 0.051-0.018 0.019-0.006 0.008-0.016 0.018-0.018 0.024c-0.346 0.492-0.543 1.146-0.734 1.961-0.102 0.451-0.188 0.951-0.266 1.471-1.693-1.812-2.736-4.235-2.735-6.904 0.001-2.8 1.138-5.333 2.977-7.174 1.84-1.839 4.374-2.976 7.173-2.976 2.801 0 5.334 1.137 7.175 2.976 1.839 1.84 2.976 4.374 2.977 7.174 0 2.695-1.074 5.133-2.798 6.952z"></path>
<path class="path3" d="M11.932 27.6l-0.004-0.001-0.001-0.001z"></path>
</symbol>
<symbol id="icon-tile-view" viewBox="0 0 32 32">
<title>tile-view</title>
<path class="path1" d="M14.883 8.812c0-1.056-0.855-1.912-1.913-1.913h-5.84c-1.057 0-1.912 0.856-1.913 1.913v4.296c0 1.057 0.856 1.912 1.913 1.912h5.84c1.057-0.002 1.911-0.856 1.913-1.912v-4.296zM13.483 13.107c0 0.284-0.228 0.512-0.513 0.512h-5.84c-0.284 0-0.512-0.229-0.512-0.512v-4.295c0-0.283 0.229-0.512 0.512-0.512h5.84c0.284 0 0.512 0.229 0.513 0.512v4.295z"></path>
<path class="path2" d="M26.782 8.812c-0.001-1.056-0.855-1.912-1.913-1.913h-5.838c-1.058 0-1.914 0.856-1.914 1.913v4.296c0.002 1.057 0.857 1.91 1.914 1.912h5.838c1.057-0.002 1.911-0.856 1.913-1.912v-4.296zM25.382 13.107c0 0.284-0.228 0.512-0.513 0.512h-5.838c-0.286 0-0.514-0.229-0.514-0.512v-4.295c0-0.283 0.229-0.512 0.514-0.512h5.838c0.284 0 0.512 0.229 0.513 0.512v4.295z"></path>
<path class="path3" d="M12.97 16.979h-5.84c-1.056 0.002-1.911 0.856-1.913 1.913v4.295c0 1.057 0.855 1.913 1.913 1.914h5.84c1.058-0.001 1.911-0.857 1.913-1.914v-4.295c-0.002-1.056-0.856-1.911-1.913-1.913zM13.483 23.188c0 0.284-0.229 0.513-0.513 0.514h-5.84c-0.283-0.001-0.512-0.229-0.512-0.514v-4.295c0-0.285 0.229-0.513 0.512-0.513h5.84c0.285 0 0.513 0.228 0.513 0.513v4.295z"></path>
<path class="path4" d="M19.031 25.102h5.838c1.058-0.001 1.913-0.857 1.913-1.914v-4.295c-0.002-1.057-0.856-1.911-1.913-1.913h-5.838c-1.057 0.002-1.912 0.856-1.914 1.913v4.295c0 1.056 0.857 1.913 1.914 1.914zM25.382 18.893v4.295c-0.001 0.284-0.229 0.513-0.513 0.514h-5.838c-0.285-0.001-0.514-0.23-0.514-0.514v-4.295c0-0.285 0.228-0.513 0.514-0.513h5.838c0.285 0 0.513 0.227 0.513 0.513z"></path>
</symbol>
<symbol id="icon-list-view" viewBox="0 0 32 32">
<title>list-view</title>
<path class="path1" d="M5.548 8.091h20.902c0.441 0 0.801-0.359 0.801-0.8s-0.359-0.8-0.801-0.8h-20.902c-0.441 0-0.8 0.359-0.8 0.8s0.359 0.8 0.8 0.8z"></path>
<path class="path2" d="M26.45 15.201h-20.902c-0.441 0-0.8 0.359-0.8 0.8s0.359 0.8 0.8 0.8h20.902c0.441 0 0.801-0.359 0.801-0.8s-0.359-0.8-0.801-0.8z"></path>
<path class="path3" d="M26.45 23.909h-20.902c-0.441 0-0.8 0.358-0.8 0.8s0.359 0.801 0.8 0.801h20.902c0.441 0 0.801-0.359 0.801-0.801s-0.359-0.8-0.801-0.8z"></path>
</symbol>
<symbol id="icon-map-view" viewBox="0 0 32 32">
<title>map-view</title>
<path class="path1" d="M26.906 9.93l-7-5c-0.244-0.174-0.57-0.174-0.814 0l-6.592 4.709-6.593-4.709c-0.213-0.153-0.495-0.173-0.727-0.053-0.234 0.121-0.38 0.361-0.38 0.623v16c0 0.227 0.109 0.438 0.293 0.57l7 5c0.021 0.014 0.044 0.020 0.065 0.032 0.009 0.005 0.013 0.015 0.021 0.021 0.010 0.004 0.021 0.002 0.031 0.006 0.092 0.043 0.188 0.071 0.289 0.071 0.010 0 0.019-0.007 0.028-0.007 0.037-0.002 0.068-0.018 0.104-0.025 0.063-0.013 0.129-0.016 0.188-0.045 0.016-0.009 0.022-0.026 0.038-0.035 0.015-0.010 0.034-0.008 0.049-0.018l6.593-4.71 6.592 4.71c0.121 0.086 0.264 0.13 0.408 0.13 0.109 0 0.219-0.026 0.32-0.077 0.232-0.121 0.379-0.361 0.379-0.623v-16c0.001-0.226-0.108-0.438-0.292-0.57zM11.8 25.14l-5.6-4v-14.28l5.6 4v14.28zM18.799 21.14l-5.599 4v-14.28l5.599-4v14.28zM25.799 25.14l-5.6-4v-14.28l5.6 4v14.28z"></path>
</symbol>
<symbol id="icon-filter" viewBox="0 0 32 32">
<title>filter</title>
<path class="path1" d="M4.703 8.706h3.049c0.33 1.773 1.878 3.117 3.746 3.118 1.869-0.001 3.418-1.345 3.749-3.119h12.050c0.387 0 0.7-0.313 0.7-0.7s-0.313-0.7-0.7-0.7h-12.050c-0.331-1.772-1.88-3.115-3.749-3.116-1.868 0-3.416 1.343-3.746 3.116h-3.049c-0.387 0-0.7 0.313-0.7 0.7s0.313 0.701 0.7 0.701zM11.498 5.588c1.335 0.002 2.417 1.083 2.419 2.416-0.002 1.335-1.084 2.416-2.419 2.418-1.297-0.002-2.347-1.027-2.406-2.312 0.006-0.036 0.021-0.068 0.021-0.106s-0.016-0.070-0.021-0.106c0.059-1.282 1.109-2.307 2.406-2.31z"></path>
<path class="path2" d="M7.752 24.693c0.33 1.773 1.878 3.117 3.746 3.119 1.869-0.002 3.418-1.346 3.749-3.119h12.050c0.387 0 0.7-0.313 0.7-0.699s-0.313-0.701-0.7-0.701h-12.050c-0.331-1.772-1.88-3.116-3.749-3.117-1.868 0.001-3.416 1.345-3.746 3.117h-3.049c-0.387 0-0.7 0.314-0.7 0.701s0.313 0.699 0.7 0.699h3.049zM11.498 21.576c1.335 0.002 2.417 1.083 2.419 2.418-0.002 1.334-1.084 2.415-2.419 2.418-1.297-0.003-2.347-1.027-2.406-2.313 0.006-0.036 0.021-0.068 0.021-0.105 0-0.038-0.016-0.070-0.021-0.106 0.059-1.284 1.109-2.31 2.406-2.312z"></path>
<path class="path3" d="M4.703 16.702l12.053-0.001c0.329 1.772 1.877 3.117 3.746 3.118 1.868-0.002 3.417-1.345 3.747-3.118h3.048c0.387 0 0.7-0.313 0.7-0.7s-0.313-0.7-0.7-0.7h-3.048c-0.33-1.773-1.878-3.119-3.747-3.12-1.869 0.001-3.417 1.347-3.746 3.12h-12.053c-0.387 0-0.7 0.313-0.7 0.7s0.313 0.701 0.7 0.701zM20.502 13.581c1.297 0.002 2.348 1.030 2.406 2.314-0.006 0.036-0.021 0.068-0.021 0.106s0.016 0.070 0.021 0.106c-0.059 1.284-1.108 2.309-2.406 2.312-1.334-0.003-2.414-1.083-2.417-2.417 0.003-1.335 1.084-2.419 2.417-2.421z"></path>
</symbol>
<symbol id="icon-email-item" viewBox="0 0 32 32">
<title>email-item</title>
<path class="path1" d="M6.991 24.75h18.018c1.563 0 2.828-1.266 2.828-2.829v-11.841c0-1.563-1.267-2.829-2.828-2.83h-18.018c-1.563 0-2.829 1.267-2.829 2.83v11.841c0.001 1.562 1.266 2.829 2.829 2.829zM5.362 21.921v-11.841c0.001-0.338 0.104-0.651 0.279-0.911l7.037 7.038-7.222 6.24c-0.056-0.167-0.093-0.342-0.094-0.526zM6.991 23.551c-0.273-0.001-0.527-0.074-0.753-0.193l7.291-6.301 1.151 1.15c0.405 0.406 0.942 0.611 1.475 0.61 0.531 0.001 1.068-0.204 1.475-0.61l1.261-1.26c0.014 0.015 0.021 0.034 0.036 0.047l7.131 6.161c-0.283 0.242-0.646 0.395-1.049 0.396h-18.018zM26.468 9.371c0.104 0.215 0.168 0.454 0.169 0.709v11.841c0 0.047-0.011 0.091-0.015 0.137l-6.89-5.953 6.736-6.734zM25.009 8.45c0.202 0 0.394 0.042 0.572 0.11l-8.8 8.798c-0.174 0.173-0.397 0.259-0.626 0.259s-0.453-0.086-0.627-0.259v0l-8.873-8.872c0.109-0.023 0.221-0.036 0.336-0.036h18.018z"></path>
</symbol>
<symbol id="icon-share" viewBox="0 0 32 32">
<title>share</title>
<path class="path1" d="M8.997 19.852c1.262 0 2.373-0.613 3.082-1.546l7.212 3.645c-0.103 0.349-0.175 0.71-0.175 1.093 0 2.146 1.74 3.885 3.887 3.887 2.146-0.002 3.885-1.74 3.887-3.887-0.002-2.146-1.74-3.889-3.887-3.891-1.264 0.001-2.373 0.613-3.083 1.547l-7.212-3.645c0.104-0.348 0.176-0.708 0.176-1.089 0-0.377-0.071-0.734-0.172-1.079l7.197-3.597c0.709 0.941 1.824 1.559 3.094 1.56 2.146-0.001 3.885-1.744 3.887-3.888-0.002-2.146-1.74-3.889-3.887-3.891-2.147 0.001-3.887 1.744-3.887 3.891 0 0.375 0.070 0.731 0.17 1.074l-7.197 3.597c-0.709-0.94-1.824-1.558-3.092-1.559-2.147 0.001-3.887 1.744-3.887 3.891 0.001 2.144 1.741 3.886 3.887 3.887zM23.003 20.553c1.37 0.003 2.483 1.117 2.486 2.49-0.003 1.372-1.115 2.483-2.486 2.486-1.372-0.003-2.484-1.114-2.486-2.486 0.002-1.373 1.115-2.487 2.486-2.49zM23.003 6.471c1.37 0.002 2.483 1.117 2.486 2.49-0.003 1.37-1.116 2.485-2.486 2.487-1.371-0.002-2.484-1.118-2.486-2.487 0.002-1.373 1.115-2.487 2.486-2.49zM8.997 13.474c1.37 0.002 2.483 1.117 2.486 2.491-0.003 1.369-1.115 2.484-2.486 2.486-1.371-0.002-2.484-1.117-2.486-2.486 0.002-1.374 1.115-2.488 2.486-2.491z"></path>
</symbol>
<symbol id="icon-print" viewBox="0 0 32 32">
<title>print</title>
<path class="path1" d="M25.322 9.186h-1.716l-0.016-1.48c-0.001-0.755-0.615-1.361-1.366-1.363h-11.561c-0.681 0.002-1.23 0.553-1.231 1.231l0.017 1.611h-2.771c-1.471 0.003-2.66 1.194-2.664 2.663v5.888c0.004 1.469 1.193 2.661 2.664 2.664h2.771v3.345c0 0.862 0.699 1.562 1.562 1.562h11.035c0.861 0 1.561-0.699 1.561-1.562v-3.345h1.717c1.471-0.003 2.661-1.195 2.664-2.664v-5.888c-0.006-1.467-1.195-2.66-2.666-2.662zM10.832 7.743h11.357l0.017 1.401h-11.357l-0.017-1.401zM22.205 23.745l-0.16 0.161h-11.035l-0.161-0.161v-6.289h11.356v6.289zM26.586 17.736c0 0.348-0.141 0.66-0.371 0.892-0.233 0.231-0.545 0.372-0.893 0.372h-1.717v-2.143c0-0.187-0.073-0.364-0.206-0.496l-0.103-0.102c-0.13-0.13-0.309-0.204-0.493-0.204h-12.655c-0.185 0-0.365 0.075-0.495 0.205-0.13 0.131-0.205 0.311-0.205 0.495v2.245h-2.77c-0.348 0-0.66-0.141-0.893-0.372-0.23-0.231-0.371-0.545-0.371-0.892v-5.888c0-0.347 0.141-0.659 0.372-0.892 0.231-0.231 0.544-0.371 0.892-0.371h18.645c0.348 0 0.66 0.14 0.893 0.371 0.23 0.232 0.371 0.545 0.371 0.892v5.888z"></path>
<path class="path2" d="M10.003 13.535c0 0.774-0.628 1.402-1.402 1.402s-1.402-0.628-1.402-1.402c0-0.774 0.628-1.402 1.402-1.402s1.402 0.628 1.402 1.402z"></path>
</symbol>
<symbol id="icon-favorite-active" viewBox="0 0 32 32">
<title>favorite-active</title>
<path class="path1" d="M4.491 13.701c0.504 2.132 1.684 4.016 3.266 5.448l-0.001-0.001 7.721 7.007c0.266 0.242 0.668 0.243 0.937 0.004l7.858-7.009c1.582-1.433 2.76-3.316 3.263-5.449v0c0.194-0.817 0.243-1.458 0.243-1.895 0-0.396-0.041-0.624-0.049-0.665h-0.002c-0.17-1.747-0.863-3.361-1.975-4.562-1.123-1.217-2.695-2.002-4.498-2-2.202 0.001-4.129 1.142-5.3 2.859-1.132-1.707-2.976-2.862-5.181-2.859-1.802-0.001-3.376 0.784-4.498 2-1.112 1.201-1.805 2.816-1.977 4.564h-0.002c-0.008 0.041-0.047 0.266-0.047 0.659 0 0.435 0.049 1.077 0.242 1.899v0z"></path>
</symbol>
<symbol id="icon-facebook" viewBox="0 0 32 32">
<title>facebook</title>
<path class="path1" d="M16 4.301c-6.461 0-11.7 5.238-11.7 11.7s5.239 11.699 11.7 11.699c6.464 0 11.7-5.237 11.7-11.699s-5.236-11.7-11.7-11.7zM18.507 16.004h-1.639c0 2.62 0 5.847 0 5.847h-2.43c0 0 0-3.193 0-5.847h-1.155v-2.064h1.155v-1.337c0-0.957 0.454-2.452 2.452-2.452l1.8 0.007v2.006c0 0-1.094 0-1.307 0-0.214 0-0.516 0.105-0.516 0.563v1.214h1.851l-0.211 2.063z"></path>
</symbol>
<symbol id="icon-twitter" viewBox="0 0 32 32">
<title>twitter</title>
<path class="path1" d="M16 4.3c-6.463 0-11.701 5.238-11.701 11.7s5.238 11.7 11.701 11.7c6.461 0 11.699-5.238 11.699-11.7s-5.238-11.7-11.699-11.7zM20.652 13.614c0.004 0.103 0.006 0.206 0.006 0.311 0 3.172-2.414 6.829-6.828 6.829-1.357 0-2.617-0.396-3.68-1.078 0.188 0.021 0.379 0.033 0.572 0.033 1.125 0 2.158-0.383 2.98-1.027-1.051-0.020-1.938-0.714-2.242-1.667 0.146 0.027 0.297 0.043 0.451 0.043 0.219 0 0.432-0.029 0.631-0.084-1.096-0.222-1.926-1.19-1.926-2.354 0-0.010 0-0.020 0-0.030 0.326 0.181 0.695 0.287 1.090 0.3-0.643-0.43-1.068-1.165-1.068-1.998 0-0.439 0.119-0.853 0.326-1.206 1.182 1.452 2.951 2.407 4.947 2.507-0.041-0.175-0.064-0.357-0.064-0.546 0-1.326 1.078-2.399 2.402-2.399 0.689 0 1.314 0.291 1.752 0.756 0.547-0.106 1.059-0.307 1.523-0.582-0.178 0.562-0.559 1.031-1.055 1.328 0.484-0.057 0.949-0.188 1.379-0.377-0.321 0.481-0.727 0.903-1.196 1.241z"></path>
</symbol>
<symbol id="icon-googleplus" viewBox="0 0 32 32">
<title>googleplus</title>
<path class="path1" d="M13.623 10.711c-0.929-0.027-1.554 0.907-1.393 2.127s1.045 2.073 1.975 2.103c0.928 0.026 1.462-0.759 1.303-1.98-0.16-1.22-0.955-2.222-1.885-2.25z"></path>
<path class="path2" d="M14.013 17.438c-1.385-0.016-2.558 0.874-2.558 1.906 0 1.054 1 1.93 2.386 1.93 1.947 0 2.625-0.822 2.625-1.876 0-0.127-0.016-0.251-0.044-0.371-0.152-0.597-0.759-0.923-1.511-1.445-0.273-0.090-0.574-0.142-0.898-0.144z"></path>
<path class="path3" d="M16 4.3c-6.462 0-11.7 5.238-11.7 11.7s5.238 11.699 11.7 11.699 11.7-5.237 11.7-11.699-5.238-11.7-11.7-11.7zM16.893 12.909c0 0.763-0.42 1.377-1.019 1.842-0.582 0.456-0.691 0.646-0.691 1.033 0 0.33 0.695 0.821 1.016 1.061 1.113 0.836 1.339 1.361 1.339 2.405 0 1.304-1.405 2.6-3.69 2.6-2.003 0-3.694-0.814-3.694-2.118 0-1.322 1.403-2.702 3.407-2.702 0.219 0 0.418-0.006 0.625-0.006-0.274-0.266-0.495-0.495-0.495-0.898 0-0.239 0.076-0.468 0.183-0.673-0.109 0.007-0.22 0.015-0.334 0.015-1.646 0-2.604-1.157-2.604-2.606 0-1.42 1.457-2.711 3.208-2.711 0.902 0 3.449 0 3.449 0l-0.773 0.809h-0.905c0.64 0.365 0.978 1.117 0.978 1.949zM21.845 12.696h-1.592v1.59h-0.795v-1.59h-1.589v-0.796h1.589v-1.59h0.795v1.59h1.592v0.796z"></path>
</symbol>
<symbol id="icon-youtube" viewBox="0 0 32 32">
<title>youtube</title>
<path class="path1" d="M15.896 14.218c0.091 0 0.162-0.024 0.214-0.074 0.054-0.051 0.082-0.12 0.082-0.207v-1.777c0-0.071-0.028-0.129-0.082-0.173s-0.125-0.065-0.214-0.065c-0.080 0-0.146 0.021-0.198 0.065s-0.076 0.102-0.076 0.173v1.777c0 0.089 0.024 0.157 0.071 0.207 0.046 0.050 0.115 0.074 0.203 0.074z"></path>
<path class="path2" d="M17.366 17.499c-0.091 0-0.183 0.022-0.273 0.070-0.087 0.047-0.173 0.117-0.253 0.206v-1.293h-0.6v4.015h0.6v-0.227c0.076 0.092 0.161 0.157 0.253 0.199 0.091 0.045 0.193 0.064 0.31 0.064 0.175 0 0.31-0.055 0.403-0.167 0.092-0.112 0.138-0.272 0.138-0.481v-1.644c0-0.243-0.049-0.427-0.147-0.554-0.099-0.124-0.242-0.188-0.431-0.188zM17.334 19.804c0 0.095-0.019 0.162-0.051 0.204-0.033 0.042-0.087 0.064-0.16 0.064-0.049 0-0.097-0.012-0.143-0.033-0.046-0.020-0.094-0.058-0.141-0.104v-1.845c0.040-0.042 0.081-0.072 0.122-0.092 0.042-0.020 0.083-0.028 0.125-0.028 0.079 0 0.143 0.025 0.186 0.076 0.041 0.052 0.062 0.127 0.062 0.229v1.529z"></path>
<path class="path3" d="M11.799 17.066h0.69v3.431h0.666v-3.431h0.691v-0.584h-2.047z"></path>
<path class="path4" d="M15.203 19.784c-0.055 0.064-0.115 0.117-0.183 0.16-0.066 0.042-0.122 0.062-0.165 0.062-0.055 0-0.096-0.014-0.122-0.047-0.022-0.031-0.035-0.081-0.035-0.152v-2.271h-0.593v2.477c0 0.177 0.036 0.307 0.105 0.396s0.17 0.133 0.31 0.133c0.109 0 0.225-0.029 0.343-0.095 0.118-0.063 0.232-0.154 0.34-0.273v0.325h0.593v-2.962h-0.593v2.247z"></path>
<path class="path5" d="M16.001 4.3c-6.462 0-11.7 5.238-11.7 11.7s5.238 11.7 11.7 11.7c6.46 0 11.699-5.238 11.699-11.7s-5.239-11.7-11.699-11.7zM17.411 11.438h0.664v2.5c0 0.078 0.017 0.133 0.044 0.167 0.027 0.036 0.072 0.054 0.136 0.054 0.049 0 0.11-0.023 0.186-0.068 0.074-0.048 0.143-0.104 0.206-0.176v-2.477h0.668v3.262h-0.668v-0.361c-0.123 0.133-0.252 0.235-0.384 0.304-0.135 0.068-0.263 0.106-0.387 0.106-0.155 0-0.27-0.051-0.35-0.148-0.077-0.097-0.115-0.241-0.115-0.436v-2.727zM14.936 12.184c0-0.253 0.090-0.454 0.268-0.604 0.181-0.149 0.422-0.224 0.724-0.224 0.277 0 0.503 0.079 0.68 0.235 0.176 0.157 0.263 0.363 0.263 0.61v1.686c0 0.279-0.085 0.497-0.257 0.656-0.175 0.159-0.411 0.239-0.715 0.239-0.29 0-0.525-0.083-0.699-0.247s-0.263-0.385-0.263-0.661v-1.69zM13.121 10.278l0.486 1.769h0.047l0.466-1.769h0.761l-0.873 2.588v1.834h-0.749v-1.752l-0.895-2.67h0.757zM21.851 19.585c0 1.18-0.96 2.138-2.14 2.138h-7.425c-1.181 0-2.136-0.958-2.136-2.138v-1.719c0-1.18 0.955-2.138 2.136-2.138h7.425c1.18 0 2.14 0.958 2.14 2.138v1.719z"></path>
<path class="path6" d="M19.154 17.462c-0.266 0-0.48 0.080-0.647 0.241-0.169 0.161-0.252 0.374-0.252 0.629v1.33c0 0.285 0.076 0.51 0.229 0.671 0.151 0.164 0.361 0.244 0.625 0.244 0.297 0 0.518-0.075 0.664-0.229 0.151-0.154 0.225-0.383 0.225-0.687v-0.151h-0.609v0.135c0 0.174-0.021 0.287-0.059 0.339-0.038 0.051-0.106 0.077-0.205 0.077-0.096 0-0.163-0.030-0.203-0.090-0.038-0.063-0.057-0.171-0.057-0.326v-0.558h1.133v-0.755c0-0.281-0.072-0.495-0.219-0.646-0.145-0.15-0.356-0.224-0.625-0.224zM19.388 18.626h-0.523v-0.298c0-0.124 0.021-0.215 0.062-0.266 0.040-0.057 0.109-0.084 0.203-0.084 0.089 0 0.157 0.027 0.196 0.084 0.041 0.051 0.063 0.142 0.063 0.266v0.298z"></path>
</symbol>
<symbol id="icon-wechat" viewBox="0 0 32 32">
<title>wechat</title>
<path class="path1" d="M15.891 13.935c0.338-0.004 0.595-0.264 0.591-0.601-0.001-0.33-0.273-0.591-0.607-0.585-0.326 0.005-0.603 0.284-0.597 0.602 0.006 0.331 0.277 0.587 0.613 0.584z"></path>
<path class="path2" d="M16.998 16.552c-0.278-0.002-0.511 0.236-0.5 0.512 0.008 0.264 0.229 0.475 0.495 0.475 0.267 0.002 0.487-0.208 0.499-0.472 0.010-0.28-0.215-0.514-0.494-0.515z"></path>
<path class="path3" d="M12.103 12.749c-0.334-0.010-0.609 0.245-0.618 0.574-0.009 0.333 0.245 0.601 0.581 0.609 0.334 0.008 0.613-0.247 0.626-0.571 0.011-0.317-0.263-0.602-0.589-0.612z"></path>
<path class="path4" d="M20.075 16.553c-0.259-0.001-0.479 0.21-0.491 0.473-0.012 0.28 0.207 0.51 0.483 0.511 0.27 0 0.48-0.202 0.49-0.469 0.012-0.281-0.206-0.514-0.482-0.515z"></path>
<path class="path5" d="M16 4.3c-6.462 0-11.7 5.238-11.7 11.7s5.238 11.7 11.7 11.7 11.7-5.238 11.7-11.7-5.238-11.7-11.7-11.7zM12.653 18.54c-0.163-0.014-0.357 0.006-0.497 0.085-0.46 0.26-0.901 0.553-1.427 0.881 0.096-0.435 0.159-0.815 0.269-1.182 0.081-0.269 0.043-0.419-0.205-0.594-1.591-1.123-2.263-2.806-1.76-4.537 0.465-1.602 1.605-2.574 3.156-3.080 2.114-0.691 4.494 0.014 5.778 1.693 0.466 0.607 0.752 1.287 0.826 2.094-1.325 0.068-2.479 0.471-3.416 1.38-0.944 0.917-1.377 2.041-1.258 3.435-0.518-0.063-0.989-0.134-1.466-0.175zM21.984 20.716c-0.408 0.362-0.556 0.661-0.293 1.14 0.048 0.088 0.054 0.199 0.083 0.312-0.421-0.188-0.807-0.467-1.217-0.51-0.408-0.044-0.838 0.192-1.266 0.236-1.301 0.133-2.468-0.23-3.429-1.119-1.828-1.691-1.568-4.286 0.548-5.672 1.882-1.232 4.64-0.821 5.965 0.888 1.158 1.491 1.022 3.472-0.391 4.725z"></path>
</symbol>
<symbol id="icon-vk" viewBox="0 0 32 32">
<title>vk</title>
<path class="path1" d="M16 4.3c-6.462 0-11.7 5.238-11.7 11.7s5.238 11.7 11.7 11.7 11.7-5.238 11.7-11.7-5.238-11.7-11.7-11.7zM20.345 17.123c0.082 0.1 0.272 0.294 0.576 0.584h0.008l0.008 0.007 0.006 0.007 0.014 0.014c0.668 0.621 1.123 1.145 1.358 1.572 0.016 0.022 0.028 0.053 0.046 0.088 0.016 0.035 0.033 0.099 0.050 0.188 0.018 0.090 0.017 0.171-0.003 0.241-0.021 0.072-0.077 0.137-0.179 0.195-0.099 0.060-0.24 0.090-0.418 0.090l-1.819 0.028c-0.114 0.023-0.248 0.012-0.398-0.036-0.152-0.048-0.276-0.099-0.37-0.156l-0.143-0.086c-0.143-0.099-0.308-0.251-0.498-0.454-0.188-0.204-0.35-0.387-0.486-0.551s-0.28-0.301-0.433-0.413c-0.154-0.11-0.289-0.148-0.401-0.109-0.015 0.005-0.034 0.013-0.057 0.025-0.024 0.012-0.064 0.046-0.122 0.103-0.055 0.056-0.107 0.127-0.152 0.209s-0.085 0.207-0.122 0.371c-0.036 0.163-0.049 0.347-0.046 0.55 0 0.070-0.009 0.136-0.023 0.195-0.018 0.060-0.036 0.104-0.054 0.132l-0.029 0.034c-0.085 0.092-0.211 0.144-0.377 0.157h-0.817c-0.335 0.019-0.681-0.021-1.037-0.117-0.355-0.097-0.667-0.223-0.934-0.376-0.269-0.154-0.513-0.312-0.733-0.47-0.221-0.159-0.386-0.294-0.5-0.408l-0.178-0.171c-0.049-0.047-0.113-0.117-0.195-0.214-0.083-0.094-0.254-0.31-0.508-0.646-0.257-0.338-0.508-0.695-0.755-1.074-0.246-0.379-0.538-0.879-0.87-1.499-0.333-0.621-0.643-1.267-0.927-1.935-0.029-0.074-0.045-0.139-0.045-0.191s0.008-0.091 0.021-0.114l0.029-0.042c0.071-0.090 0.207-0.136 0.405-0.136l1.947-0.014c0.057 0.010 0.11 0.025 0.164 0.046 0.052 0.022 0.090 0.042 0.114 0.061l0.034 0.021c0.077 0.053 0.133 0.129 0.171 0.229 0.096 0.236 0.205 0.481 0.328 0.734 0.121 0.254 0.22 0.447 0.29 0.58l0.113 0.205c0.139 0.285 0.271 0.531 0.397 0.74 0.13 0.209 0.244 0.371 0.346 0.486s0.201 0.207 0.294 0.273c0.097 0.066 0.177 0.1 0.242 0.1 0.067 0 0.131-0.012 0.192-0.035 0.011-0.004 0.022-0.017 0.036-0.035 0.015-0.020 0.042-0.071 0.084-0.156 0.045-0.086 0.075-0.197 0.098-0.335 0.021-0.138 0.044-0.328 0.066-0.575 0.024-0.246 0.024-0.542 0-0.889-0.010-0.189-0.030-0.362-0.063-0.519s-0.067-0.266-0.101-0.326l-0.042-0.086c-0.119-0.161-0.319-0.263-0.604-0.306-0.063-0.010-0.049-0.065 0.036-0.171 0.080-0.089 0.169-0.161 0.269-0.212 0.251-0.124 0.819-0.182 1.699-0.172 0.389 0.005 0.709 0.035 0.96 0.093 0.096 0.023 0.173 0.055 0.237 0.096s0.112 0.098 0.146 0.171 0.057 0.149 0.074 0.227c0.017 0.079 0.025 0.187 0.025 0.323 0 0.139-0.002 0.269-0.007 0.392s-0.013 0.291-0.019 0.502c-0.006 0.21-0.011 0.405-0.011 0.586 0 0.052-0.002 0.151-0.007 0.298s-0.006 0.261-0.002 0.342c0.001 0.080 0.009 0.177 0.023 0.288s0.041 0.203 0.081 0.276 0.095 0.132 0.16 0.174c0.040 0.011 0.079 0.020 0.121 0.030 0.043 0.009 0.104-0.017 0.186-0.080 0.081-0.061 0.17-0.143 0.269-0.244 0.1-0.103 0.224-0.261 0.371-0.476 0.146-0.217 0.307-0.472 0.482-0.766 0.285-0.493 0.538-1.025 0.76-1.598 0.020-0.048 0.045-0.090 0.073-0.125s0.053-0.062 0.078-0.074l0.028-0.021 0.034-0.019c0 0 0.031-0.007 0.093-0.021 0.061-0.014 0.109-0.016 0.142-0.004l2.048-0.014c0.185-0.023 0.337-0.018 0.453 0.018 0.12 0.036 0.193 0.074 0.222 0.117l0.043 0.071c0.109 0.303-0.246 1-1.066 2.089-0.114 0.152-0.269 0.354-0.462 0.604-0.368 0.474-0.583 0.785-0.641 0.931-0.076 0.196-0.041 0.389 0.104 0.578z"></path>
</symbol>
<symbol id="icon-taringa" viewBox="0 0 32 32">
<title>taringa</title>
<path class="path1" d="M15.999 4.3c-6.462 0-11.699 5.238-11.699 11.7s5.237 11.7 11.699 11.7c6.461 0 11.7-5.238 11.7-11.7s-5.239-11.7-11.7-11.7zM14.737 13.599l-0.034 6.575h-1.857l0.036-6.575h-2.727l-0.035-1.937h7.301l0.036 1.937h-2.72zM21.121 20.174h-2.276v-1.843h2.276v1.843zM20.807 17.901h-1.648l-0.313-6.239h2.276l-0.315 6.239z"></path>
</symbol>
<symbol id="icon-pinterest" viewBox="0 0 32 32">
<title>pinterest</title>
<path class="path1" d="M16 3.85c-6.711 0-12.15 5.441-12.15 12.15 0 6.708 5.439 12.15 12.15 12.15 6.709 0 12.15-5.441 12.15-12.15s-5.441-12.15-12.15-12.15v0zM17.115 19.678c-0.895 0-1.741-0.496-2.033-1.057 0 0-0.479 1.953-0.588 2.336-0.167 0.635-0.501 1.271-0.809 1.779-0.442 0.57-0.949 0.145-1.008-0.379-0.022-0.582 0-1.271 0.146-1.902 0.161-0.686 1.066-4.627 1.066-4.627s-0.264-0.545-0.264-1.344c0-1.262 0.718-2.201 1.607-2.201 0.755 0 1.122 0.583 1.122 1.279 0 0.777-0.484 1.935-0.735 3.015-0.209 0.901 0.444 1.634 1.313 1.634 1.574 0 2.637-2.071 2.637-4.519 0-1.86-1.225-3.252-3.463-3.252-2.524 0-4.094 1.92-4.094 4.067 0 0.738 0.209 1.262 0.545 1.667 0.156 0.183 0.178 0.258 0.123 0.473-0.042 0.158-0.134 0.535-0.173 0.68-0.054 0.217-0.227 0.291-0.414 0.211-1.165-0.48-1.705-1.78-1.705-3.242 0-2.416 1.996-5.305 5.95-5.305 3.176 0 5.264 2.345 5.264 4.863 0.005 3.334-1.811 5.824-4.487 5.824v0z"></path>
</symbol>
<symbol id="icon-instagram" viewBox="0 0 32 32">
<title>instagram</title>
<path class="path1" d="M15.999 18.432c1.34 0 2.434-1.090 2.434-2.433 0-0.529-0.174-1.018-0.459-1.418-0.443-0.611-1.162-1.013-1.975-1.013-0.81 0-1.53 0.399-1.971 1.013-0.289 0.4-0.459 0.889-0.461 1.418 0 1.343 1.092 2.433 2.432 2.433v0z"></path>
<path class="path2" d="M21.312 13.023v-2.342h-0.307l-2.037 0.007 0.010 2.342 2.334-0.007z"></path>
<path class="path3" d="M15.999 3.85c-6.698 0-12.149 5.451-12.149 12.149 0 6.7 5.451 12.151 12.149 12.151 6.699 0 12.15-5.451 12.15-12.151 0-6.698-5.451-12.149-12.15-12.149v0zM22.909 14.581v5.659c0 1.473-1.197 2.67-2.67 2.67h-8.479c-1.473 0-2.67-1.197-2.67-2.67v-8.479c0-1.474 1.197-2.671 2.67-2.671h8.479c1.473 0 2.67 1.197 2.67 2.671v2.82z"></path>
<path class="path4" d="M19.78 15.999c0 2.083-1.695 3.78-3.781 3.78-2.083 0-3.778-1.697-3.778-3.78 0-0.5 0.101-0.98 0.277-1.418h-2.062v5.659c0 0.73 0.592 1.322 1.324 1.322h8.479c0.73 0 1.322-0.592 1.322-1.322v-5.659h-2.062c0.178 0.438 0.281 0.918 0.281 1.418v0z"></path>
</symbol>
<symbol id="icon-weibo" viewBox="0 0 32 32">
<title>weibo</title>
<path class="path1" d="M16.151 3.701c-6.71 0-12.151 5.44-12.151 12.15 0 6.711 5.441 12.149 12.151 12.149s12.15-5.438 12.15-12.149c0-6.71-5.44-12.15-12.15-12.15v0zM14.772 22.787c-3.554 0-7.186-1.723-7.186-4.555 0-1.48 0.938-3.192 2.554-4.808 2.158-2.157 4.673-3.139 5.619-2.192 0.419 0.416 0.458 1.138 0.19 2.001-0.141 0.434 0.408 0.193 0.408 0.194 1.742-0.731 3.265-0.773 3.82 0.022 0.295 0.422 0.268 1.016-0.006 1.705-0.125 0.317 0.039 0.366 0.281 0.438 0.982 0.306 2.076 1.042 2.076 2.34 0.001 2.15-3.098 4.855-7.756 4.855v0zM21.205 13.781c0.115-0.354 0.043-0.758-0.227-1.056-0.268-0.296-0.662-0.409-1.027-0.331v-0.001c-0.303 0.066-0.604-0.129-0.668-0.434-0.066-0.304 0.127-0.604 0.434-0.669 0.746-0.158 1.555 0.073 2.102 0.68 0.549 0.606 0.693 1.433 0.461 2.159-0.096 0.297-0.414 0.458-0.711 0.364-0.298-0.096-0.46-0.415-0.364-0.712v0zM24.494 14.845c0 0 0 0.001 0 0.002-0.111 0.344-0.48 0.532-0.826 0.421s-0.533-0.48-0.422-0.825v-0.001c0.342-1.061 0.125-2.268-0.674-3.152-0.801-0.887-1.979-1.225-3.068-0.993-0.354 0.075-0.703-0.15-0.779-0.505s0.15-0.703 0.504-0.778h0.002c1.531-0.326 3.189 0.149 4.314 1.397 1.127 1.245 1.43 2.943 0.949 4.434v0z"></path>
<path class="path2" d="M14.799 17.976c-0.168-0.067-0.378 0.015-0.478 0.181-0.097 0.166-0.043 0.355 0.126 0.425 0.172 0.071 0.391-0.011 0.49-0.181 0.096-0.171 0.034-0.362-0.138-0.425v0z"></path>
<path class="path3" d="M14.115 15.032c-2.834 0.281-4.985 2.016-4.801 3.876 0.185 1.863 2.632 3.145 5.468 2.864 2.835-0.28 4.984-2.017 4.8-3.878-0.186-1.861-2.631-3.143-5.467-2.862v0zM16.604 19.422c-0.58 1.309-2.243 2.006-3.656 1.551-1.362-0.439-1.94-1.785-1.342-2.998 0.585-1.19 2.11-1.862 3.458-1.511 1.398 0.36 2.11 1.679 1.54 2.958v0z"></path>
<path class="path4" d="M13.718 18.424c-0.439-0.183-1.006 0.006-1.277 0.431-0.275 0.427-0.146 0.935 0.291 1.134 0.441 0.202 1.029 0.009 1.304-0.428 0.269-0.442 0.126-0.948-0.318-1.137v0z"></path>
</symbol>
<symbol id="icon-feat-drying-time" viewBox="0 0 32 32">
<title>feat-drying-time</title>
<path class="path1" d="M5.753 21.51v0c0.61 1.166 1.415 2.223 2.37 3.119 0.924 0.867 1.985 1.582 3.135 2.104 0.96 0.437 1.978 0.738 3.016 0.896v0c0.389 0.060 0.78 0.098 1.171 0.117h-0.002c0.178 0.008 0.353 0.012 0.525 0.013h0.008l0.211-0.002 0.005-0.001c0.198-0.002 0.396-0.011 0.595-0.024 0.363-0.024 0.729-0.065 1.093-0.127h-0.002c1.037-0.171 2.047-0.487 2.997-0.933h0.002c1.163-0.549 2.232-1.292 3.156-2.191 0.939-0.914 1.726-1.988 2.316-3.166 0.506-1.010 0.864-2.092 1.064-3.203 0.124-0.698 0.187-1.405 0.187-2.112 0-0.562-0.039-1.125-0.118-1.681-0.169-1.195-0.521-2.359-1.042-3.446v0c-0.61-1.273-1.447-2.429-2.46-3.403-1.051-1.010-2.285-1.817-3.628-2.369h-0.001c-0.729-0.299-1.489-0.523-2.266-0.666h0.001c-0.69-0.128-1.39-0.191-2.090-0.191h-0.115c-0.732 0.009-1.467 0.087-2.187 0.235h0.002c-0.772 0.157-1.526 0.396-2.247 0.708h-0.001c-1.332 0.578-2.549 1.408-3.579 2.434h-0.001c-0.978 0.977-1.785 2.126-2.37 3.388-0.509 1.095-0.847 2.268-1.001 3.469-0.064 0.505-0.098 1.015-0.098 1.525 0 0.783 0.077 1.565 0.229 2.334v0.001c0.222 1.103 0.601 2.176 1.125 3.172zM5.886 14.655v0c0.136-1.059 0.435-2.095 0.882-3.058l0.001-0.001c0.513-1.109 1.228-2.125 2.089-2.986v0c0.906-0.903 1.979-1.635 3.147-2.141h-0.001c0.635-0.274 1.297-0.484 1.972-0.621h0.001c0.631-0.13 1.276-0.199 1.921-0.207h-0.001l0.1-0.001c0.615 0 1.229 0.056 1.835 0.168v0c0.68 0.125 1.348 0.322 1.989 0.585h-0.001c1.178 0.484 2.266 1.195 3.189 2.083 0.892 0.857 1.631 1.878 2.168 3v0c0.459 0.957 0.77 1.985 0.919 3.038 0.069 0.492 0.104 0.989 0.104 1.486 0 0.625-0.056 1.25-0.165 1.865-0.177 0.979-0.493 1.935-0.938 2.823-0.52 1.037-1.214 1.984-2.041 2.79-0.813 0.791-1.756 1.446-2.777 1.927h0.001c-0.835 0.393-1.723 0.67-2.63 0.818l-0.002 0.001c-0.315 0.054-0.635 0.089-0.957 0.111-0.174 0.012-0.348 0.019-0.521 0.022l0.005-0.001-0.205 0.002c-0.154-0.001-0.306-0.003-0.455-0.011h-0.002c-0.344-0.018-0.688-0.051-1.027-0.103h-0.001c-0.91-0.139-1.805-0.403-2.646-0.786-1.009-0.458-1.944-1.086-2.758-1.851h-0.001c-0.84-0.787-1.55-1.721-2.088-2.748v0c-0.461-0.877-0.796-1.824-0.99-2.798v0.001c-0.135-0.677-0.202-1.37-0.202-2.061 0-0.45 0.028-0.9 0.086-1.346z"></path>
<path class="path2" d="M21.554 17.504v0h-0.003l-6.062-0.017c-0.21-0.001-0.417-0.087-0.564-0.236s-0.233-0.355-0.233-0.566l0.023-8.378c0.002-0.44 0.361-0.798 0.8-0.798 0.443 0.002 0.801 0.362 0.8 0.803l-0.021 7.578 5.263 0.014c0.44 0.002 0.799 0.362 0.797 0.803 0 0.439-0.36 0.797-0.8 0.797z"></path>
</symbol>
<symbol id="icon-feat-finish" viewBox="0 0 32 32">
<title>feat-finish</title>
<path class="path1" d="M27.446 12.911c0.279-0.214 0.233-0.661-0.063-0.829-0.439-0.248-0.877 0.297-1.186 0.511-1.146 0.794-1.8 0.488-2.646-0.531-0.236-0.285-0.565-0.811-1.007-0.466-0.519 0.406 0.151 0.999 0.385 1.335 0.794 1.146 0.489 1.799-0.53 2.644-0.887 0.736-0.396 1.558 0.568 0.839 1.007-0.75 1.742-1.029 2.667-0.007 0.28 0.309 0.738 1.209 1.283 0.788 0.566-0.442-0.328-1.23-0.563-1.607-0.766-1.231 0.133-1.931 1.092-2.677 0.053-0.040-0.547 0.426 0 0zM24.391 14.666c0.090-0.204 0.114-0.409 0.072-0.613 0.203 0.091 0.408 0.115 0.613 0.072-0.090 0.204-0.114 0.409-0.072 0.613-0.203-0.091-0.408-0.114-0.613-0.072 0.051-0.167 0.032-0.002 0 0z"></path>
<path class="path2" d="M4.518 12.552c0.521 0.493 1.943 0.052 2.639 0.267 0.663 0.191-0.36 1.667-0.538 1.993-0.187 0.34-0.577 1.384 0.334 1.156 0.826-0.24 0.887-1.859 1.707-2.263 0.375-0.185 1.175 1.36 1.317 1.595 0.101 0.283 0.283 0.493 0.546 0.63 0.425 0.109 0.777-0.362 0.554-0.739-0.344-0.581-0.722-1.174-0.958-1.81-0.333-0.9 0.947-0.736 1.557-0.757 0.402-0.014 1.36 0.157 1.35-0.523-0.011-0.719-1.095-0.487-1.511-0.496-0.628-0.013-1.728 0.146-1.418-0.736 0.166-0.472 1.617-2.426 0.537-2.556-0.783-0.094-1.238 1.822-1.854 2.251-0.561 0.096-1.12-1.159-1.369-1.569-0.181-0.3-0.897-1.176-1.149-0.28-0.189 0.662 0.923 1.758 1.085 2.456 0.177 0.756-4.023 0.187-2.829 1.381zM8.677 11.615c0.617 0.002 0.271 0.151 0.71 0.522-0.444 0.393-0.052 0.541-0.675 0.541-0.614-0.002-0.273-0.152-0.71-0.523 0.456-0.385 0.041-0.54 0.675-0.54 0.128 0.001-0.122 0 0 0z"></path>
<path class="path3" d="M20.895 18.178c0.426-0.049 0.59-0.615 0.258-0.886-0.835-0.668-2.346-0.393-3.11-1.262-0.337-0.671 1.232-1.904 1.653-2.313 0.868-0.844 0.198-1.567-0.688-0.73-0.449 0.423-1.689 1.884-2.379 1.566-0.796-0.692-0.674-2.201-1.093-3.083-0.201-0.43-0.861-0.365-0.938 0.132-0.084 0.535 0.277 1.312 0.378 1.849 0.182 0.971 0.38 1.829-0.862 1.646-0.534-0.078-3.108-1.144-2.985-0.044 0.087 0.755 2.486 1.009 3.122 1.449 0.767 0.531-0.781 1.764-1.165 2.145-0.229 0.227-1.511 1.481-0.331 1.508 0.523 0.012 1.216-0.953 1.593-1.276 0.954-0.819 1.491-1.203 1.961 0.159 0.239 0.677 0.408 1.38 0.578 2.076 0.101 0.289 0.302 0.412 0.605 0.367 0.545-0.135 0.338-0.719 0.254-1.070-0.1-0.418-0.773-2.493-0.229-2.803 0.96-0.545 2.417 0.678 3.378 0.57zM15.677 17.051c-0.073 0.010-0.146 0.021-0.22 0.031 0.077-0.381 0.002-0.728-0.249-1.035 0.378-0.118 0.626-0.388 0.761-0.747 0.294 0.271 0.654 0.357 1.037 0.296-0.077 0.381-0.002 0.727 0.249 1.035-0.38 0.118-0.624 0.389-0.761 0.747-0.231-0.212-0.503-0.321-0.817-0.327-0.075 0.002 0.302-0.004 0 0z"></path>
<path class="path4" d="M22.063 8.689c1.061-0.79-1.469-1.082-1.779-1.326-0.739-0.559 0.155-1.654-0.284-2.268-0.264-0.353-0.832-0.198-0.895 0.229-0.148 1.084-0.299 1.911-1.557 1.825-0.367-0.025-0.951-0.256-1.232 0.096-0.237 0.297-0.056 0.752 0.319 0.806 1.085 0.15 1.912 0.3 1.826 1.558-0.027 0.401-0.313 1.244 0.335 1.336 0.727 0.106 0.664-1.143 0.81-1.581 0.439-1.322 1.699-0.106 2.457-0.675 0.105-0.079-0.106 0.079 0 0zM19.267 7.698c0.278 0.191 0.258 0.341-0.063 0.449-0.278-0.191-0.258-0.341 0.063-0.449 0.055 0.092-0.079 0.073 0 0z"></path>
<path class="path5" d="M12.51 8.289c0.37 0.713 0.875-0.026 1.029-0.381 0.179-0.413 0.929 0.363 1.155-0.354 0.19-0.597-0.473-0.568-0.761-0.807-0.014-0.378 0.358-0.901-0.219-1.084-0.473-0.15-0.598 0.306-0.736 0.626-0.155 0.358-0.727-0.213-1.061 0.185-0.222 0.262-0.102 0.693 0.232 0.799 0.811 0.246 0.052 0.417 0.361 1.016 0.060 0.116-0.061-0.118 0 0z"></path>
<path class="path6" d="M26.137 22.289c-0.189-0.258-0.777-0.263-0.707-0.584 0.064-0.292 0.197-0.604-0.072-0.831-0.207-0.175-0.53-0.146-0.703 0.060-0.58 0.682-0.036 0.402-0.926 0.482-0.939 0.084-0.195 0.914 0.195 1.082 0.274 0.117-0.251 1.635 0.735 1.123 0.313-0.164 0.235-0.5 0.425-0.73 0.225-0.008 0.426 0.147 0.653 0.127 0.345-0.031 0.564-0.416 0.4-0.729z"></path>
<path class="path7" d="M11.957 26.986c0.471 0.393 0.755-0.18 0.908-0.531 0.18-0.416 0.93 0.363 1.156-0.356 0.23-0.722-0.839-0.509-0.739-0.964 0.083-0.377 0.159-1.088-0.504-0.938-0.431 0.098-0.326 0.832-0.704 0.75-0.374-0.082-1-0.162-0.947 0.438 0.035 0.396 0.373 0.422 0.648 0.54 0.355 0.153-0.212 0.727 0.182 1.061 0.050 0.043-0.101-0.085 0 0z"></path>
<path class="path8" d="M10.958 19.133c0.461-0.453-0.242-1.166-0.702-0.712-0.349 0.345-0.756 0.788-1.233 0.96-0.886 0.32-1.669-1.68-2.375-0.988-0.704 0.695 1.5 1.628 0.79 2.688-0.199 0.297-1.577 1.352-0.658 1.737 0.731 0.307 1.226-1.107 1.997-1.107 0.792 0.003 1.131 1.245 1.86 1.16 0.875-0.1 0.214-0.916-0.040-1.195-0.963-1.054-0.58-1.618 0.361-2.543 0.196-0.194-0.382 0.375 0 0zM8.628 20.738c0.027-0.113 0.024-0.224-0.010-0.333 0.112 0.026 0.223 0.024 0.333-0.010-0.027 0.118-0.023 0.234 0.013 0.35-0.112-0.043-0.224-0.046-0.336-0.007 0.007-0.061 0.050-0.006 0 0z"></path>
<path class="path9" d="M20.732 22.395c0.313-0.309 0.090-0.854-0.348-0.856-0.466-0.003-0.909 0.7-1.278 0.942-1.118 0.732-1.396-0.961-2.327-0.969-1.332-0.010 0.64 1.861 0.642 2.304-0.003 0.79-1.16 1.081-1.171 1.798 0 0.426 0.532 0.681 0.85 0.362 0.713-0.704 1.333-1.351 2.24-0.597 0.32 0.266 0.875 1.106 1.365 0.622 0.489-0.481-0.337-1.044-0.598-1.367-0.744-0.921-0.093-1.532 0.625-2.239 0.198-0.195-0.38 0.375 0 0zM18.387 24.004c0.044-0.118 0.046-0.236 0.004-0.354 0.118 0.045 0.235 0.045 0.354 0.004-0.043 0.111-0.046 0.225-0.008 0.336-0.119-0.027-0.235-0.023-0.35 0.014 0.008-0.065 0.055-0.007 0 0z"></path>
</symbol>
<symbol id="icon-feat-coverage" viewBox="0 0 32 32">
<title>feat-coverage</title>
<path class="path1" d="M25.438 22.326h-18.875c-1.095-0.002-1.988-0.895-1.991-1.988v-8.674c0.003-1.095 0.896-1.988 1.991-1.991h18.875c1.095 0.003 1.987 0.896 1.99 1.99v8.674c-0.001 1.095-0.894 1.987-1.99 1.989zM22.997 20.727h2.441c0.212-0.001 0.391-0.18 0.391-0.39v-8.673c0-0.211-0.179-0.39-0.391-0.39h-18.875c-0.211 0-0.391 0.179-0.392 0.391v8.673c0.001 0.21 0.181 0.389 0.392 0.39h2.102v-4.728c0-0.441 0.359-0.8 0.801-0.8 0.44 0 0.799 0.359 0.799 0.8v4.726h2.645v-2.575c0-0.441 0.358-0.8 0.8-0.8s0.8 0.358 0.8 0.8v2.575h2.645v-4.726c0-0.441 0.358-0.8 0.8-0.8s0.8 0.359 0.8 0.8v4.726h2.645v-2.575c0-0.441 0.358-0.8 0.799-0.8s0.801 0.358 0.801 0.8v2.576z"></path>
</symbol>
<symbol id="icon-feat-coats" viewBox="0 0 32 32">
<title>feat-coats</title>
<path class="path1" d="M24.256 4.795h-13.644c-0.998 0.002-1.81 0.826-1.812 1.835v1.203h-1.737l-0.026 0.004c-0.083 0.023-0.23 0.093-0.375 0.214-0.162 0.133-0.287 0.333-0.351 0.562-0.053 0.184-0.077 0.383-0.079 0.665 0 0.809 0.008 1.639 0.017 2.313l0.010 1.155c-0.004 0.295 0.105 0.617 0.284 0.838 0.249 0.309 0.55 0.453 0.84 0.564 0.12 0.043 0.229 0.074 0.346 0.107l0.228 0.070c0.27 0.087 2.132 0.668 4.151 1.291 0.313 0.096 0.859 0.245 1.438 0.403 1.059 0.289 2.656 0.724 2.792 0.844 0.069 0.095 0.048 0.636-0.011 1.109l-0.226 0.050c-0.191 0.076-0.354 0.178-0.485 0.307-0.315 0.313-0.415 0.674-0.464 0.926l-0.015 0.123c-0.016 0.188-0.046 0.713-0.085 1.479-0.107 2.021-0.311 6.199-0.311 6.222v0.037c0 0.311 0.059 0.577 0.181 0.813 0.102 0.2 0.266 0.388 0.448 0.514 0.273 0.191 0.546 0.252 0.753 0.285 0.219 0.031 0.422 0.035 0.611 0.035h0.578c0.308-0.012 0.634 0.031 1.102-0.169 0.269-0.118 0.522-0.364 0.647-0.624 0.151-0.305 0.169-0.598 0.169-0.791v-0.042c0 0-0.085-1.923-0.178-3.87l-0.008-0.182c-0.043-0.912-0.087-1.818-0.124-2.523l-0.028-0.502c-0.010-0.162-0.018-0.306-0.026-0.424-0.004-0.082-0.009-0.152-0.013-0.215l-0.060-0.404c-0.069-0.229-0.219-0.551-0.531-0.793-0.104-0.080-0.22-0.145-0.384-0.205l-0.273-0.049-0.062-1.057-0.004-0.035c-0.037-0.339-0.119-0.8-0.404-0.925-0.178-0.141-0.856-0.344-0.995-0.385-0.79-0.229-2.343-0.702-4.615-1.403l-3.345-1.043-0.221-0.063c-0.173-0.048-0.347-0.122-0.416-0.176l-0.082-0.062c-0.001-0.178-0.004-0.793-0.009-1.18-0.008-0.688-0.018-1.535-0.017-2.396l0.025-0.225 0.219 0.011c0.104 0.005 0.228 0.010 0.375 0.011l0.746-0.006v1.28c0.001 1.011 0.813 1.834 1.813 1.835l13.644-0.001c0.997 0 1.81-0.823 1.811-1.834v-3.686c-0.004-1.011-0.816-1.835-1.812-1.835zM24.716 6.626v3.567c0 0.328-0.264 0.595-0.587 0.596h-13.35c-0.324 0-0.589-0.268-0.589-0.597v-3.567c0.001-0.329 0.266-0.596 0.59-0.597h13.35c0.322 0 0.585 0.268 0.586 0.598zM17.615 20.921c0.028 0.644 0.104 2.476 0.104 2.476 0.070 1.777 0.135 3.531 0.136 3.545-0.001 0.105-0.023 0.308-0.060 0.395-0.019 0.044-0.066 0.096-0.088 0.107-0.13 0.066-0.22 0.066-0.385 0.067l-0.585 0.003c-0.112-0.002-0.219-0.003-0.335-0.022-0.084-0.017-0.153-0.037-0.219-0.091-0.031-0.025-0.064-0.070-0.080-0.107s-0.036-0.209-0.036-0.407c0.003-0.128 0.157-3.86 0.239-5.696 0.028-0.664 0.052-1.148 0.063-1.326l0.022-0.274c0.020-0.115 0.060-0.209 0.114-0.272 0.001-0.002 0.002-0.002 0.003-0.004l0.953 0.002c0.041 0.045 0.073 0.112 0.1 0.203v0.301l0.054 1.1z"></path>
</symbol>
<symbol id="icon-store_indicator" viewBox="0 0 32 32">
<title>store_indicator</title>
<path class="path1" d="M24.137 13.1c-0.002-2.233-0.794-4.492-2.418-6.057-1.594-1.531-3.683-2.297-5.765-2.296-2.101-0.001-4.208 0.78-5.806 2.333v0c-1.597 1.56-2.373 3.796-2.375 6.008 0.001 1.815 0.528 3.632 1.639 5.069l-0.002 0.002 6.016 8.333c0.131 0.182 0.347 0.29 0.577 0.289 0.229 0 0.444-0.11 0.574-0.293l5.956-8.373c1.088-1.427 1.603-3.221 1.604-5.015zM19.050 12.572v0.010c0.001 1.608-1.349 2.915-3.014 2.919h-0.010c-1.665 0.001-3.019-1.3-3.024-2.91v-0.010c-0.001-1.608 1.346-2.916 3.013-2.919v0h0.011c1.666-0.001 3.021 1.3 3.024 2.91v0z"></path>
</symbol>
<symbol id="icon-scroll_indicator" viewBox="0 0 32 32">
<title>scroll_indicator</title>
<path class="path1" d="M15.958 25.372v0c-0.108 0-0.212-0.044-0.287-0.122l-2.341-2.441c-0.152-0.158-0.147-0.41 0.012-0.563 0.159-0.151 0.411-0.146 0.563 0.012l2.053 2.141 2.054-2.141c0.152-0.158 0.404-0.164 0.563-0.012s0.164 0.404 0.012 0.563l-2.341 2.441c-0.076 0.078-0.18 0.122-0.288 0.122z"></path>
<path class="path2" d="M15.958 28.648v0c-0.108 0-0.212-0.045-0.287-0.123l-2.341-2.439c-0.152-0.158-0.147-0.411 0.012-0.563s0.411-0.147 0.563 0.012l2.053 2.141 2.054-2.141c0.152-0.159 0.404-0.164 0.563-0.012s0.164 0.404 0.012 0.563l-2.341 2.44c-0.076 0.078-0.18 0.122-0.288 0.122z"></path>
<path class="path3" d="M16.049 18.93c-2.864 0-5.195-2.33-5.195-5.195v-5.658c0-2.865 2.331-5.196 5.195-5.196 2.865 0 5.195 2.331 5.195 5.196v5.658c0 2.865-2.33 5.195-5.195 5.195zM16.049 3.905c-2.3 0-4.171 1.872-4.171 4.172v5.658c0 2.3 1.871 4.171 4.171 4.171 2.301 0 4.172-1.871 4.172-4.171v-5.658c0-2.301-1.871-4.172-4.172-4.172z"></path>
<path class="path4" d="M17.572 7.247c0 0.868-0.703 1.571-1.571 1.571s-1.571-0.703-1.571-1.571c0-0.868 0.703-1.571 1.571-1.571s1.571 0.703 1.571 1.571z"></path>
</symbol>
<symbol id="icon-device" viewBox="0 0 32 32">
<title>device</title>
<path class="path1" d="M19.833 21.897h-5.938c-0.216 0-0.405 0.189-0.405 0.405s0.189 0.405 0.405 0.405h5.938c0.215 0 0.404-0.189 0.404-0.405s-0.189-0.405-0.404-0.405z"></path>
<path class="path2" d="M26.985 17.147h-0.729v-6.073c0-1.215-0.973-2.187-2.188-2.187h-14.438c-1.215 0-2.187 0.972-2.187 2.187v1.7h-1.916c-0.729 0-1.296 0.594-1.296 1.296v7.746c0 0.729 0.594 1.296 1.296 1.296h4.372c0.729 0 1.296-0.594 1.296-1.296v-0.404h12.874v0.755c0 0.459 0.352 0.837 0.783 0.837h2.133c0.432 0 0.783-0.378 0.783-0.837v-4.21c-0.027-0.459-0.378-0.81-0.783-0.81zM8.172 22.572c-0.054 0.108-0.135 0.188-0.27 0.188h-0.567c-0.107 0-0.215-0.080-0.242-0.188 0-0.026-0.027-0.054-0.027-0.081 0-0.162 0.108-0.27 0.27-0.27h0.567c0.162 0 0.27 0.107 0.27 0.27-0.001 0.028-0.001 0.055-0.001 0.081zM10.655 20.872v0.944h-5.911v-7.746c0-0.432 0.352-0.756 0.756-0.756h4.346c0.432 0 0.756 0.351 0.756 0.756v6.802h0.053zM24.069 17.957v2.915h-12.874v-6.802c0-0.729-0.594-1.296-1.296-1.296h-1.888v-1.673c0-0.917 0.728-1.646 1.646-1.646h14.44c0.918 0 1.646 0.729 1.646 1.646v6.046h-0.891c-0.431 0-0.783 0.351-0.783 0.81zM26.095 22.464c-0.027 0.027-0.055 0.055-0.107 0.055h-0.135c-0.055 0-0.082-0.027-0.109-0.055 0-0.026-0.025-0.054-0.025-0.080 0-0.081 0.053-0.135 0.135-0.135h0.135c0.080 0 0.135 0.054 0.135 0.135-0.002 0.026-0.029 0.054-0.029 0.080zM27.202 21.897h-2.592v-3.724h2.591v3.724z"></path>
</symbol>
<symbol id="icon-forward" viewBox="0 0 32 32">
<title>forward</title>
<path class="path1" d="M27.282 15.443c-0.010-0.024-0.024-0.042-0.041-0.064-0.033-0.059-0.080-0.135-0.137-0.186l-12.084-10.643c-0.319-0.282-0.848-0.246-1.129 0.071-0.291 0.332-0.259 0.839 0.072 1.13l10.469 9.213h-20.071c-0.441 0-0.8 0.358-0.8 0.8s0.359 0.8 0.8 0.8h20.070l-10.468 9.213c-0.161 0.141-0.256 0.336-0.27 0.55-0.014 0.213 0.057 0.419 0.198 0.58 0.152 0.172 0.371 0.271 0.601 0.271 0.195 0 0.382-0.070 0.528-0.199l12.074-10.632c0.067-0.063 0.113-0.139 0.155-0.21 0.009-0.012 0.021-0.027 0.032-0.051 0.046-0.104 0.068-0.211 0.068-0.321s-0.021-0.219-0.067-0.322z"></path>
</symbol>
<symbol id="icon-back" viewBox="0 0 32 32">
<title>back</title>
<path class="path1" d="M16.917 27.175c-0.195 0-0.382-0.070-0.528-0.199l-12.085-10.645c-0.055-0.048-0.101-0.123-0.134-0.182-0.018-0.024-0.031-0.041-0.042-0.063-0.046-0.104-0.070-0.213-0.070-0.322s0.023-0.218 0.070-0.321c0.009-0.022 0.022-0.040 0.032-0.053 0.042-0.070 0.088-0.146 0.156-0.208l12.073-10.632c0.318-0.281 0.85-0.246 1.129 0.071 0.291 0.332 0.258 0.838-0.072 1.13l-10.467 9.213h20.070c0.441 0 0.8 0.358 0.8 0.8s-0.358 0.8-0.8 0.8h-20.070l10.466 9.211c0.331 0.291 0.363 0.798 0.072 1.13-0.152 0.171-0.371 0.27-0.6 0.27z"></path>
</symbol>
<symbol id="icon-succes" viewBox="0 0 32 32">
<title>succes</title>
<path class="path1" d="M25.934 7.306l-14.738 15.125-6.061-6.213c-0.299-0.307-0.826-0.313-1.131-0.013-0.153 0.148-0.239 0.349-0.241 0.563s0.078 0.416 0.227 0.568l6.634 6.801c0.152 0.155 0.356 0.24 0.572 0.24 0.217 0 0.421-0.086 0.573-0.242l15.311-15.714c0.148-0.152 0.229-0.354 0.227-0.567-0.004-0.214-0.090-0.414-0.242-0.563-0.307-0.301-0.833-0.292-1.131 0.015z"></path>
</symbol>
<symbol id="icon-fault" viewBox="0 0 32 32">
<title>fault</title>
<path class="path1" d="M17.394 16.333l8.804-8.862c0.311-0.314 0.309-0.821-0.005-1.132-0.302-0.3-0.829-0.299-1.131 0.005l-8.795 8.854-8.797-8.854c-0.301-0.304-0.828-0.305-1.132-0.005-0.312 0.311-0.314 0.819-0.003 1.132l8.804 8.862-8.802 8.86c-0.31 0.313-0.309 0.819 0.003 1.132 0.303 0.301 0.831 0.298 1.131-0.005l8.794-8.853 8.793 8.853c0.151 0.152 0.353 0.236 0.567 0.236s0.413-0.082 0.563-0.231c0.313-0.311 0.314-0.818 0.005-1.132l-8.799-8.86z"></path>
</symbol>
<symbol id="icon-open" viewBox="0 0 32 32">
<title>open</title>
<path class="path1" d="M26.895 15.016h-9.905v-9.906c0-0.441-0.359-0.8-0.8-0.8s-0.8 0.358-0.8 0.8v9.905h-9.906c-0.441 0-0.8 0.358-0.8 0.8s0.359 0.8 0.8 0.8h9.905v9.907c0 0.441 0.359 0.8 0.8 0.8s0.8-0.358 0.8-0.8v-9.907h9.905c0.441 0 0.801-0.358 0.801-0.8s-0.359-0.799-0.8-0.799z"></path>
</symbol>
<symbol id="icon-close" viewBox="0 0 32 32">
<title>close</title>
<path class="path1" d="M27.208 15.016h-20.873c-0.441 0-0.8 0.358-0.8 0.8s0.359 0.8 0.8 0.8h20.873c0.44 0 0.799-0.358 0.799-0.8s-0.359-0.8-0.799-0.8z"></path>
</symbol>
<symbol id="icon-checkmark" viewBox="0 0 28 21.19">
<title>checkmark</title>
<path d="M9.59,21.85a2,2,0,0,1-1.43-.6L.9,13.8A2,2,0,1,1,3.77,11l5.82,6L24.9,1.26a2,2,0,1,1,2.87,2.79L11,21.24a2,2,0,0,1-1.43.6Z" transform="translate(-0.34 -0.66)"></path>
</symbol>
<symbol id="icon-location" viewBox="0 0 34 32">
<title>location</title>
<path d="M17.1,15.9c-2.5,0-4.5-2-4.5-4.5c0-2.5,2-4.5,4.5-4.5c2.5,0,4.5,2,4.5,4.5c0,1.2-0.5,2.3-1.3,3.2
C19.4,15.4,18.3,15.8,17.1,15.9C17.1,15.9,17.1,15.9,17.1,15.9z M17.1,8.9c-1.4,0-2.5,1.1-2.5,2.5c0,1.3,1.1,2.4,2.5,2.4v1l0-1
c0.7,0,1.3-0.3,1.7-0.7c0.5-0.5,0.7-1.1,0.7-1.7C19.6,10,18.5,8.9,17.1,8.9z"/>
<path d="M17.1,32c-0.3,0-0.6-0.2-0.8-0.4L7.8,19.5c-3.4-4.5-3-12.1,1-16.1C11,1.2,13.9,0,17,0
c3.1,0,5.9,1.2,8.1,3.3c4,4,4.5,11.5,1.1,16.1l-8.3,12.1C17.7,31.8,17.4,32,17.1,32C17.1,32,17.1,32,17.1,32z M17,2
c-2.5,0-4.9,1-6.7,2.8C7,8.1,6.6,14.5,9.4,18.3l7.6,10.9l7.5-10.9C27.4,14.5,27,8,23.7,4.8C21.9,3,19.5,2,17,2z"/>
</symbol>
<symbol id="icon-arrow-cube" viewBox="0 0 42 32">
<title>arrow-cube</title>
<path d="M39.893 17.707c-0.32 0-0.8-0.16-1.12-0.48l-14.080-13.44c-0.64-0.64-0.64-1.6 0-2.24s1.6-0.64 2.24 0l14.080 13.44c0.64 0.64 0.64 1.6 0 2.24-0.32 0.32-0.64 0.48-1.12 0.48z"></path>
<path d="M25.813 30.987c-0.48 0-0.8-0.16-1.12-0.48-0.64-0.64-0.64-1.6 0-2.24l14.080-13.44c0.64-0.64 1.6-0.64 2.24 0s0.64 1.6 0 2.24l-14.080 13.44c-0.32 0.32-0.64 0.48-1.12 0.48z"></path>
<path d="M39.893 17.707h-37.76c-0.96 0-1.6-0.64-1.6-1.6s0.64-1.6 1.6-1.6h37.76c0.96 0 1.6 0.64 1.6 1.6s-0.64 1.6-1.6 1.6z"></path>
</symbol>
<symbol viewBox="0 0 32 32" id="icon-view" xmlns="http://www.w3.org/2000/svg">
<defs>
<style>.cicls-1{fill-rule:evenodd}</style>
</defs>
<title>icon-view</title>
<path class="cicls-1" d="M31.42 17.78q-7 9.57-15.42 9.57T.58 17.78a3 3 0 0 1 0-3.56Q7.56 4.65 16 4.65t15.42 9.57a3 3 0 0 1 0 3.56zM16 23.57A7.57 7.57 0 1 0 8.43 16 7.57 7.57 0 0 0 16 23.57zm0-11a3 3 0 1 0 2.9 3 3 3 0 0 0-2.9-2.98z" id="ciLayer_1" data-name="Layer 1"/>
</symbol>
<symbol id="icon-close-2" viewBox="0 0 64 64">
<title>close v2</title>
<path d="M34.1,32L59.1,7.1c0.6-0.6,0.6-1.5,0-2.1c-0.6-0.6-1.5-0.6-2.1,0L32,29.9L7.1,4.9c-0.6-0.6-1.5-0.6-2.1,0
c-0.6,0.6-0.6,1.5,0,2.1L29.9,32L4.9,56.9c-0.6,0.6-0.6,1.5,0,2.1c0.3,0.3,0.7,0.4,1.1,0.4s0.8-0.1,1.1-0.4L32,34.1l24.9,24.9
c0.3,0.3,0.7,0.4,1.1,0.4s0.8-0.1,1.1-0.4c0.6-0.6,0.6-1.5,0-2.1L34.1,32z"/>
</symbol>
</defs>
</svg>
