<?xml version="1.0" encoding="UTF-8"?>
<svg width="71px" height="82px" viewBox="0 0 71 82" version="1.1" xmlns="http://www.w3.org/2000/svg" xmlns:xlink="http://www.w3.org/1999/xlink">
    <!-- Generator: Sketch 43.2 (39069) - http://www.bohemiancoding.com/sketch -->
    <title>ICN / newsletter</title>
    <desc>Created with Sketch.</desc>
    <defs></defs>
    <g id="Page-1" stroke="none" stroke-width="1" fill="none" fill-rule="evenodd">
        <g id="desktop-1024---newsletter-subscription---thanks-copy" transform="translate(-477.000000, -111.000000)">
            <g id="ICN-/-newsletter" transform="translate(477.000000, 111.000000)">
                <g>
                    <path d="M50.0786885,27.3000404 L54.478841,30.2286263 C55.4291651,30.8614242 56,31.9259293 56,33.0654444 L56,58.2640505 C56,60.1472828 54.4676325,61.6746162 52.5781929,61.6746162 L17.4210065,61.6746162 C15.5315669,61.6746162 14,60.1472828 14,58.2640505 L14,33.0191616 C14,31.9051818 14.5452154,30.8614242 15.4611132,30.2230404 L20.088639,27" id="Stroke-1" stroke="#333333"></path>
                    <path d="M20,38.5808683 L20,16.2878182 C20,15.3823593 20.7199487,14.6464961 21.6096741,14.6443861 L48.3911268,14.5808728 C49.2800513,14.5787647 50,15.3155702 50,16.2264028 L50,38.5808683" id="Stroke-3" stroke="#333333" stroke-linecap="round"></path>
                    <polyline id="Stroke-5" stroke="#333333" stroke-linecap="round" stroke-linejoin="round" points="55 60.6410707 34.9996099 44 15 60.6410707"></polyline>
                    <path d="M14.5,35.5 L31.9175949,46.5842343" id="Stroke-7" stroke="#333333" stroke-linecap="round"></path>
                    <path d="M56,35 L38.1071835,46.5842343" id="Stroke-9" stroke="#333333" stroke-linecap="round"></path>
                    <polygon id="Stroke-14" stroke="#333333" points="35 0.208676768 36.546 3.49967677 40 4.02767677 37.5 6.59067677 38.091 10.2086768 35 8.49967677 31.91 10.2086768 32.5 6.59067677 30 4.02767677 33.455 3.49967677"></polygon>
                    <path d="M46.2066203,7 L43,10.2086768" id="Stroke-16" stroke="#333333" stroke-linecap="round"></path>
                    <path d="M23,7 L26.2058228,10.2086768" id="Stroke-18" stroke="#333333" stroke-linecap="round"></path>
                    <path d="M26,26 L44,26" id="Stroke-20" stroke="#333333"></path>
                    <path d="M29,31.2376137 L41,31.2376137" id="Stroke-22" stroke="#333333"></path>
                    <path d="M4.75475316,62.680141 C3.35542405,61.6222638 2.43512025,63.1066444 1.03579114,62.0487671 C0.567550633,61.6939685 0.0849303797,61.3205452 0.010335443,60.8986981 C-0.0804367089,60.3893152 0.43993038,59.9060069 0.976474684,59.4673976 C7.18133544,54.4089563 18.113538,50.8339643 29.9597532,49.99027 C33.9105886,49.7090385 38.0465633,49.7267319 41.7682215,50.4400541 C45.0647785,51.0732904 47.8445633,52.2112535 50.5614367,53.3305919 C54.1653608,54.816835 57.7692848,56.3012156 61.3741076,57.7865274 C63.664981,58.7317259 65.9945,59.6964801 67.5951456,60.9406034 C68.8282089,61.8969766 69.5804494,62.9827908 70.3210063,64.0574302 C70.707462,64.6161682 71.0975127,65.1963244 70.977981,65.7839306 C70.8305886,66.5000464 69.9462342,67.1230393 68.9980696,67.6687401 C63.4043481,70.8907958 54.9895,72.5139297 46.8092215,73.8074081 C38.6280443,75.1027491 30.0909684,76.2462995 23.2992342,78.8453624 C20.4367658,79.9404888 17.6965253,81.3317465 14.106981,81.5598978 C10.5228291,81.7889804 7.13460127,80.7813895 4.14720886,79.7765924 C3.47405696,79.5503035 2.78562658,79.3119086 2.35423418,78.9710784 C1.84285443,78.5659934 1.75747468,78.0668541 1.72152532,77.5909956 C1.52829747,75.0059011 2.38658861,72.4021821 4.22989241,69.9828466 C5.08458861,68.858852 6.16666456,67.7320637 6.13790506,66.5317082 C6.1100443,65.332284 7.17594304,62.7714016 4.75475316,62.680141" id="Fill-11" fill-opacity="0.168902853" fill="#1CAE8B"></path>
                </g>
            </g>
        </g>
    </g>
</svg>